{"glyphs":{"0":{"ha":833,"x_min":0,"x_max":0,"o":"m 118 451 b 414 -14 83 201 178 -14 b 840 451 650 -14 807 215 b 544 917 874 688 781 917 b 118 451 308 917 151 688 z m 354 451 b 535 847 392 715 438 847 b 604 451 632 847 642 715 b 424 56 567 188 521 56 b 354 451 326 56 317 188 z "},"1":{"ha":583,"x_min":0,"x_max":0,"o":"m 531 917 l 517 917 l 158 833 l 153 792 b 278 694 278 792 289 771 l 201 153 b 47 42 190 76 160 56 l 42 0 l 542 0 l 547 42 b 424 153 438 56 413 76 z "},"2":{"ha":708,"x_min":0,"x_max":0,"o":"m 465 847 b 372 725 410 847 379 826 b 278 646 369 696 347 646 b 193 743 201 646 186 694 b 496 917 206 832 294 917 b 753 668 683 917 771 792 b 293 167 738 556 683 417 l 689 167 l 667 0 l 42 0 l 49 56 b 536 653 447 319 518 528 b 465 847 551 764 535 847 z "},"3":{"ha":743,"x_min":0,"x_max":0,"o":"m 340 56 b 275 185 285 56 254 83 b 203 257 281 214 272 257 b 83 160 119 257 90 208 b 324 -14 71 71 150 -14 b 724 256 539 -14 699 78 b 500 479 744 403 621 464 l 500 482 b 750 710 640 507 735 601 b 482 917 768 833 669 917 b 193 743 294 917 206 832 b 278 646 186 694 201 646 b 372 725 347 646 369 696 b 465 847 379 826 410 847 b 546 706 493 847 561 819 b 358 507 526 572 443 507 l 336 507 l 326 444 l 376 444 b 492 258 464 444 508 376 b 340 56 472 119 424 56 z "},"4":{"ha":792,"x_min":0,"x_max":0,"o":"m 468 306 l 525 707 l 151 306 z m 772 167 l 671 167 l 649 0 l 426 0 l 449 167 l 64 167 l 88 328 l 632 917 l 776 917 l 690 306 l 792 306 z "},"5":{"ha":743,"x_min":0,"x_max":0,"o":"m 214 486 l 325 486 b 494 264 464 486 513 386 b 340 56 478 139 438 56 b 275 185 285 56 254 83 b 203 257 281 214 272 257 b 83 160 119 257 90 208 b 324 -14 71 71 150 -14 b 725 271 546 -14 701 104 b 294 563 740 378 703 604 l 328 736 l 756 736 l 779 903 l 286 903 z "},"6":{"ha":785,"x_min":0,"x_max":0,"o":"m 532 278 b 457 489 551 417 528 489 b 354 453 431 489 392 479 b 403 56 306 274 299 56 b 532 278 468 56 510 119 z m 769 292 b 392 -14 743 106 558 -14 b 104 353 182 -14 76 154 b 704 931 146 649 401 875 l 711 875 b 363 521 458 806 393 625 b 540 582 432 574 503 582 b 769 292 715 582 790 444 z "},"7":{"ha":681,"x_min":0,"x_max":0,"o":"m 372 0 l 122 0 l 644 736 l 297 736 b 179 639 218 736 203 710 l 131 639 l 175 903 l 779 903 l 767 819 z "},"8":{"ha":785,"x_min":0,"x_max":0,"o":"m 600 714 b 514 847 614 819 571 847 b 400 726 471 847 411 807 b 521 543 392 667 408 590 b 600 714 553 569 590 644 z m 535 199 b 375 403 547 290 500 346 b 296 231 342 361 306 301 b 397 56 279 113 326 56 b 535 199 479 56 524 121 z m 756 246 b 385 -14 732 76 560 -14 b 93 221 206 -14 69 56 b 321 433 108 326 199 407 b 192 681 203 507 181 596 b 529 917 214 831 364 917 b 779 708 668 917 800 851 b 575 515 768 626 704 544 b 756 246 735 444 771 351 z "},"9":{"ha":785,"x_min":0,"x_max":0,"o":"m 379 625 b 453 414 360 486 382 414 b 556 450 479 414 518 424 b 507 847 604 629 611 847 b 379 625 442 847 401 783 z m 140 611 b 518 917 167 797 351 917 b 806 550 728 917 833 749 b 207 -28 764 254 508 28 l 199 28 b 547 382 451 97 518 278 b 369 321 479 329 407 321 b 140 611 194 321 119 458 z "},"\u0000":{"ha":819,"x_min":0,"x_max":0,"o":"m 194 694 l 97 0 l 722 0 l 819 694 z m 446 346 l 115 22 l 207 674 z m 469 346 l 800 671 l 710 25 z m 224 678 l 786 678 l 461 360 z m 457 333 l 690 17 l 133 17 z "}," ":{"ha":319,"x_min":0,"x_max":0,"o":""},"!":{"ha":444,"x_min":0,"x_max":0,"o":"m 132 88 b 219 -14 125 32 164 -14 b 335 88 275 -14 328 32 b 249 189 343 143 304 189 b 132 88 193 189 140 143 z m 290 278 l 454 947 b 374 1069 474 1025 443 1069 b 251 947 304 1069 254 1025 l 235 278 z "},"\"":{"ha":578,"x_min":0,"x_max":0,"o":"m 600 1056 l 533 771 l 469 771 l 481 1056 z m 392 1056 l 325 771 l 261 771 l 272 1056 z "},"#":{"ha":778,"x_min":0,"x_max":0,"o":"m 83 299 l 72 222 l 269 222 l 242 25 l 318 25 l 346 222 l 492 222 l 464 25 l 540 25 l 568 222 l 767 222 l 778 299 l 579 299 l 599 444 l 797 444 l 808 521 l 610 521 l 638 719 l 561 719 l 533 521 l 388 521 l 415 719 l 339 719 l 311 521 l 114 521 l 103 444 l 300 444 l 281 299 z m 376 444 l 522 444 l 503 299 l 357 299 z "},"$":{"ha":743,"x_min":0,"x_max":0,"o":"m 489 1111 l 471 985 b 140 708 301 969 164 872 b 388 394 117 539 240 463 l 342 63 b 133 313 228 63 128 125 l 85 313 l 63 56 b 331 -14 129 17 235 -11 l 313 -139 l 389 -139 l 408 -10 b 742 292 569 8 715 106 b 496 615 767 469 625 560 l 538 910 b 706 681 653 908 688 846 l 754 681 l 775 924 b 547 985 713 960 625 981 l 565 1111 z m 515 215 b 421 83 507 151 468 107 l 458 350 b 515 215 501 314 524 269 z m 376 778 b 458 890 385 838 421 871 l 425 656 b 376 778 382 690 371 732 z "},"%":{"ha":1361,"x_min":0,"x_max":0,"o":"m 1114 1069 l 479 -83 l 396 -83 l 1032 1069 z m 833 201 b 1011 -14 813 82 888 -14 b 1264 201 1138 -14 1246 82 b 1085 417 1283 321 1207 417 b 833 201 958 417 850 321 z m 972 201 b 1074 376 990 326 1021 376 b 1125 201 1126 376 1143 326 b 1024 26 1107 76 1076 26 b 972 201 971 26 954 76 z m 233 771 b 411 556 211 651 288 556 b 664 771 538 556 644 651 b 483 986 683 890 606 986 b 233 771 357 986 250 890 z m 372 771 b 472 946 389 896 419 946 b 525 771 525 946 542 896 b 424 596 507 646 476 596 b 372 771 371 596 354 646 z "},"&":{"ha":1089,"x_min":0,"x_max":0,"o":"m 408 479 b 346 488 386 479 365 482 b 549 125 297 381 299 125 b 754 499 932 125 949 499 b 654 332 440 499 600 232 b 731 281 685 389 761 342 b 510 426 693 204 510 238 b 826 667 510 554 639 667 b 1075 792 1200 667 1115 835 b 972 840 1026 740 943 775 b 1164 681 1000 903 1193 885 b 882 508 1151 596 1071 522 b 464 -14 1056 290 828 -14 b 300 511 18 -14 32 415 b 565 986 114 661 169 986 b 799 813 736 986 811 901 b 650 814 785 710 631 715 b 542 931 665 889 625 931 b 364 563 375 931 318 729 b 408 479 481 618 499 479 z "},"’":{"ha":472,"x_min":0,"x_max":0,"o":"m 372 1083 b 263 988 322 1083 269 1038 b 340 886 254 922 290 886 b 219 700 417 886 360 761 l 243 656 b 478 931 332 686 457 790 b 372 1083 486 992 475 1083 z "},"(":{"ha":521,"x_min":0,"x_max":0,"o":"m 356 410 b 646 1188 390 656 481 958 l 590 1188 b 168 410 342 974 204 667 b 371 -368 132 153 183 -154 l 426 -368 b 356 410 326 -139 321 164 z "},")":{"ha":521,"x_min":0,"x_max":0,"o":"m 279 410 b 208 1188 314 656 307 958 l 264 1188 b 467 410 451 974 503 667 b 44 -368 431 153 293 -154 l -10 -368 b 279 410 153 -139 244 164 z "},"*":{"ha":614,"x_min":0,"x_max":0,"o":"m 294 900 b 288 853 278 886 275 867 b 376 776 294 843 307 839 b 256 796 281 788 269 796 b 218 761 236 796 219 781 b 246 728 215 742 226 728 b 369 744 258 728 271 733 b 264 672 286 685 272 681 b 256 624 247 658 243 638 b 306 624 267 610 289 610 b 392 724 314 632 319 646 b 357 601 367 626 360 614 b 386 567 354 582 367 567 b 425 601 406 567 422 582 b 424 719 428 614 421 626 b 483 624 472 644 475 633 b 532 624 494 610 515 610 b 539 672 547 636 550 658 b 449 744 529 682 517 683 b 569 728 544 733 556 728 b 610 761 589 728 607 742 b 579 796 611 781 599 796 b 451 775 564 796 553 786 b 565 853 542 840 554 842 b 572 901 582 868 583 888 b 525 901 560 915 540 915 b 435 799 513 890 507 875 b 471 925 461 896 469 911 b 440 958 474 946 460 958 b 403 925 421 958 406 944 b 401 799 401 911 406 900 b 342 901 350 876 350 890 b 294 900 329 915 308 914 z "},"+":{"ha":778,"x_min":0,"x_max":0,"o":"m 515 636 l 439 636 l 407 410 l 182 410 l 171 333 l 396 333 l 364 108 l 440 108 l 472 333 l 699 333 l 710 410 l 483 410 z "},",":{"ha":472,"x_min":0,"x_max":0,"o":"m 246 186 b 138 90 196 186 144 140 b 214 -11 128 25 164 -11 b 94 -197 290 -11 233 -136 l 117 -242 b 351 33 206 -211 332 -107 b 246 186 360 94 349 186 z "},"-":{"ha":778,"x_min":0,"x_max":0,"o":"m 182 410 l 171 333 l 699 333 l 710 410 z "},".":{"ha":444,"x_min":0,"x_max":0,"o":"m 132 88 b 219 -14 125 32 164 -14 b 335 88 275 -14 328 32 b 249 189 343 143 304 189 b 132 88 193 189 140 143 z "},"/":{"ha":667,"x_min":0,"x_max":0,"o":"m 692 1069 l 196 -83 l 113 -83 l 610 1069 z "},":":{"ha":444,"x_min":0,"x_max":0,"o":"m 142 154 b 229 53 133 99 174 53 b 344 154 285 53 336 99 b 257 256 353 210 313 256 b 142 154 201 256 150 210 z m 196 542 b 283 440 189 486 228 440 b 399 542 339 440 392 486 b 313 643 407 597 368 643 b 196 542 257 643 204 597 z "},";":{"ha":472,"x_min":0,"x_max":0,"o":"m 210 542 b 297 440 203 486 242 440 b 413 542 353 440 406 486 b 326 643 421 597 382 643 b 210 542 271 643 218 597 z m 246 186 b 138 90 196 186 144 140 b 214 -11 128 25 164 -11 b 94 -197 290 -11 233 -136 l 117 -242 b 351 33 206 -211 332 -107 b 246 186 360 94 349 186 z "},"<":{"ha":667,"x_min":0,"x_max":0,"o":"m 282 374 l 564 164 l 551 74 l 174 351 l 179 393 l 635 671 l 622 581 z "},"=":{"ha":778,"x_min":0,"x_max":0,"o":"m 196 507 l 185 431 l 713 431 l 724 507 z m 168 313 l 157 236 l 685 236 l 696 313 z "},">":{"ha":667,"x_min":0,"x_max":0,"o":"m 488 374 l 147 164 l 135 74 l 590 351 l 596 393 l 218 671 l 206 581 z "},"?":{"ha":624,"x_min":0,"x_max":0,"o":"m 550 764 b 339 656 538 674 419 689 b 267 278 161 583 210 399 l 329 278 b 425 486 318 399 386 467 b 615 736 564 556 601 640 b 426 1042 633 868 490 996 b 294 881 286 1142 160 939 b 550 764 372 847 564 867 z m 172 88 b 260 -14 165 32 204 -14 b 375 88 315 -14 368 32 b 289 189 383 143 344 189 b 172 88 233 189 181 143 z "},"@":{"ha":1228,"x_min":0,"x_max":0,"o":"m 782 346 b 733 496 822 456 772 496 b 533 288 646 496 579 413 b 567 33 485 164 482 33 b 699 129 622 33 665 82 b 782 346 724 171 765 288 z m 926 521 l 942 521 l 825 163 b 858 40 806 104 790 40 b 1097 360 940 40 1068 150 b 768 742 1138 650 972 742 b 268 240 522 742 306 511 b 597 -171 231 -22 339 -171 b 936 -58 710 -171 833 -132 l 946 -83 b 549 -217 835 -167 692 -217 b 172 238 288 -217 135 -24 b 776 783 214 539 500 783 b 1139 365 1010 783 1181 653 b 804 -11 1107 136 954 -11 b 710 92 729 -11 706 38 b 540 -14 672 29 600 -14 b 436 308 389 -14 369 176 b 735 536 496 432 615 536 b 831 451 786 536 825 508 l 835 451 z "},"A":{"ha":972,"x_min":0,"x_max":0,"o":"m 885 125 b 978 42 900 79 911 63 l 972 0 l 556 0 l 561 42 b 633 167 632 56 644 94 l 604 326 l 329 326 l 261 188 b 339 42 222 104 229 56 l 333 0 l 0 0 l 6 42 b 156 125 90 56 128 68 l 568 979 l 686 979 z m 518 736 l 358 389 l 589 389 l 521 736 z "},"B":{"ha":847,"x_min":0,"x_max":0,"o":"m 654 508 b 856 257 822 465 869 364 b 500 0 833 104 708 0 l 42 0 l 47 42 b 146 153 104 56 135 76 l 239 819 b 172 931 250 896 225 917 l 178 972 l 594 972 b 881 736 803 972 900 875 b 654 511 865 625 769 542 z m 413 472 l 356 63 l 453 63 b 626 264 564 63 611 153 b 468 472 644 386 593 472 z m 450 535 b 650 722 575 535 632 603 b 544 910 665 833 628 910 l 475 910 l 422 535 z "},"C":{"ha":889,"x_min":0,"x_max":0,"o":"m 535 56 b 851 278 701 56 807 167 l 900 278 l 857 69 b 525 -14 796 35 664 -14 b 110 486 233 -14 68 194 b 665 986 150 778 374 986 b 974 903 804 986 922 938 l 958 694 l 910 694 b 656 917 897 806 822 917 b 346 486 503 917 382 750 b 535 56 308 222 382 56 z "},"D":{"ha":1028,"x_min":0,"x_max":0,"o":"m 356 63 l 475 910 l 586 910 b 818 486 792 910 854 743 b 481 63 786 267 678 63 z m 472 0 b 1054 486 771 0 1014 200 b 608 972 1097 792 907 972 l 178 972 l 172 931 b 239 819 225 917 250 896 l 146 153 b 47 42 135 76 104 56 l 42 0 z "},"E":{"ha":833,"x_min":0,"x_max":0,"o":"m 475 910 l 676 910 b 825 736 753 910 826 849 l 874 736 l 900 972 l 178 972 l 172 931 b 239 819 225 917 250 896 l 146 153 b 47 42 135 76 104 56 l 42 0 l 778 0 l 824 236 l 775 236 b 571 63 746 124 647 63 l 356 63 l 411 458 l 494 458 b 624 313 571 458 626 424 l 672 313 l 722 667 l 674 667 b 503 521 646 556 579 521 l 419 521 z "},"F":{"ha":799,"x_min":0,"x_max":0,"o":"m 408 438 l 492 438 b 621 292 568 438 624 403 l 669 292 l 719 646 l 671 646 b 500 500 643 535 576 500 l 417 500 l 475 910 l 676 910 b 825 736 753 910 826 849 l 874 736 l 900 972 l 178 972 l 172 931 b 239 819 225 917 250 896 l 146 153 b 47 42 135 76 104 56 l 42 0 l 431 0 l 436 42 b 368 153 382 56 357 76 z "},"G":{"ha":986,"x_min":0,"x_max":0,"o":"m 707 292 b 639 403 718 368 707 389 l 644 444 l 1033 444 l 1028 403 b 929 292 943 389 940 368 l 901 97 b 525 -14 840 56 664 -14 b 110 486 233 -14 68 194 b 665 986 150 778 374 986 b 974 903 804 986 922 938 l 958 694 l 910 694 b 656 917 897 806 822 917 b 346 486 503 917 382 750 b 535 56 308 222 382 56 b 678 83 586 56 633 65 z "},"H":{"ha":1083,"x_min":0,"x_max":0,"o":"m 1072 819 b 1172 931 1083 896 1114 917 l 1178 972 l 789 972 l 783 931 b 850 819 836 917 861 896 l 810 528 l 421 528 l 461 819 b 561 931 472 896 503 917 l 567 972 l 178 972 l 172 931 b 239 819 225 917 250 896 l 146 153 b 47 42 135 76 104 56 l 42 0 l 431 0 l 436 42 b 368 153 382 56 357 76 l 413 465 l 801 465 l 757 153 b 658 42 746 76 715 56 l 653 0 l 1042 0 l 1047 42 b 979 153 993 56 968 76 z "},"I":{"ha":472,"x_min":0,"x_max":0,"o":"m 461 819 b 561 931 472 896 503 917 l 567 972 l 178 972 l 172 931 b 239 819 225 917 250 896 l 146 153 b 47 42 135 76 104 56 l 42 0 l 431 0 l 436 42 b 368 153 382 56 357 76 z "},"J":{"ha":556,"x_min":0,"x_max":0,"o":"m 544 819 b 644 931 556 896 586 917 l 650 972 l 261 972 l 256 931 b 322 819 308 917 333 896 l 258 361 b 106 104 235 194 256 -37 b 81 -14 8 196 -92 -14 b 489 417 324 -14 457 194 z "},"K":{"ha":1019,"x_min":0,"x_max":0,"o":"m 540 583 b 419 514 499 542 475 514 l 461 819 b 561 931 472 896 503 917 l 567 972 l 178 972 l 172 931 b 239 819 225 917 250 896 l 146 153 b 47 42 135 76 104 56 l 42 0 l 431 0 l 436 42 b 368 153 382 56 357 76 l 407 431 b 451 396 421 431 432 429 l 579 174 b 567 42 617 110 632 56 l 561 0 l 1006 0 l 1011 42 b 865 181 968 69 904 121 l 621 569 l 860 833 b 1081 931 918 893 982 917 l 1086 972 l 711 972 l 706 931 b 728 785 822 917 782 840 z "},"L":{"ha":806,"x_min":0,"x_max":0,"o":"m 356 63 l 461 819 b 561 931 472 896 503 917 l 567 972 l 178 972 l 172 931 b 239 819 225 917 250 896 l 146 153 b 47 42 135 76 104 56 l 42 0 l 778 0 l 824 236 l 775 236 b 571 63 746 124 647 63 z "},"M":{"ha":1222,"x_min":0,"x_max":0,"o":"m 692 278 l 546 972 l 178 972 l 172 931 b 281 819 281 917 292 896 l 188 153 b 47 42 176 76 160 56 l 42 0 l 361 0 l 367 42 b 257 153 257 56 246 76 l 347 792 l 519 -7 l 631 -7 l 974 708 l 896 153 b 797 42 885 76 854 56 l 792 0 l 1181 0 l 1186 42 b 1118 153 1132 56 1107 76 l 1211 819 b 1311 931 1222 896 1253 917 l 1317 972 l 1025 972 z "},"N":{"ha":1014,"x_min":0,"x_max":0,"o":"m 838 333 l 525 972 l 178 972 l 172 931 b 274 819 253 917 285 896 l 181 153 b 47 42 169 76 132 56 l 42 0 l 361 0 l 367 42 b 257 153 257 56 246 76 l 347 792 l 736 0 l 868 0 l 982 819 b 1117 931 993 896 1031 917 l 1122 972 l 803 972 l 797 931 b 906 819 906 917 917 896 z "},"O":{"ha":1083,"x_min":0,"x_max":0,"o":"m 110 486 b 539 -14 68 194 278 -14 b 1110 486 800 -14 1068 194 b 679 986 1150 778 940 986 b 110 486 418 986 150 778 z m 346 486 b 669 917 382 750 489 917 b 874 486 850 917 910 750 b 549 56 836 222 729 56 b 346 486 368 56 308 222 z "},"P":{"ha":847,"x_min":0,"x_max":0,"o":"m 413 465 l 475 910 l 572 910 b 688 694 683 910 703 806 b 468 465 669 572 607 465 z m 486 403 b 918 708 778 403 899 569 b 636 972 940 861 844 972 l 178 972 l 172 931 b 239 819 225 917 250 896 l 146 153 b 47 42 135 76 104 56 l 42 0 l 431 0 l 436 42 b 368 153 382 56 357 76 l 403 403 z "},"Q":{"ha":1083,"x_min":0,"x_max":0,"o":"m 110 486 b 478 -10 71 217 244 19 b 825 -347 551 -218 633 -347 b 1026 -306 894 -347 986 -322 l 1031 -271 b 646 -1 856 -242 722 -92 b 1110 486 869 44 1074 235 b 679 986 1150 778 940 986 b 110 486 418 986 150 778 z m 346 486 b 669 917 382 750 489 917 b 874 486 850 917 910 750 b 549 56 836 222 729 56 b 346 486 368 56 308 222 z "},"R":{"ha":931,"x_min":0,"x_max":0,"o":"m 904 708 b 622 972 926 861 831 972 l 178 972 l 172 931 b 239 819 225 917 250 896 l 146 153 b 47 42 135 76 104 56 l 42 0 l 431 0 l 436 42 b 368 153 382 56 357 76 l 406 417 l 454 417 l 563 153 b 653 0 585 97 628 28 l 917 0 l 922 42 b 804 194 871 69 839 136 l 672 443 b 904 708 826 492 890 604 z m 414 479 l 475 910 l 558 910 b 674 694 669 910 689 806 b 469 479 656 572 608 479 z "},"S":{"ha":743,"x_min":0,"x_max":0,"o":"m 754 681 l 775 924 b 515 986 704 965 600 986 b 140 708 325 986 165 886 b 372 403 117 539 240 463 b 515 215 471 358 528 299 b 332 63 501 115 417 63 b 133 313 228 63 128 125 l 85 313 l 63 56 b 349 -14 133 14 249 -14 b 742 292 535 -14 713 83 b 489 618 767 472 619 563 b 376 778 394 658 368 715 b 535 910 392 882 489 910 b 706 681 654 910 688 847 z "},"T":{"ha":833,"x_min":0,"x_max":0,"o":"m 935 972 l 908 736 l 860 736 b 711 910 861 849 788 910 l 656 910 l 549 153 b 617 42 538 76 563 56 l 611 0 l 222 0 l 228 42 b 326 153 285 56 315 76 l 433 910 l 378 910 b 179 736 301 910 208 849 l 131 736 l 171 972 z "},"U":{"ha":1056,"x_min":0,"x_max":0,"o":"m 881 389 b 572 69 853 194 760 69 b 388 389 426 69 356 167 l 447 819 b 547 931 458 896 489 917 l 553 972 l 164 972 l 158 931 b 225 819 211 917 236 896 l 163 375 b 518 -14 129 135 247 -14 b 954 375 744 -14 919 125 l 1017 819 b 1158 931 1028 896 1058 917 l 1164 972 l 831 972 l 825 931 b 940 819 933 917 951 896 z "},"V":{"ha":972,"x_min":0,"x_max":0,"o":"m 222 847 b 131 931 208 893 197 910 l 136 972 l 539 972 l 533 931 b 460 806 461 917 449 878 l 586 236 l 589 236 l 846 785 b 769 931 885 868 878 917 l 775 972 l 1108 972 l 1103 931 b 951 847 1017 917 979 904 l 540 -7 l 422 -7 z "},"W":{"ha":1403,"x_min":0,"x_max":0,"o":"m 719 847 b 631 931 711 894 696 910 l 636 972 l 1039 972 l 1033 931 b 956 806 960 917 946 878 l 1040 236 l 1043 236 l 1279 785 b 1200 931 1315 869 1307 917 l 1206 972 l 1539 972 l 1533 931 b 1379 847 1446 917 1408 904 l 1007 -7 l 882 -7 l 779 518 l 507 -7 l 389 -7 l 219 847 b 131 931 207 893 196 910 l 136 972 l 539 972 l 533 931 b 456 806 460 917 446 878 l 561 236 l 564 236 l 760 625 z "},"X":{"ha":1000,"x_min":0,"x_max":0,"o":"m 308 819 b 179 931 279 888 264 913 l 185 972 l 608 972 l 603 931 b 576 799 518 919 549 861 l 651 621 l 783 789 b 742 931 847 867 857 919 l 747 972 l 1088 972 l 1082 931 b 892 819 986 913 947 889 l 682 556 l 861 153 b 978 42 892 83 926 69 l 972 0 l 535 0 l 540 42 b 583 201 632 56 614 125 l 504 382 l 361 201 b 388 42 304 133 276 60 l 382 0 l 28 0 l 33 42 b 236 153 133 63 183 90 l 471 444 z "},"Y":{"ha":889,"x_min":0,"x_max":0,"o":"m 194 847 b 117 931 178 892 156 910 l 122 972 l 483 972 l 478 931 b 439 806 406 917 414 872 l 574 444 l 576 444 l 792 799 b 728 931 833 867 824 917 l 733 972 l 1039 972 l 1033 931 b 896 847 963 917 929 903 l 632 404 l 597 153 b 665 42 586 76 611 56 l 660 0 l 271 0 l 276 42 b 375 153 333 56 364 76 l 401 338 z "},"Z":{"ha":833,"x_min":0,"x_max":0,"o":"m 300 63 l 571 63 b 775 236 654 63 746 124 l 824 236 l 778 0 l 42 0 l 51 69 l 669 910 l 422 910 b 224 736 343 910 253 849 l 175 736 l 215 972 l 914 972 l 901 889 z "},"[":{"ha":528,"x_min":0,"x_max":0,"o":"m 435 -361 l 60 -361 l 278 1188 l 653 1188 l 643 1125 l 449 1125 l 249 -299 l 443 -299 z "},"\\":{"ha":667,"x_min":0,"x_max":0,"o":"m 275 1069 l 446 -83 l 529 -83 l 357 1069 z "},"]":{"ha":528,"x_min":0,"x_max":0,"o":"m -8 -361 l 365 -361 l 583 1188 l 208 1188 l 199 1125 l 393 1125 l 193 -299 l 0 -299 z "},"^":{"ha":708,"x_min":0,"x_max":0,"o":"m 472 840 l 636 681 l 692 681 l 536 1000 l 453 1000 l 206 681 l 261 681 z "},"_":{"ha":847,"x_min":0,"x_max":0,"o":"m 117 -56 l 106 -132 l 703 -132 l 714 -56 z "},"‘":{"ha":472,"x_min":0,"x_max":0,"o":"m 344 681 b 454 776 394 681 447 726 b 376 878 464 842 426 878 b 497 1064 300 878 358 1003 l 475 1108 b 240 833 386 1078 260 974 b 344 681 232 772 242 681 z "},"a":{"ha":818,"x_min":0,"x_max":0,"o":"m 807 701 l 728 153 b 756 97 722 110 743 97 b 832 208 781 97 797 122 l 881 188 b 651 -14 846 76 793 -14 b 507 150 529 -14 490 56 l 504 150 b 307 -14 465 63 404 -14 b 106 347 154 -14 71 139 b 514 708 147 594 340 708 b 676 661 554 708 622 700 l 751 701 z m 390 104 b 539 375 446 104 515 208 l 549 444 b 500 653 567 576 571 653 b 333 347 421 653 364 553 b 390 104 306 167 335 104 z "},"b":{"ha":774,"x_min":0,"x_max":0,"o":"m 481 590 b 538 347 536 590 565 528 b 371 42 507 142 450 42 b 322 250 300 42 304 118 l 332 319 b 481 590 356 486 425 590 z m 103 278 b 357 -14 64 7 272 -14 b 765 347 531 -14 724 100 b 564 708 800 556 717 708 b 365 544 467 708 404 632 l 363 544 l 439 1069 l 428 1069 l 138 1007 l 132 965 b 188 861 199 965 197 931 z "},"c":{"ha":717,"x_min":0,"x_max":0,"o":"m 375 -14 b 707 236 549 -14 664 125 l 665 236 b 472 146 631 188 569 146 b 329 390 375 146 304 208 b 478 639 351 551 410 639 b 543 510 533 639 564 611 b 617 438 538 481 547 438 b 736 535 700 438 729 486 b 494 708 749 624 668 708 b 103 340 333 708 136 576 b 375 -14 76 153 146 -14 z "},"d":{"ha":821,"x_min":0,"x_max":0,"o":"m 390 104 b 333 347 335 104 306 167 b 576 639 369 586 449 681 l 539 375 b 390 104 515 208 446 104 z m 585 694 b 106 347 397 750 154 639 b 307 -14 71 139 154 -14 b 506 150 404 -14 467 63 l 508 150 b 654 -14 492 56 532 -14 b 883 188 796 -14 849 76 l 835 208 b 758 97 800 122 783 97 b 731 153 746 97 725 110 l 860 1069 l 846 1069 l 558 1007 l 553 965 b 608 861 593 951 618 931 z "},"e":{"ha":721,"x_min":0,"x_max":0,"o":"m 494 708 b 103 340 333 708 136 576 b 375 -14 76 153 146 -14 b 707 236 549 -14 664 125 l 665 236 b 472 146 631 188 569 146 b 324 307 392 146 329 189 b 494 708 801 250 865 708 z m 478 639 b 326 363 615 639 550 350 b 478 639 339 535 406 639 z "},"f":{"ha":472,"x_min":0,"x_max":0,"o":"m 106 63 b -18 -236 75 -153 150 -328 b -24 -375 -96 -194 -176 -375 b 328 63 86 -375 293 -181 l 406 618 l 544 618 l 556 694 l 417 694 b 589 931 440 910 418 1022 b 594 1069 665 889 747 1069 b 194 694 492 1069 258 910 l 124 688 l 114 618 l 183 618 z "},"g":{"ha":749,"x_min":0,"x_max":0,"o":"m 318 451 b 428 639 326 581 368 639 b 493 457 481 639 503 576 b 390 271 483 339 460 271 b 318 451 342 271 310 321 z m 431 -104 b 542 -181 490 -112 542 -132 b 361 -306 542 -274 444 -306 b 222 -208 292 -306 222 -285 b 243 -76 222 -153 229 -125 z m 246 229 b 90 63 163 188 90 139 b 201 -62 90 -28 169 -50 b 28 -236 103 -107 28 -153 b 306 -375 28 -326 133 -375 b 736 -83 500 -375 736 -254 b 506 111 736 14 674 92 l 326 132 b 257 167 274 138 257 146 b 292 215 257 186 278 203 b 374 201 313 208 346 201 b 708 458 547 201 686 299 b 667 608 717 521 694 579 l 667 611 l 806 611 l 818 694 l 614 674 b 444 708 567 690 528 708 b 103 454 271 708 125 604 b 246 229 89 347 160 257 z "},"h":{"ha":806,"x_min":0,"x_max":0,"o":"m 83 0 l 306 0 l 347 299 b 507 569 365 431 450 569 b 540 486 542 569 549 549 l 493 153 b 639 -14 479 56 517 -14 b 868 188 781 -14 833 76 l 819 208 b 743 97 785 122 768 97 b 715 153 731 97 710 110 l 764 500 b 633 708 786 653 726 708 b 378 514 532 708 435 635 l 375 514 l 456 1069 l 444 1069 l 154 1007 l 149 965 b 204 861 215 965 214 931 z "},"i":{"ha":474,"x_min":0,"x_max":0,"o":"m 161 153 b 307 -14 147 56 185 -14 b 536 188 449 -14 501 76 l 488 208 b 411 97 453 122 436 97 b 383 153 399 97 378 110 l 438 544 b 292 708 450 639 414 708 b 63 507 150 708 97 618 l 111 486 b 188 597 146 572 163 597 b 215 542 200 597 221 585 z m 256 940 b 365 813 244 869 294 813 b 513 940 436 813 501 869 b 401 1069 522 1011 472 1069 b 256 940 331 1069 265 1011 z "},"j":{"ha":436,"x_min":0,"x_max":0,"o":"m 154 63 b 31 -236 124 -153 199 -328 b 25 -375 -47 -194 -128 -375 b 376 63 135 -375 342 -181 l 444 549 b 299 708 458 643 421 708 b 69 507 157 708 104 618 l 118 486 b 194 597 153 572 169 597 b 222 542 207 597 228 585 z m 261 940 b 371 813 250 869 300 813 b 518 940 442 813 507 869 b 407 1069 528 1011 478 1069 b 261 940 336 1069 271 1011 z "},"k":{"ha":819,"x_min":0,"x_max":0,"o":"m 456 1069 l 444 1069 l 154 1007 l 149 965 b 204 861 215 965 214 931 l 83 0 l 306 0 l 354 351 b 374 354 361 353 367 353 l 460 115 b 639 -14 492 28 542 -14 b 882 188 781 -14 838 71 l 833 208 b 747 111 803 129 772 111 b 674 176 717 111 693 129 l 575 408 b 764 625 710 471 760 569 b 613 625 772 736 597 736 b 361 397 625 524 536 435 z "},"l":{"ha":413,"x_min":0,"x_max":0,"o":"m 451 1069 l 440 1069 l 150 1007 l 144 965 b 200 861 211 965 210 931 l 100 153 b 246 -14 86 56 124 -14 b 475 188 388 -14 440 76 l 426 208 b 350 97 392 122 375 97 b 322 153 338 97 317 110 z "},"m":{"ha":1253,"x_min":0,"x_max":0,"o":"m 825 533 b 690 708 843 660 776 708 b 435 514 589 708 492 635 l 432 514 l 438 544 b 292 708 454 639 414 708 b 63 507 150 708 97 618 l 111 486 b 188 597 146 572 163 597 b 215 542 200 597 221 585 l 140 0 l 363 0 l 404 299 b 564 569 422 431 507 569 b 597 486 599 569 606 549 l 531 0 l 753 0 l 794 299 b 954 569 813 431 897 569 b 988 486 989 569 996 549 l 940 153 b 1086 -14 926 56 964 -14 b 1315 188 1228 -14 1281 76 l 1267 208 b 1190 97 1232 122 1215 97 b 1163 153 1178 97 1157 110 l 1211 500 b 1081 708 1233 653 1174 708 b 825 514 979 708 882 635 l 822 514 z "},"n":{"ha":863,"x_min":0,"x_max":0,"o":"m 438 544 b 292 708 454 639 414 708 b 63 507 150 708 97 618 l 111 486 b 188 597 146 572 163 597 b 215 542 200 597 221 585 l 140 0 l 363 0 l 404 299 b 564 569 422 431 507 569 b 597 486 599 569 606 549 l 550 153 b 696 -14 536 56 574 -14 b 925 188 838 -14 890 76 l 876 208 b 800 97 842 122 825 97 b 772 153 788 97 767 110 l 821 500 b 690 708 843 653 783 708 b 435 514 589 708 492 635 l 432 514 z "},"o":{"ha":776,"x_min":0,"x_max":0,"o":"m 104 347 b 379 -14 71 147 169 -14 b 771 347 586 -14 738 147 b 493 708 801 547 701 708 b 104 347 285 708 135 547 z m 340 347 b 478 639 369 556 404 639 b 535 347 551 639 564 556 b 396 56 506 139 469 56 b 340 347 322 56 311 139 z "},"p":{"ha":793,"x_min":0,"x_max":0,"o":"m 500 590 b 557 347 556 590 585 528 b 314 56 521 108 442 14 l 351 319 b 500 590 375 486 444 590 z m 307 0 b 785 347 494 -56 736 56 b 583 708 819 556 736 708 b 385 544 486 708 424 632 l 382 544 l 404 694 l 182 694 l 54 -208 b -29 -319 43 -285 28 -306 l -35 -361 l 339 -361 l 344 -319 b 276 -208 292 -306 265 -285 z "},"q":{"ha":793,"x_min":0,"x_max":0,"o":"m 390 104 b 539 375 446 104 515 208 l 549 444 b 500 653 567 576 571 653 b 333 347 421 653 364 553 b 390 104 306 167 335 104 z m 751 701 l 807 701 l 679 -208 b 733 -319 669 -285 681 -306 l 728 -361 l 353 -361 l 358 -319 b 457 -208 417 -306 446 -285 l 508 150 l 506 150 b 307 -14 467 63 404 -14 b 106 347 154 -14 71 139 b 514 708 147 594 340 708 b 676 661 554 708 622 700 z "},"r":{"ha":664,"x_min":0,"x_max":0,"o":"m 619 514 b 404 299 469 538 422 431 l 363 0 l 140 0 l 215 542 b 188 597 221 585 200 597 b 111 486 163 597 146 572 l 63 507 b 292 708 97 618 150 708 b 438 544 414 708 454 639 l 432 514 l 435 514 b 626 708 492 635 539 708 b 619 514 763 708 736 496 z "},"s":{"ha":667,"x_min":0,"x_max":0,"o":"m 317 56 b 258 157 296 56 238 61 b 185 229 265 186 254 229 b 79 160 101 229 83 183 b 321 -14 65 68 147 -14 b 631 208 481 -14 611 76 b 424 465 647 333 593 389 b 346 563 379 485 339 507 b 433 639 354 618 399 639 b 499 538 454 639 519 633 b 572 465 492 508 503 465 b 678 535 656 465 674 511 b 436 708 692 626 610 708 b 144 507 256 708 160 618 b 306 271 128 389 175 331 b 413 146 411 222 417 179 b 317 56 404 83 361 56 z "},"t":{"ha":486,"x_min":0,"x_max":0,"o":"m 392 618 l 531 618 l 542 694 l 403 694 l 432 903 l 376 903 l 182 708 l 124 688 l 114 618 l 169 618 l 104 153 b 250 -14 90 56 128 -14 b 493 188 392 -14 458 76 l 444 208 b 354 97 410 122 379 97 b 326 153 342 97 321 110 z "},"u":{"ha":863,"x_min":0,"x_max":0,"o":"m 550 150 b 696 -14 533 56 574 -14 b 925 188 838 -14 890 76 l 876 208 b 800 97 842 122 825 97 b 772 153 788 97 767 110 l 847 694 l 625 694 l 583 396 b 424 125 565 264 481 125 b 390 208 389 125 382 146 l 438 542 b 292 708 451 639 414 708 b 63 507 150 708 97 618 l 111 486 b 188 597 146 572 163 597 b 215 542 200 597 221 585 l 167 194 b 297 -14 144 42 204 -14 b 553 181 399 -14 496 60 l 556 181 z "},"v":{"ha":810,"x_min":0,"x_max":0,"o":"m 354 -14 b 799 607 660 -14 856 271 b 586 583 769 778 540 713 b 493 97 731 178 597 97 b 390 208 417 97 382 146 l 438 542 b 292 708 451 639 414 708 b 63 507 150 708 97 618 l 111 486 b 188 597 146 572 163 597 b 215 542 200 597 221 585 l 167 194 b 354 -14 144 42 222 -14 z "},"w":{"ha":1199,"x_min":0,"x_max":0,"o":"m 556 181 b 743 -14 533 42 611 -14 b 1188 607 1049 -14 1244 271 b 975 583 1158 778 929 713 b 882 97 1119 178 986 97 b 779 208 806 97 771 146 l 847 694 l 625 694 l 583 396 b 424 125 565 264 481 125 b 390 208 389 125 382 146 l 438 542 b 292 708 451 639 414 708 b 63 507 150 708 97 618 l 111 486 b 188 597 146 572 163 597 b 215 542 200 597 221 585 l 167 194 b 297 -14 144 42 204 -14 b 553 181 399 -14 496 60 z "},"x":{"ha":810,"x_min":0,"x_max":0,"o":"m 254 546 b 203 583 240 582 215 583 b 113 486 178 583 140 550 l 64 507 b 315 708 99 618 174 708 b 493 542 424 708 456 633 l 510 500 l 582 583 b 760 708 664 671 708 708 b 764 556 892 708 868 542 b 626 524 694 565 671 568 l 540 424 l 654 151 b 700 111 669 115 688 111 b 790 208 725 111 763 144 l 839 188 b 588 -14 804 76 729 -14 b 408 153 479 -14 444 61 l 376 233 l 271 110 b 97 -14 182 7 149 -14 b 93 139 -35 -14 -26 156 b 224 171 163 129 182 125 l 346 311 z "},"y":{"ha":814,"x_min":0,"x_max":0,"o":"m 661 90 b 142 -236 538 -193 254 -276 b 160 -375 60 -207 8 -375 b 806 607 493 -375 875 79 b 593 583 783 779 547 713 b 500 97 738 178 604 97 b 397 208 424 97 389 146 l 444 542 b 299 708 458 639 421 708 b 69 507 157 708 104 618 l 118 486 b 194 597 153 572 169 597 b 222 542 207 597 228 585 l 174 194 b 361 -14 151 42 229 -14 b 660 92 475 -14 579 25 z "},"z":{"ha":688,"x_min":0,"x_max":0,"o":"m 168 160 b 700 713 567 472 713 563 b 611 701 693 790 588 776 b 636 649 619 672 643 663 b 347 722 622 621 472 722 b 82 507 217 722 154 675 l 131 486 b 221 569 165 572 196 569 b 568 557 281 569 363 435 l 569 556 b 43 19 97 236 35 83 b 140 40 54 -61 160 -26 b 126 88 132 67 119 78 b 444 -42 142 111 238 -42 b 689 125 578 -42 689 42 b 556 128 689 222 529 210 b 550 35 565 97 569 43 b 169 158 496 11 475 313 z "},"{":{"ha":597,"x_min":0,"x_max":0,"o":"m 708 1188 b 304 967 500 1188 331 1156 b 279 563 292 871 307 661 b 115 428 253 457 228 449 l 107 368 b 233 236 214 354 236 342 b 147 -156 233 138 160 -60 b 490 -361 121 -344 282 -361 l 497 -312 b 314 -183 388 -303 303 -314 b 390 221 318 -131 389 165 b 207 399 394 339 274 369 l 207 400 b 440 575 282 428 411 460 b 479 994 456 633 469 942 b 701 1139 504 1125 588 1136 z "},"|":{"ha":326,"x_min":0,"x_max":0,"o":"m 285 1139 l 104 -139 l 181 -139 l 361 1139 z "},"}":{"ha":597,"x_min":0,"x_max":0,"o":"m 4 -360 b 407 -139 213 -360 381 -328 b 432 265 421 -43 404 167 b 597 400 460 371 485 379 l 606 460 b 478 592 497 474 476 486 b 565 983 478 690 551 888 b 222 1189 592 1172 431 1189 l 215 1140 b 399 1011 325 1131 410 1142 b 322 607 393 958 324 663 b 506 429 318 489 439 458 l 506 428 b 272 253 431 400 301 368 b 233 -167 257 194 243 -114 b 11 -311 207 -297 124 -308 z "},"~":{"ha":764,"x_min":0,"x_max":0,"o":"m 219 431 b 332 486 246 457 282 486 b 553 431 397 486 488 431 b 736 597 617 431 699 539 l 692 625 b 582 583 665 597 631 583 b 367 639 528 583 422 639 b 175 458 303 639 213 518 z "},"¡":{"ha":444,"x_min":0,"x_max":0,"o":"m 214 663 b 329 764 221 718 274 764 b 417 663 385 764 424 718 b 300 561 408 607 356 561 b 214 663 244 561 206 607 z m 317 472 l 294 -197 b 178 -319 292 -275 247 -319 b 92 -197 108 -319 72 -275 l 261 472 z "},"¢":{"ha":750,"x_min":0,"x_max":0,"o":"m 354 -139 l 431 -139 l 449 -11 b 710 111 596 1 679 85 l 724 208 b 471 147 640 160 564 140 l 540 633 b 571 510 572 622 588 588 b 644 438 565 481 575 438 b 764 535 728 438 757 486 b 550 707 775 618 704 699 l 568 833 l 492 833 l 474 704 b 103 340 311 683 133 554 b 372 -12 78 163 168 3 z m 329 390 b 463 632 349 526 392 610 l 399 174 b 329 390 346 208 313 275 z "},"£":{"ha":885,"x_min":0,"x_max":0,"o":"m 165 486 l 156 424 l 256 424 b 64 63 243 271 204 139 l 83 0 b 510 -51 267 76 444 -40 b 842 194 728 -90 818 136 l 793 194 b 618 111 747 94 682 86 b 250 99 532 144 468 208 l 250 101 b 443 424 363 190 417 307 l 614 424 l 624 486 l 457 486 b 486 778 475 600 474 707 b 617 910 506 882 571 910 b 692 788 685 910 717 889 b 763 715 686 758 693 715 b 886 813 846 715 878 764 b 650 986 901 901 824 986 b 268 656 460 986 278 882 b 261 486 265 597 264 542 z "},"⁄":{"ha":667,"x_min":0,"x_max":0,"o":"m 692 1069 l 196 -83 l 113 -83 l 610 1069 z "},"¥":{"ha":1028,"x_min":0,"x_max":0,"o":"m 708 396 l 868 396 l 857 319 l 690 319 l 667 153 b 735 42 656 76 681 56 l 729 0 l 340 0 l 346 42 b 444 153 403 56 433 76 l 468 319 l 301 319 l 313 396 l 454 396 l 264 847 b 186 931 247 892 225 910 l 192 972 l 553 972 l 547 931 b 508 806 475 917 483 872 l 650 444 l 653 444 l 861 799 b 797 931 903 867 893 917 l 803 972 l 1108 972 l 1103 931 b 965 847 1032 917 999 903 z "},"ƒ":{"ha":431,"x_min":0,"x_max":0,"o":"m 153 618 l 42 0 b -137 -236 6 -215 29 -328 b -147 -375 -212 -194 -300 -375 b 264 0 -44 -375 226 -218 l 374 618 l 526 618 l 526 694 l 388 694 b 568 931 425 910 400 1022 b 578 1069 643 889 731 1069 b 165 694 475 1069 203 913 l 96 688 l 96 618 z "},"§":{"ha":785,"x_min":0,"x_max":0,"o":"m 392 28 b 297 185 285 28 276 83 b 246 229 303 214 276 229 b 161 160 210 229 168 208 b 379 -14 149 71 228 -14 b 665 194 511 -14 647 63 b 622 329 674 253 654 296 b 704 472 665 364 696 413 b 519 688 722 597 617 650 b 381 833 447 715 368 743 b 528 944 390 903 444 944 b 622 788 635 944 643 889 b 675 743 617 758 644 743 b 760 813 711 743 753 764 b 540 986 772 901 692 986 b 278 799 397 986 294 910 b 325 658 269 735 288 692 b 239 521 278 625 247 578 b 404 313 222 403 303 356 b 550 160 479 281 563 250 b 392 28 539 83 476 28 z m 443 590 b 589 438 518 558 601 528 b 563 372 585 414 576 392 b 481 410 538 388 508 399 b 342 556 408 438 329 465 b 372 624 346 583 356 606 b 443 590 393 611 417 601 z "},"¤":{"ha":713,"x_min":0,"x_max":0,"o":"m 186 346 b 276 504 196 408 228 464 l 185 629 l 197 640 l 290 515 b 436 565 332 546 383 565 b 567 515 488 565 533 546 l 692 640 l 703 629 l 578 506 b 624 346 615 465 633 408 b 533 188 615 283 581 226 l 622 68 l 608 56 l 518 176 b 374 128 476 146 425 128 b 242 176 321 128 275 146 l 119 56 l 108 68 l 231 188 b 186 346 196 228 178 283 z m 203 346 b 376 144 188 236 267 144 b 607 346 486 144 592 236 b 433 549 624 456 543 549 b 203 346 324 549 219 456 z "},"'":{"ha":369,"x_min":0,"x_max":0,"o":"m 392 1056 l 325 771 l 261 771 l 272 1056 z "},"“":{"ha":778,"x_min":0,"x_max":0,"o":"m 649 681 b 758 776 699 681 751 726 b 681 878 768 842 731 878 b 801 1064 604 878 663 1003 l 779 1108 b 544 833 690 1078 564 974 b 649 681 536 772 546 681 z m 343 681 b 453 776 393 681 446 726 b 375 878 463 842 425 878 b 496 1064 299 878 357 1003 l 474 1108 b 239 833 385 1078 258 974 b 343 681 231 772 240 681 z "},"«":{"ha":1014,"x_min":0,"x_max":0,"o":"m 393 374 l 564 164 l 551 74 l 174 351 l 179 393 l 635 671 l 622 581 z m 740 374 l 911 164 l 899 74 l 521 351 l 526 393 l 982 671 l 969 581 z "},"‹":{"ha":667,"x_min":0,"x_max":0,"o":"m 393 374 l 564 164 l 551 74 l 174 351 l 179 393 l 635 671 l 622 581 z "},"›":{"ha":667,"x_min":0,"x_max":0,"o":"m 376 374 l 147 164 l 135 74 l 590 351 l 596 393 l 218 671 l 206 581 z "},"ﬁ":{"ha":889,"x_min":0,"x_max":0,"o":"m 876 708 l 865 708 l 583 694 l 417 694 b 589 931 440 910 418 1022 b 594 1069 665 889 747 1069 b 194 694 492 1069 258 910 l 124 688 l 114 618 l 183 618 l 106 63 b -18 -236 75 -153 150 -328 b -24 -375 -96 -194 -176 -375 b 328 63 86 -375 293 -181 l 406 618 l 572 618 b 631 542 617 618 639 597 l 576 153 b 722 -14 563 56 600 -14 b 951 188 864 -14 917 76 l 903 208 b 826 97 868 122 851 97 b 799 153 814 97 793 110 z "},"ﬂ":{"ha":889,"x_min":0,"x_max":0,"o":"m 406 618 l 544 618 l 556 694 l 417 694 b 678 878 439 904 399 1065 l 576 153 b 722 -14 563 56 600 -14 b 951 188 864 -14 917 76 l 903 208 b 826 97 868 122 851 97 b 799 153 814 97 793 110 l 928 1069 l 917 1069 l 844 1022 b 650 1069 792 1051 718 1069 b 194 694 475 1069 258 910 l 124 688 l 114 618 l 183 618 l 106 63 b -18 -236 75 -153 150 -328 b -24 -375 -96 -194 -176 -375 b 328 63 86 -375 293 -181 z "},"–":{"ha":847,"x_min":0,"x_max":0,"o":"m 182 410 l 171 333 l 768 333 l 779 410 z "},"†":{"ha":896,"x_min":0,"x_max":0,"o":"m 376 -361 l 418 -361 l 492 160 b 563 424 517 339 558 388 b 560 646 567 446 554 467 b 786 611 746 625 763 611 b 850 667 817 611 846 636 b 803 722 854 697 833 722 b 565 688 779 722 757 707 b 635 931 613 888 631 907 b 586 986 639 961 617 986 b 524 931 556 986 528 961 b 524 688 519 907 531 888 b 296 722 336 707 318 722 b 232 667 265 722 236 697 b 279 611 228 636 249 611 b 518 646 301 611 325 625 b 451 424 472 467 456 446 b 450 160 447 388 475 339 z "},"‡":{"ha":896,"x_min":0,"x_max":0,"o":"m 549 319 b 560 646 560 397 540 467 b 786 611 746 625 763 611 b 850 667 817 611 846 636 b 803 722 854 697 833 722 b 565 688 779 722 757 707 b 635 931 613 888 631 907 b 586 986 639 961 617 986 b 524 931 556 986 528 961 b 524 688 519 907 531 888 b 296 722 336 707 318 722 b 232 667 265 722 236 697 b 279 611 228 636 249 611 b 518 646 301 611 325 625 b 438 319 486 467 449 397 b 422 -35 426 242 440 144 b 194 0 235 -14 217 0 b 131 -56 164 0 135 -25 b 178 -111 126 -86 147 -111 b 417 -76 200 -111 224 -96 b 347 -319 368 -276 351 -296 b 396 -375 343 -350 365 -375 b 458 -319 426 -375 454 -350 b 458 -76 463 -296 450 -276 b 685 -111 644 -96 661 -111 b 749 -56 715 -111 744 -86 b 701 0 753 -25 732 0 b 464 -35 678 0 656 -14 b 549 319 494 144 538 242 z "},"·":{"ha":494,"x_min":0,"x_max":0,"o":"m 163 344 b 276 213 153 272 204 213 b 426 344 349 213 417 272 b 314 476 438 417 386 476 b 163 344 242 476 174 417 z "},"¶":{"ha":931,"x_min":0,"x_max":0,"o":"m 517 417 b 238 708 294 417 218 569 b 539 972 260 861 386 972 l 664 972 l 528 0 l 333 0 l 336 28 b 478 139 450 42 467 63 z m 733 972 l 928 972 l 924 944 b 783 833 811 931 794 910 l 686 139 b 794 28 675 63 686 42 l 792 0 l 597 0 z "},"•":{"ha":551,"x_min":0,"x_max":0,"o":"m 183 322 b 300 186 172 246 224 186 b 457 322 376 186 446 246 b 339 460 468 399 415 460 b 183 322 263 460 194 399 z "},"‚":{"ha":472,"x_min":0,"x_max":0,"o":"m 246 186 b 138 90 196 186 144 140 b 214 -11 128 25 164 -11 b 94 -197 290 -11 233 -136 l 117 -242 b 351 33 206 -211 332 -107 b 246 186 360 94 349 186 z "},"„":{"ha":778,"x_min":0,"x_max":0,"o":"m 246 186 b 138 90 196 186 144 140 b 214 -11 128 25 164 -11 b 94 -197 290 -11 233 -136 l 117 -242 b 351 33 206 -211 332 -107 b 246 186 360 94 349 186 z m 551 186 b 443 90 501 186 450 140 b 519 -11 433 25 469 -11 b 400 -197 596 -11 539 -136 l 422 -242 b 657 33 511 -211 638 -107 b 551 186 665 94 654 186 z "},"”":{"ha":778,"x_min":0,"x_max":0,"o":"m 372 1083 b 263 988 322 1083 269 1038 b 340 886 254 922 290 886 b 219 700 417 886 360 761 l 243 656 b 478 931 332 686 457 790 b 372 1083 486 992 475 1083 z m 678 1083 b 568 988 628 1083 575 1038 b 646 886 560 922 596 886 b 525 700 722 886 665 761 l 549 656 b 783 931 638 686 763 790 b 678 1083 792 992 781 1083 z "},"»":{"ha":1014,"x_min":0,"x_max":0,"o":"m 376 374 l 147 164 l 135 74 l 590 351 l 596 393 l 218 671 l 206 581 z m 724 374 l 494 164 l 482 74 l 938 351 l 943 393 l 565 671 l 553 581 z "},"…":{"ha":1111,"x_min":0,"x_max":0,"o":"m 132 88 b 219 -14 125 32 164 -14 b 335 88 275 -14 328 32 b 249 189 343 143 304 189 b 132 88 193 189 140 143 z m 465 88 b 553 -14 458 32 497 -14 b 668 88 608 -14 661 32 b 582 189 676 143 638 189 b 465 88 526 189 474 143 z m 799 88 b 886 -14 792 32 831 -14 b 1001 88 942 -14 994 32 b 915 189 1010 143 971 189 b 799 88 860 189 807 143 z "},"‰":{"ha":1931,"x_min":0,"x_max":0,"o":"m 1114 1069 l 479 -83 l 396 -83 l 1032 1069 z m 833 201 b 1011 -14 813 82 888 -14 b 1264 201 1138 -14 1246 82 b 1085 417 1283 321 1207 417 b 833 201 958 417 850 321 z m 972 201 b 1074 376 990 326 1021 376 b 1125 201 1126 376 1143 326 b 1024 26 1107 76 1076 26 b 972 201 971 26 954 76 z m 233 771 b 411 556 211 651 288 556 b 664 771 538 556 644 651 b 483 986 683 890 606 986 b 233 771 357 986 250 890 z m 372 771 b 472 946 389 896 419 946 b 525 771 525 946 542 896 b 424 596 507 646 476 596 b 372 771 371 596 354 646 z m 1403 201 b 1581 -14 1382 82 1457 -14 b 1833 201 1707 -14 1815 82 b 1654 417 1853 321 1776 417 b 1403 201 1528 417 1419 321 z m 1542 201 b 1643 376 1560 326 1590 376 b 1694 201 1696 376 1713 326 b 1593 26 1676 76 1646 26 b 1542 201 1540 26 1524 76 z "},"¿":{"ha":624,"x_min":0,"x_max":0,"o":"m 178 -14 b 389 94 190 76 308 61 b 461 472 567 167 518 351 l 399 472 b 303 264 410 351 342 283 b 113 14 164 194 126 110 b 301 -292 94 -118 238 -246 b 433 -131 442 -392 568 -189 b 178 -14 356 -97 164 -117 z m 556 663 b 468 764 563 718 524 764 b 353 663 413 764 360 718 b 439 561 344 607 383 561 b 556 663 494 561 547 607 z "},"`":{"ha":513,"x_min":0,"x_max":0,"o":"m 467 764 l 497 790 l 392 1000 b 281 914 349 1083 199 981 z "},"´":{"ha":513,"x_min":0,"x_max":0,"o":"m 260 764 l 235 790 l 401 1000 b 488 914 467 1083 589 981 z "},"ˆ":{"ha":653,"x_min":0,"x_max":0,"o":"m 447 868 l 579 764 l 649 764 l 510 1014 l 426 1014 l 218 764 l 288 764 z "},"˜":{"ha":764,"x_min":0,"x_max":0,"o":"m 268 778 b 381 833 294 804 331 833 b 601 778 446 833 536 778 b 785 944 665 778 747 886 l 740 972 b 631 931 714 944 679 931 b 415 986 576 931 471 986 b 224 806 351 986 261 865 z "},"¯":{"ha":708,"x_min":0,"x_max":0,"o":"m 250 896 l 239 819 l 697 819 l 708 896 z "},"˘":{"ha":625,"x_min":0,"x_max":0,"o":"m 424 792 b 265 1001 299 792 251 900 l 332 1001 b 440 914 338 931 397 914 b 574 1001 483 914 549 931 l 640 1001 b 424 792 626 900 549 792 z "},"˙":{"ha":436,"x_min":0,"x_max":0,"o":"m 244 871 b 326 775 236 817 272 775 b 436 871 381 775 428 817 b 353 967 443 925 407 967 b 244 871 299 967 251 925 z "},"¨":{"ha":694,"x_min":0,"x_max":0,"o":"m 242 854 b 318 767 235 801 268 767 b 421 854 369 767 414 801 b 343 944 428 907 394 944 b 242 854 293 944 249 907 z m 513 854 b 590 767 506 801 539 767 b 692 854 640 767 685 801 b 615 944 699 907 665 944 b 513 854 564 944 519 907 z "},"˚":{"ha":521,"x_min":0,"x_max":0,"o":"m 250 885 b 365 751 239 808 289 751 b 518 885 440 751 507 808 b 403 1019 529 960 478 1019 b 250 885 326 1019 261 960 z m 308 885 b 394 961 314 928 353 961 b 460 885 438 961 465 928 b 372 810 454 843 415 810 b 308 885 331 810 303 843 z "},"¸":{"ha":517,"x_min":0,"x_max":0,"o":"m 185 0 l 169 -69 b 213 -215 151 -160 222 -142 b 82 -306 204 -274 125 -292 l 86 -368 b 363 -197 189 -354 349 -285 b 228 -56 381 -75 221 -106 l 236 0 z "},"˝":{"ha":667,"x_min":0,"x_max":0,"o":"m 276 764 l 235 785 l 340 1036 b 456 976 375 1119 519 1056 z m 499 764 l 457 785 l 563 1036 b 678 976 597 1119 742 1056 z "},"˛":{"ha":500,"x_min":0,"x_max":0,"o":"m 343 -222 b 313 0 161 -293 181 -108 l 250 0 b 203 -326 40 -135 32 -326 b 336 -271 244 -326 307 -303 z "},"ˇ":{"ha":653,"x_min":0,"x_max":0,"o":"m 454 910 l 614 1014 l 683 1014 l 475 764 l 392 764 l 253 1014 l 322 1014 z "},"—":{"ha":1250,"x_min":0,"x_max":0,"o":"m 182 410 l 171 333 l 1171 333 l 1182 410 z "},"Æ":{"ha":1222,"x_min":0,"x_max":0,"o":"m 761 972 l 1289 972 l 1263 736 l 1214 736 b 1065 910 1215 849 1142 910 l 919 910 l 864 521 l 892 521 b 1063 667 968 521 1035 556 l 1111 667 l 1061 313 l 1013 313 b 883 458 1015 424 960 458 l 856 458 l 800 63 l 960 63 b 1164 236 1036 63 1135 124 l 1213 236 l 1167 0 l 486 0 l 492 42 b 590 153 549 56 579 76 l 633 458 l 478 458 l 294 188 b 339 42 236 104 232 56 l 333 0 l 0 0 l 6 42 b 175 125 92 56 136 68 z m 669 736 l 521 521 l 642 521 l 672 736 z "},"ª":{"ha":535,"x_min":0,"x_max":0,"o":"m 519 872 b 396 986 531 944 479 986 b 182 810 272 986 164 861 b 282 851 189 781 313 819 b 339 933 263 872 265 933 b 379 835 389 933 392 901 l 368 765 l 263 746 b 146 651 196 736 154 703 b 218 551 139 594 169 551 b 343 618 268 551 290 569 l 344 618 b 410 551 340 586 351 551 b 535 601 460 551 486 565 l 538 622 b 486 676 499 614 474 611 z m 349 651 b 310 636 336 642 326 636 b 276 668 288 636 276 651 b 322 722 276 701 292 717 l 361 731 z "},"Ł":{"ha":806,"x_min":0,"x_max":0,"o":"m 114 521 l 106 458 l 189 458 l 146 153 b 47 42 135 76 104 56 l 42 0 l 778 0 l 824 236 l 775 236 b 571 63 746 124 647 63 l 356 63 l 411 458 l 536 458 l 544 521 l 419 521 l 461 819 b 561 931 472 896 503 917 l 567 972 l 178 972 l 172 931 b 239 819 225 917 250 896 l 197 521 z "},"Ø":{"ha":1083,"x_min":0,"x_max":0,"o":"m 110 486 b 193 149 90 351 124 235 l 106 69 l 147 15 l 238 99 b 539 -14 317 26 422 -14 b 1110 486 800 -14 1068 194 b 1028 819 1128 618 1094 733 l 1113 897 l 1074 950 l 983 869 b 679 986 906 943 797 986 b 110 486 418 986 150 778 z m 346 486 b 669 917 382 750 489 917 b 867 761 774 917 838 860 l 338 281 b 346 486 332 340 335 408 z m 874 486 b 549 56 836 222 729 56 b 353 203 446 56 382 108 l 881 685 b 874 486 886 626 883 560 z "},"Œ":{"ha":1347,"x_min":0,"x_max":0,"o":"m 1017 910 l 1190 910 b 1339 736 1267 910 1340 849 l 1388 736 l 1414 972 l 817 972 b 679 986 788 981 718 986 b 110 486 418 986 150 778 b 539 -14 68 194 278 -14 b 681 0 578 -14 649 -8 l 1292 0 l 1338 236 l 1289 236 b 1085 63 1260 124 1161 63 l 897 63 l 953 458 l 1008 458 b 1138 313 1085 458 1140 424 l 1186 313 l 1236 667 l 1188 667 b 1017 521 1160 556 1093 521 l 961 521 z m 346 486 b 669 917 382 750 489 917 b 774 764 746 917 789 875 l 693 194 b 549 56 679 97 625 56 b 346 486 368 56 308 222 z "},"º":{"ha":565,"x_min":0,"x_max":0,"o":"m 164 767 b 344 551 143 649 218 551 b 596 767 468 551 578 649 b 414 986 615 889 536 986 b 164 767 288 986 183 889 z m 304 767 b 404 944 322 892 351 944 b 453 767 457 944 471 892 b 356 593 436 644 408 593 b 304 767 303 593 288 644 z "},"æ":{"ha":1035,"x_min":0,"x_max":0,"o":"m 329 125 b 275 181 292 125 275 153 b 350 271 275 238 301 261 l 425 285 b 443 160 422 236 429 194 b 329 125 390 125 350 125 z m 714 -14 b 1042 236 888 -14 999 125 l 1000 236 b 807 146 965 188 904 146 b 657 310 726 146 663 192 b 854 708 1144 335 1135 708 b 639 656 790 708 715 697 b 474 708 603 690 546 708 b 114 417 265 708 86 504 b 283 486 129 369 333 432 b 379 625 250 521 254 625 b 446 458 463 625 464 569 l 426 340 l 251 313 b 49 153 139 294 61 239 b 178 -14 35 58 96 -14 b 472 97 251 -14 333 -6 b 714 -14 518 29 596 -14 z m 813 639 b 661 367 903 639 838 385 b 813 639 674 539 740 639 z "},"ı":{"ha":474,"x_min":0,"x_max":0,"o":"m 161 153 b 307 -14 147 56 185 -14 b 536 188 449 -14 501 76 l 488 208 b 411 97 453 122 436 97 b 383 153 399 97 378 110 l 438 544 b 292 708 450 639 414 708 b 63 507 150 708 97 618 l 111 486 b 188 597 146 572 163 597 b 215 542 200 597 221 585 z "},"ł":{"ha":436,"x_min":0,"x_max":0,"o":"m 475 1069 l 464 1069 l 174 1007 l 168 965 b 224 861 235 965 233 931 l 175 521 l 106 521 l 97 458 l 167 458 l 124 153 b 269 -14 110 56 147 -14 b 499 188 411 -14 464 76 l 450 208 b 374 97 415 122 399 97 b 346 153 361 97 340 110 l 389 458 l 458 458 l 467 521 l 397 521 z "},"ø":{"ha":776,"x_min":0,"x_max":0,"o":"m 801 660 l 757 708 l 686 639 b 492 708 639 682 574 708 b 103 347 283 708 133 547 b 140 104 88 253 100 168 l 69 35 l 115 -14 l 183 53 b 378 -14 229 10 296 -14 b 769 347 585 -14 736 147 b 729 589 783 440 769 525 z m 339 347 b 476 639 368 556 403 639 b 547 503 528 639 549 599 l 332 292 b 339 347 333 308 336 328 z m 533 347 b 394 56 504 139 468 56 b 324 190 343 56 322 96 l 540 403 b 533 347 539 386 536 367 z "},"œ":{"ha":1157,"x_min":0,"x_max":0,"o":"m 931 708 b 699 622 854 708 769 679 b 493 708 654 676 586 708 b 104 347 285 708 135 547 b 379 -14 71 147 169 -14 b 601 64 467 -14 542 15 b 811 -14 646 15 714 -14 b 1143 236 985 -14 1100 125 l 1101 236 b 908 146 1067 188 1006 146 b 760 307 828 146 765 189 b 931 708 1238 250 1301 708 z m 340 347 b 478 639 369 556 404 639 b 535 347 551 639 564 556 b 396 56 506 139 469 56 b 340 347 322 56 311 139 z m 914 639 b 763 363 1051 639 986 350 b 914 639 775 535 842 639 z "},"ß":{"ha":867,"x_min":0,"x_max":0,"o":"m 106 63 b -18 -236 75 -153 150 -328 b -24 -375 -96 -194 -176 -375 b 328 63 86 -375 293 -181 l 417 694 b 557 1007 447 910 474 1007 b 585 675 676 1007 657 779 b 514 338 513 572 408 426 l 617 250 b 672 139 646 225 679 197 b 568 49 663 69 614 49 b 539 153 517 49 508 79 b 397 133 574 236 411 232 b 549 -14 385 47 444 -14 b 786 406 797 -14 976 251 l 664 504 b 618 590 628 532 614 563 b 836 889 633 697 814 722 b 594 1069 850 986 765 1069 b 194 694 413 1069 231 957 l 124 688 l 114 618 l 183 618 z "},"¹":{"ha":556,"x_min":0,"x_max":0,"o":"m 504 1258 l 496 1258 l 301 1208 l 299 1188 b 388 1138 378 1188 393 1183 l 339 796 b 233 729 332 750 318 738 l 231 708 l 522 708 l 525 729 b 439 796 443 738 432 750 z "},"¬":{"ha":829,"x_min":0,"x_max":0,"o":"m 761 410 l 182 410 l 171 333 l 674 333 l 642 108 l 718 108 z "},"µ":{"ha":871,"x_min":0,"x_max":0,"o":"m 154 63 b 31 -236 124 -153 199 -328 b 25 -375 -47 -194 -128 -375 b 361 -6 124 -375 303 -215 b 561 181 442 15 514 82 l 564 181 l 558 150 b 704 -14 542 56 582 -14 b 933 188 846 -14 899 76 l 885 208 b 808 97 850 122 833 97 b 781 153 796 97 775 110 l 856 694 l 633 694 l 592 396 b 432 125 574 264 489 125 b 399 208 397 125 390 146 l 446 542 b 300 708 460 639 422 708 b 71 507 158 708 106 618 l 119 486 b 196 597 154 572 171 597 b 224 542 208 597 229 585 z "},"™":{"ha":1325,"x_min":0,"x_max":0,"o":"m 671 972 l 657 849 l 628 849 b 554 935 631 917 599 935 l 531 935 l 486 618 b 525 553 481 574 494 561 l 522 529 l 293 529 l 296 553 b 354 618 329 561 349 574 l 399 935 l 374 935 b 275 849 329 935 293 917 l 247 849 l 268 972 z m 1011 672 l 926 972 l 725 972 l 721 946 b 786 881 788 939 792 926 l 749 618 b 665 553 743 574 733 561 l 663 529 l 851 529 l 854 553 b 790 618 790 561 785 574 l 825 867 l 914 525 l 979 525 l 1129 817 l 1101 618 b 1043 553 1096 574 1076 561 l 1040 529 l 1269 529 l 1272 553 b 1232 618 1242 561 1226 574 l 1269 881 b 1328 946 1275 926 1296 939 l 1332 972 l 1172 972 z "},"Ð":{"ha":1028,"x_min":0,"x_max":0,"o":"m 114 521 l 106 458 l 189 458 l 146 153 b 47 42 135 76 104 56 l 42 0 l 472 0 b 1054 486 771 0 1014 200 b 608 972 1097 792 907 972 l 178 972 l 172 931 b 239 819 225 917 250 896 l 197 521 z m 356 63 l 411 458 l 536 458 l 544 521 l 419 521 l 475 910 l 586 910 b 818 486 792 910 854 743 b 481 63 786 267 678 63 z "},"½":{"ha":1250,"x_min":0,"x_max":0,"o":"m 403 981 l 394 981 l 200 931 l 197 910 b 285 860 276 910 292 906 l 238 518 b 132 451 231 472 217 460 l 129 431 l 421 431 l 424 451 b 338 518 342 460 331 472 z m 953 986 l 479 -14 l 424 -14 l 899 986 z m 1074 514 b 999 432 1025 514 1003 493 b 951 396 999 415 982 396 b 907 446 918 396 903 417 b 1086 550 914 499 974 550 b 1232 401 1194 550 1243 475 b 938 79 1222 333 1189 238 l 1192 79 l 1181 0 l 822 0 l 826 33 b 1131 392 1083 204 1121 317 b 1074 514 1140 458 1128 514 z "},"±":{"ha":778,"x_min":0,"x_max":0,"o":"m 149 174 l 138 97 l 665 97 l 676 174 l 450 174 l 472 333 l 699 333 l 710 410 l 483 410 l 515 636 l 439 636 l 407 410 l 182 410 l 171 333 l 396 333 l 374 174 z "},"Þ":{"ha":847,"x_min":0,"x_max":0,"o":"m 385 271 l 447 715 l 544 715 b 660 500 656 715 675 611 b 440 271 643 378 579 271 z m 146 153 b 47 42 135 76 104 56 l 42 0 l 431 0 l 436 42 b 368 153 382 56 357 76 l 376 208 l 460 208 b 892 514 751 208 871 375 b 608 778 913 667 817 778 l 456 778 l 461 819 b 561 931 472 896 503 917 l 567 972 l 178 972 l 172 931 b 239 819 225 917 250 896 z "},"¼":{"ha":1250,"x_min":0,"x_max":0,"o":"m 403 981 l 394 981 l 200 931 l 197 910 b 285 860 276 910 292 906 l 238 518 b 132 451 231 472 217 460 l 129 431 l 421 431 l 424 451 b 338 518 342 460 331 472 z m 974 986 l 500 -14 l 444 -14 l 919 986 z m 1032 183 l 1069 450 l 821 183 z m 1196 117 l 1122 117 l 1107 0 l 1007 0 l 1022 117 l 779 117 l 790 197 l 1118 550 l 1183 550 l 1132 183 l 1206 183 z "},"÷":{"ha":778,"x_min":0,"x_max":0,"o":"m 328 171 b 407 79 321 121 357 79 b 511 171 457 79 504 121 b 432 263 518 221 482 263 b 328 171 382 263 335 221 z m 383 572 b 463 481 376 522 413 481 b 567 572 513 481 560 522 b 489 664 574 622 539 664 b 383 572 439 664 390 622 z m 182 410 l 171 333 l 699 333 l 710 410 z "},"¦":{"ha":326,"x_min":0,"x_max":0,"o":"m 361 1139 l 285 1139 l 214 639 l 290 639 z m 251 361 l 175 361 l 104 -139 l 181 -139 z "},"°":{"ha":521,"x_min":0,"x_max":0,"o":"m 257 935 b 372 801 246 858 296 801 b 525 935 447 801 514 858 b 410 1069 536 1010 485 1069 b 257 935 333 1069 268 1010 z m 315 935 b 401 1011 321 978 360 1011 b 467 935 444 1011 472 978 b 379 860 461 893 422 860 b 315 935 338 860 310 893 z "},"þ":{"ha":793,"x_min":0,"x_max":0,"o":"m 500 590 b 557 347 556 590 585 528 b 314 56 521 108 442 14 l 351 319 b 500 590 375 486 444 590 z m 54 -208 b -29 -319 43 -285 28 -306 l -35 -361 l 339 -361 l 344 -319 b 276 -208 292 -306 265 -285 l 307 0 b 785 347 494 -56 736 56 b 583 708 819 556 736 708 b 385 544 486 708 424 632 l 382 544 l 457 1069 l 446 1069 l 156 1007 l 150 965 b 206 861 217 965 215 931 z "},"¾":{"ha":1250,"x_min":0,"x_max":0,"o":"m 981 986 l 507 -14 l 451 -14 l 926 986 z m 292 451 b 240 536 246 451 232 475 b 201 571 242 553 232 571 b 146 535 174 571 151 557 b 283 417 126 463 182 417 b 514 576 403 417 499 469 b 389 713 526 665 461 703 l 389 714 b 531 851 468 732 521 786 b 382 975 540 925 482 975 b 207 857 279 975 210 924 b 251 821 207 831 229 821 b 299 857 282 821 300 840 b 369 939 297 918 324 939 b 432 849 408 939 440 907 b 306 726 421 767 372 726 l 293 726 l 289 693 l 315 693 b 407 581 382 693 417 651 b 292 451 396 497 357 451 z m 1032 183 l 1069 450 l 821 183 z m 1196 117 l 1122 117 l 1107 0 l 1007 0 l 1022 117 l 779 117 l 790 197 l 1118 550 l 1183 550 l 1132 183 l 1206 183 z "},"²":{"ha":556,"x_min":0,"x_max":0,"o":"m 449 1222 b 375 1140 400 1222 379 1201 b 326 1104 374 1124 357 1104 b 282 1154 293 1104 278 1125 b 463 1258 290 1207 350 1258 b 608 1110 571 1258 618 1183 b 313 788 599 1042 564 946 l 567 788 l 556 708 l 197 708 l 203 742 b 507 1100 460 913 496 1025 b 449 1222 517 1167 503 1222 z "},"®":{"ha":1278,"x_min":0,"x_max":0,"o":"m 922 569 b 753 694 935 660 876 694 l 514 694 l 510 671 b 553 606 540 661 558 651 l 515 342 b 454 276 508 296 488 286 l 451 253 l 683 253 l 686 276 b 646 342 653 286 639 296 l 660 442 l 679 442 l 724 310 b 764 253 731 286 744 267 l 929 253 l 932 276 b 861 350 903 288 875 322 l 803 457 b 922 569 874 481 915 524 z m 665 481 l 690 660 l 715 660 b 789 569 779 660 799 633 b 681 481 779 496 739 481 z m 207 486 b 636 -14 168 210 360 -14 b 1207 486 913 -14 1168 210 b 776 986 1246 763 1053 986 b 207 486 500 986 246 763 z m 257 486 b 769 936 292 735 521 936 b 1157 486 1018 936 1192 735 b 643 36 1122 238 892 36 b 257 486 394 36 222 238 z "},"−":{"ha":778,"x_min":0,"x_max":0,"o":"m 182 410 l 171 333 l 699 333 l 710 410 z "},"ð":{"ha":781,"x_min":0,"x_max":0,"o":"m 332 811 l 356 754 l 531 849 b 568 674 546 796 558 736 b 490 681 543 678 517 681 b 75 333 282 681 106 533 b 381 -14 43 133 171 -14 b 799 333 588 -14 771 133 b 651 913 831 557 735 768 l 839 1014 l 814 1071 l 619 967 b 553 1069 592 1011 567 1046 l 456 1069 b 513 908 467 1039 490 982 z m 311 333 b 475 611 340 542 388 611 b 561 333 563 611 590 542 b 397 56 532 125 485 56 b 311 333 310 56 282 125 z "},"×":{"ha":764,"x_min":0,"x_max":0,"o":"m 719 582 l 678 629 l 439 421 l 260 629 l 206 581 l 385 372 l 147 164 l 188 115 l 425 324 l 606 115 l 661 163 l 481 372 z "},"³":{"ha":556,"x_min":0,"x_max":0,"o":"m 357 729 b 306 814 311 729 297 753 b 267 849 308 831 297 849 b 211 813 239 849 217 835 b 349 694 192 740 247 694 b 579 854 468 694 564 747 b 454 990 592 943 526 981 l 454 992 b 596 1129 533 1010 586 1064 b 447 1253 606 1203 547 1253 b 272 1135 344 1253 275 1201 b 317 1099 272 1108 294 1099 b 364 1135 347 1099 365 1118 b 435 1217 364 1196 389 1217 b 497 1126 474 1217 506 1185 b 371 1004 486 1044 438 1004 l 358 1004 l 354 971 l 381 971 b 472 858 447 971 483 929 b 357 729 461 775 422 729 z "},"©":{"ha":1278,"x_min":0,"x_max":0,"o":"m 207 486 b 636 -14 168 210 360 -14 b 1207 486 913 -14 1168 210 b 776 986 1246 763 1053 986 b 207 486 500 986 246 763 z m 257 486 b 769 936 292 735 521 936 b 1157 486 1018 936 1192 735 b 643 36 1122 238 892 36 b 257 486 394 36 222 238 z m 715 286 b 869 417 806 286 843 350 l 897 417 l 872 293 b 701 243 838 272 783 243 b 488 474 586 243 464 301 b 767 704 513 646 651 704 b 924 654 849 704 894 675 l 913 531 l 885 531 b 768 661 878 597 842 661 b 626 474 715 661 649 631 b 715 286 606 317 663 286 z "},"Á":{"ha":972,"x_min":0,"x_max":0,"o":"m 633 1042 l 610 1068 l 775 1278 b 861 1192 840 1361 963 1258 z m 885 125 b 978 42 900 79 911 63 l 972 0 l 556 0 l 561 42 b 633 167 632 56 644 94 l 604 326 l 329 326 l 261 188 b 339 42 222 104 229 56 l 333 0 l 0 0 l 6 42 b 156 125 90 56 128 68 l 568 979 l 686 979 z m 518 736 l 358 389 l 589 389 l 521 736 z "},"Â":{"ha":972,"x_min":0,"x_max":0,"o":"m 647 1146 l 779 1042 l 849 1042 l 710 1292 l 626 1292 l 418 1042 l 488 1042 z m 885 125 b 978 42 900 79 911 63 l 972 0 l 556 0 l 561 42 b 633 167 632 56 644 94 l 604 326 l 329 326 l 261 188 b 339 42 222 104 229 56 l 333 0 l 0 0 l 6 42 b 156 125 90 56 128 68 l 568 979 l 686 979 z m 518 736 l 358 389 l 589 389 l 521 736 z "},"Ä":{"ha":972,"x_min":0,"x_max":0,"o":"m 418 1132 b 494 1044 411 1079 444 1044 b 597 1132 546 1044 590 1079 b 519 1222 604 1185 571 1222 b 418 1132 469 1222 425 1185 z m 689 1132 b 767 1044 682 1079 715 1044 b 868 1132 817 1044 861 1079 b 792 1222 875 1185 842 1222 b 689 1132 740 1222 696 1185 z m 885 125 b 978 42 900 79 911 63 l 972 0 l 556 0 l 561 42 b 633 167 632 56 644 94 l 604 326 l 329 326 l 261 188 b 339 42 222 104 229 56 l 333 0 l 0 0 l 6 42 b 156 125 90 56 128 68 l 568 979 l 686 979 z m 518 736 l 358 389 l 589 389 l 521 736 z "},"À":{"ha":972,"x_min":0,"x_max":0,"o":"m 621 1042 l 653 1068 l 546 1278 b 435 1192 503 1361 353 1258 z m 885 125 b 978 42 900 79 911 63 l 972 0 l 556 0 l 561 42 b 633 167 632 56 644 94 l 604 326 l 329 326 l 261 188 b 339 42 222 104 229 56 l 333 0 l 0 0 l 6 42 b 156 125 90 56 128 68 l 568 979 l 686 979 z m 518 736 l 358 389 l 589 389 l 521 736 z "},"Å":{"ha":972,"x_min":0,"x_max":0,"o":"m 503 1086 b 560 965 496 1031 518 986 l 156 125 b 6 42 128 68 90 56 l 0 0 l 333 0 l 339 42 b 261 188 229 56 222 104 l 324 319 l 607 319 l 633 167 b 561 42 644 94 632 56 l 556 0 l 972 0 l 978 42 b 885 125 911 63 900 79 l 688 969 b 771 1086 731 992 764 1035 b 656 1221 782 1161 731 1221 b 503 1086 579 1221 514 1161 z m 521 736 l 590 396 l 360 396 l 518 736 z m 561 1086 b 647 1163 568 1129 606 1163 b 713 1086 690 1163 719 1129 b 626 1011 707 1044 669 1011 b 561 1086 585 1011 556 1044 z "},"Ã":{"ha":972,"x_min":0,"x_max":0,"o":"m 411 1056 b 524 1111 438 1082 474 1111 b 744 1056 589 1111 679 1056 b 928 1222 808 1056 890 1164 l 883 1250 b 774 1208 857 1222 822 1208 b 558 1264 719 1208 614 1264 b 367 1083 494 1264 404 1143 z m 885 125 b 978 42 900 79 911 63 l 972 0 l 556 0 l 561 42 b 633 167 632 56 644 94 l 604 326 l 329 326 l 261 188 b 339 42 222 104 229 56 l 333 0 l 0 0 l 6 42 b 156 125 90 56 128 68 l 568 979 l 686 979 z m 518 736 l 358 389 l 589 389 l 521 736 z "},"Ç":{"ha":889,"x_min":0,"x_max":0,"o":"m 535 56 b 851 278 701 56 807 167 l 900 278 l 857 69 b 528 -14 796 35 665 -12 l 522 -56 b 657 -197 515 -106 675 -75 b 381 -368 643 -285 483 -354 l 376 -306 b 507 -215 419 -292 499 -274 b 464 -69 517 -142 446 -160 l 475 -11 b 110 486 214 10 71 211 b 665 986 150 778 374 986 b 974 903 804 986 922 938 l 958 694 l 910 694 b 656 917 897 806 822 917 b 346 486 503 917 382 750 b 535 56 308 222 382 56 z "},"É":{"ha":833,"x_min":0,"x_max":0,"o":"m 575 1042 l 551 1068 l 717 1278 b 803 1192 782 1361 904 1258 z m 475 910 l 676 910 b 825 736 753 910 826 849 l 874 736 l 900 972 l 178 972 l 172 931 b 239 819 225 917 250 896 l 146 153 b 47 42 135 76 104 56 l 42 0 l 778 0 l 824 236 l 775 236 b 571 63 746 124 647 63 l 356 63 l 411 458 l 494 458 b 624 313 571 458 626 424 l 672 313 l 722 667 l 674 667 b 503 521 646 556 579 521 l 419 521 z "},"Ê":{"ha":833,"x_min":0,"x_max":0,"o":"m 610 1146 l 742 1042 l 811 1042 l 672 1292 l 589 1292 l 381 1042 l 450 1042 z m 475 910 l 676 910 b 825 736 753 910 826 849 l 874 736 l 900 972 l 178 972 l 172 931 b 239 819 225 917 250 896 l 146 153 b 47 42 135 76 104 56 l 42 0 l 778 0 l 824 236 l 775 236 b 571 63 746 124 647 63 l 356 63 l 411 458 l 494 458 b 624 313 571 458 626 424 l 672 313 l 722 667 l 674 667 b 503 521 646 556 579 521 l 419 521 z "},"Ë":{"ha":833,"x_min":0,"x_max":0,"o":"m 394 1132 b 471 1044 388 1079 421 1044 b 574 1132 522 1044 567 1079 b 496 1222 581 1185 547 1222 b 394 1132 446 1222 401 1185 z m 665 1132 b 743 1044 658 1079 692 1044 b 844 1132 793 1044 838 1079 b 768 1222 851 1185 818 1222 b 665 1132 717 1222 672 1185 z m 475 910 l 676 910 b 825 736 753 910 826 849 l 874 736 l 900 972 l 178 972 l 172 931 b 239 819 225 917 250 896 l 146 153 b 47 42 135 76 104 56 l 42 0 l 778 0 l 824 236 l 775 236 b 571 63 746 124 647 63 l 356 63 l 411 458 l 494 458 b 624 313 571 458 626 424 l 672 313 l 722 667 l 674 667 b 503 521 646 556 579 521 l 419 521 z "},"È":{"ha":833,"x_min":0,"x_max":0,"o":"m 599 1042 l 631 1068 l 524 1278 b 413 1192 481 1361 331 1258 z m 475 910 l 676 910 b 825 736 753 910 826 849 l 874 736 l 900 972 l 178 972 l 172 931 b 239 819 225 917 250 896 l 146 153 b 47 42 135 76 104 56 l 42 0 l 778 0 l 824 236 l 775 236 b 571 63 746 124 647 63 l 356 63 l 411 458 l 494 458 b 624 313 571 458 626 424 l 672 313 l 722 667 l 674 667 b 503 521 646 556 579 521 l 419 521 z "},"Í":{"ha":472,"x_min":0,"x_max":0,"o":"m 386 1042 l 363 1068 l 528 1278 b 614 1192 593 1361 715 1258 z m 461 819 b 561 931 472 896 503 917 l 567 972 l 178 972 l 172 931 b 239 819 225 917 250 896 l 146 153 b 47 42 135 76 104 56 l 42 0 l 431 0 l 436 42 b 368 153 382 56 357 76 z "},"Î":{"ha":472,"x_min":0,"x_max":0,"o":"m 396 1146 l 528 1042 l 597 1042 l 458 1292 l 375 1292 l 167 1042 l 236 1042 z m 461 819 b 561 931 472 896 503 917 l 567 972 l 178 972 l 172 931 b 239 819 225 917 250 896 l 146 153 b 47 42 135 76 104 56 l 42 0 l 431 0 l 436 42 b 368 153 382 56 357 76 z "},"Ï":{"ha":472,"x_min":0,"x_max":0,"o":"m 169 1132 b 246 1044 163 1079 196 1044 b 349 1132 297 1044 342 1079 b 271 1222 356 1185 322 1222 b 169 1132 221 1222 176 1185 z m 440 1132 b 518 1044 433 1079 467 1044 b 619 1132 568 1044 613 1079 b 543 1222 626 1185 593 1222 b 440 1132 492 1222 447 1185 z m 464 819 b 564 931 475 896 506 917 l 569 972 l 181 972 l 175 931 b 242 819 228 917 253 896 l 149 153 b 50 42 138 76 107 56 l 44 0 l 433 0 l 439 42 b 371 153 385 56 360 76 z "},"Ì":{"ha":472,"x_min":0,"x_max":0,"o":"m 379 1042 l 411 1068 l 304 1278 b 193 1192 261 1361 111 1258 z m 461 819 b 561 931 472 896 503 917 l 567 972 l 178 972 l 172 931 b 239 819 225 917 250 896 l 146 153 b 47 42 135 76 104 56 l 42 0 l 431 0 l 436 42 b 368 153 382 56 357 76 z "},"Ñ":{"ha":1014,"x_min":0,"x_max":0,"o":"m 483 1056 b 596 1111 510 1082 546 1111 b 817 1056 661 1111 751 1056 b 1000 1222 881 1056 963 1164 l 956 1250 b 846 1208 929 1222 894 1208 b 631 1264 792 1208 686 1264 b 439 1083 567 1264 476 1143 z m 838 333 l 525 972 l 178 972 l 172 931 b 274 819 253 917 285 896 l 181 153 b 47 42 169 76 132 56 l 42 0 l 361 0 l 367 42 b 257 153 257 56 246 76 l 347 792 l 736 0 l 868 0 l 982 819 b 1117 931 993 896 1031 917 l 1122 972 l 803 972 l 797 931 b 906 819 906 917 917 896 z "},"Ó":{"ha":1083,"x_min":0,"x_max":0,"o":"m 647 1042 l 624 1068 l 789 1278 b 875 1192 854 1361 976 1258 z m 110 486 b 539 -14 68 194 278 -14 b 1110 486 800 -14 1068 194 b 679 986 1150 778 940 986 b 110 486 418 986 150 778 z m 346 486 b 669 917 382 750 489 917 b 874 486 850 917 910 750 b 549 56 836 222 729 56 b 346 486 368 56 308 222 z "},"Ô":{"ha":1083,"x_min":0,"x_max":0,"o":"m 701 1146 l 833 1042 l 903 1042 l 764 1292 l 681 1292 l 472 1042 l 542 1042 z m 110 486 b 539 -14 68 194 278 -14 b 1110 486 800 -14 1068 194 b 679 986 1150 778 940 986 b 110 486 418 986 150 778 z m 346 486 b 669 917 382 750 489 917 b 874 486 850 917 910 750 b 549 56 836 222 729 56 b 346 486 368 56 308 222 z "},"Ö":{"ha":1083,"x_min":0,"x_max":0,"o":"m 486 1132 b 563 1044 479 1079 513 1044 b 665 1132 614 1044 658 1079 b 588 1222 672 1185 639 1222 b 486 1132 538 1222 493 1185 z m 757 1132 b 835 1044 750 1079 783 1044 b 936 1132 885 1044 929 1079 b 860 1222 943 1185 910 1222 b 757 1132 808 1222 764 1185 z m 110 486 b 539 -14 68 194 278 -14 b 1110 486 800 -14 1068 194 b 679 986 1150 778 940 986 b 110 486 418 986 150 778 z m 346 486 b 669 917 382 750 489 917 b 874 486 850 917 910 750 b 549 56 836 222 729 56 b 346 486 368 56 308 222 z "},"Ò":{"ha":1083,"x_min":0,"x_max":0,"o":"m 700 1042 l 732 1068 l 625 1278 b 514 1192 582 1361 432 1258 z m 110 486 b 539 -14 68 194 278 -14 b 1110 486 800 -14 1068 194 b 679 986 1150 778 940 986 b 110 486 418 986 150 778 z m 346 486 b 669 917 382 750 489 917 b 874 486 850 917 910 750 b 549 56 836 222 729 56 b 346 486 368 56 308 222 z "},"Õ":{"ha":1083,"x_min":0,"x_max":0,"o":"m 472 1056 b 585 1111 499 1082 535 1111 b 806 1056 650 1111 740 1056 b 989 1222 869 1056 951 1164 l 944 1250 b 835 1208 918 1222 883 1208 b 619 1264 781 1208 675 1264 b 428 1083 556 1264 465 1143 z m 110 486 b 539 -14 68 194 278 -14 b 1110 486 800 -14 1068 194 b 679 986 1150 778 940 986 b 110 486 418 986 150 778 z m 346 486 b 669 917 382 750 489 917 b 874 486 850 917 910 750 b 549 56 836 222 729 56 b 346 486 368 56 308 222 z "},"Š":{"ha":743,"x_min":0,"x_max":0,"o":"m 551 1188 l 711 1292 l 781 1292 l 572 1042 l 489 1042 l 350 1292 l 419 1292 z m 754 681 l 775 924 b 515 986 704 965 600 986 b 140 708 325 986 165 886 b 372 403 117 539 240 463 b 515 215 471 358 528 299 b 332 63 501 115 417 63 b 133 313 228 63 128 125 l 85 313 l 63 56 b 349 -14 133 14 249 -14 b 742 292 535 -14 713 83 b 489 618 767 472 619 563 b 376 778 394 658 368 715 b 535 910 392 882 489 910 b 706 681 654 910 688 847 z "},"Ú":{"ha":1056,"x_min":0,"x_max":0,"o":"m 696 1042 l 672 1068 l 838 1278 b 924 1192 903 1361 1025 1258 z m 881 389 b 572 69 853 194 760 69 b 388 389 426 69 356 167 l 447 819 b 547 931 458 896 489 917 l 553 972 l 164 972 l 158 931 b 225 819 211 917 236 896 l 163 375 b 518 -14 129 135 247 -14 b 954 375 744 -14 919 125 l 1017 819 b 1158 931 1028 896 1058 917 l 1164 972 l 831 972 l 825 931 b 940 819 933 917 951 896 z "},"Û":{"ha":1056,"x_min":0,"x_max":0,"o":"m 717 1146 l 849 1042 l 918 1042 l 779 1292 l 696 1292 l 488 1042 l 557 1042 z m 881 389 b 572 69 853 194 760 69 b 388 389 426 69 356 167 l 447 819 b 547 931 458 896 489 917 l 553 972 l 164 972 l 158 931 b 225 819 211 917 236 896 l 163 375 b 518 -14 129 135 247 -14 b 954 375 744 -14 919 125 l 1017 819 b 1158 931 1028 896 1058 917 l 1164 972 l 831 972 l 825 931 b 940 819 933 917 951 896 z "},"Ü":{"ha":1056,"x_min":0,"x_max":0,"o":"m 493 1132 b 569 1044 486 1079 519 1044 b 672 1132 621 1044 665 1079 b 594 1222 679 1185 646 1222 b 493 1132 544 1222 500 1185 z m 764 1132 b 842 1044 757 1079 790 1044 b 943 1132 892 1044 936 1079 b 867 1222 950 1185 917 1222 b 764 1132 815 1222 771 1185 z m 881 389 b 572 69 853 194 760 69 b 388 389 426 69 356 167 l 447 819 b 547 931 458 896 489 917 l 553 972 l 164 972 l 158 931 b 225 819 211 917 236 896 l 163 375 b 518 -14 129 135 247 -14 b 954 375 744 -14 919 125 l 1017 819 b 1158 931 1028 896 1058 917 l 1164 972 l 831 972 l 825 931 b 940 819 933 917 951 896 z "},"Ù":{"ha":1056,"x_min":0,"x_max":0,"o":"m 710 1042 l 742 1068 l 635 1278 b 524 1192 592 1361 442 1258 z m 881 389 b 572 69 853 194 760 69 b 388 389 426 69 356 167 l 447 819 b 547 931 458 896 489 917 l 553 972 l 164 972 l 158 931 b 225 819 211 917 236 896 l 163 375 b 518 -14 129 135 247 -14 b 954 375 744 -14 919 125 l 1017 819 b 1158 931 1028 896 1058 917 l 1164 972 l 831 972 l 825 931 b 940 819 933 917 951 896 z "},"Ý":{"ha":889,"x_min":0,"x_max":0,"o":"m 624 1042 l 600 1068 l 765 1278 b 851 1192 831 1361 953 1258 z m 194 847 b 117 931 178 892 156 910 l 122 972 l 483 972 l 478 931 b 439 806 406 917 414 872 l 574 444 l 576 444 l 792 799 b 728 931 833 867 824 917 l 733 972 l 1039 972 l 1033 931 b 896 847 963 917 929 903 l 632 404 l 597 153 b 665 42 586 76 611 56 l 660 0 l 271 0 l 276 42 b 375 153 333 56 364 76 l 401 338 z "},"Ÿ":{"ha":889,"x_min":0,"x_max":0,"o":"m 413 1132 b 489 1044 406 1079 439 1044 b 592 1132 540 1044 585 1079 b 514 1222 599 1185 565 1222 b 413 1132 464 1222 419 1185 z m 683 1132 b 761 1044 676 1079 710 1044 b 863 1132 811 1044 856 1079 b 786 1222 869 1185 836 1222 b 683 1132 735 1222 690 1185 z m 194 847 b 117 931 178 892 156 910 l 122 972 l 483 972 l 478 931 b 439 806 406 917 414 872 l 574 444 l 576 444 l 792 799 b 728 931 833 867 824 917 l 733 972 l 1039 972 l 1033 931 b 896 847 963 917 929 903 l 632 404 l 597 153 b 665 42 586 76 611 56 l 660 0 l 271 0 l 276 42 b 375 153 333 56 364 76 l 401 338 z "},"Ž":{"ha":833,"x_min":0,"x_max":0,"o":"m 600 1188 l 760 1292 l 829 1292 l 621 1042 l 538 1042 l 399 1292 l 468 1292 z m 300 63 l 571 63 b 775 236 654 63 746 124 l 824 236 l 778 0 l 42 0 l 51 69 l 669 910 l 422 910 b 224 736 343 910 253 849 l 175 736 l 215 972 l 914 972 l 901 889 z "},"á":{"ha":818,"x_min":0,"x_max":0,"o":""},"â":{"ha":818,"x_min":0,"x_max":0,"o":""},"ä":{"ha":818,"x_min":0,"x_max":0,"o":""},"à":{"ha":818,"x_min":0,"x_max":0,"o":""},"å":{"ha":818,"x_min":0,"x_max":0,"o":""},"ã":{"ha":818,"x_min":0,"x_max":0,"o":""},"ç":{"ha":717,"x_min":0,"x_max":0,"o":"m 707 236 l 665 236 b 472 146 631 188 569 146 b 329 390 375 146 304 208 b 478 639 351 551 410 639 b 543 510 533 639 564 611 b 617 438 538 481 547 438 b 736 535 700 438 729 486 b 494 708 749 624 668 708 b 103 340 333 708 136 576 b 349 -12 78 160 140 0 l 336 -69 b 379 -215 318 -160 389 -142 b 249 -306 371 -274 292 -292 l 253 -368 b 529 -197 356 -354 515 -285 b 394 -56 547 -75 388 -106 l 400 -12 b 707 236 560 0 665 131 z "},"é":{"ha":721,"x_min":0,"x_max":0,"o":""},"ê":{"ha":721,"x_min":0,"x_max":0,"o":""},"ë":{"ha":721,"x_min":0,"x_max":0,"o":""},"è":{"ha":721,"x_min":0,"x_max":0,"o":""},"í":{"ha":474,"x_min":0,"x_max":0,"o":""},"î":{"ha":474,"x_min":0,"x_max":0,"o":"m 367 868 l 499 764 l 568 764 l 429 1014 l 346 1014 l 138 764 l 207 764 z m 161 153 b 307 -14 147 56 185 -14 b 536 188 449 -14 501 76 l 488 208 b 411 97 453 122 436 97 b 383 153 399 97 378 110 l 438 544 b 292 708 450 639 414 708 b 63 507 150 708 97 618 l 111 486 b 188 597 146 572 163 597 b 215 542 200 597 221 585 z "},"ï":{"ha":474,"x_min":0,"x_max":0,"o":""},"ì":{"ha":474,"x_min":0,"x_max":0,"o":""},"ñ":{"ha":863,"x_min":0,"x_max":0,"o":""},"ó":{"ha":776,"x_min":0,"x_max":0,"o":""},"ô":{"ha":776,"x_min":0,"x_max":0,"o":""},"ö":{"ha":776,"x_min":0,"x_max":0,"o":""},"ò":{"ha":776,"x_min":0,"x_max":0,"o":""},"õ":{"ha":776,"x_min":0,"x_max":0,"o":""},"š":{"ha":667,"x_min":0,"x_max":0,"o":""},"ú":{"ha":863,"x_min":0,"x_max":0,"o":""},"û":{"ha":863,"x_min":0,"x_max":0,"o":""},"ü":{"ha":863,"x_min":0,"x_max":0,"o":""},"ù":{"ha":863,"x_min":0,"x_max":0,"o":""},"ý":{"ha":813,"x_min":0,"x_max":0,"o":"m 661 90 b 142 -236 538 -193 254 -276 b 160 -375 60 -207 8 -375 b 806 607 493 -375 875 79 b 593 583 783 779 547 713 b 500 97 738 178 604 97 b 397 208 424 97 389 146 l 444 542 b 299 708 458 639 421 708 b 69 507 157 708 104 618 l 118 486 b 194 597 153 572 169 597 b 222 542 207 597 228 585 l 174 194 b 361 -14 151 42 229 -14 b 660 92 475 -14 579 25 z m 585 764 l 560 790 l 726 1000 b 813 914 792 1083 914 981 z "},"ÿ":{"ha":814,"x_min":0,"x_max":0,"o":""},"ž":{"ha":681,"x_min":0,"x_max":0,"o":"m 168 160 b 700 713 567 472 713 563 b 611 701 693 790 588 776 b 636 649 619 672 643 663 b 347 722 622 621 472 722 b 82 507 217 722 154 675 l 131 486 b 221 569 165 572 196 569 b 568 557 281 569 363 435 l 569 556 b 43 19 97 236 35 83 b 140 40 54 -61 160 -26 b 126 88 132 67 119 78 b 444 -42 142 111 238 -42 b 689 125 578 -42 689 42 b 556 128 689 222 529 210 b 550 35 565 97 569 43 b 169 158 496 11 475 313 z m 483 910 l 643 1014 l 713 1014 l 504 764 l 421 764 l 282 1014 l 351 1014 z "},"":{"ha":444,"x_min":0,"x_max":0,"o":"m 132 88 b 219 -14 125 32 164 -14 b 335 88 275 -14 328 32 b 249 189 343 143 304 189 b 132 88 193 189 140 143 z m 290 278 l 411 642 b 331 764 438 718 400 764 b 208 642 261 764 203 718 l 235 278 z "},"":{"ha":667,"x_min":0,"x_max":0,"o":"m 286 833 l 244 854 l 350 1106 b 465 1046 385 1189 529 1125 z m 508 833 l 467 854 l 572 1106 b 688 1046 607 1189 751 1125 z "},"":{"ha":688,"x_min":0,"x_max":0,"o":"m 422 889 l 406 763 b 132 551 235 749 147 660 b 308 299 114 422 167 364 b 338 283 318 293 329 289 l 306 56 b 157 243 257 58 178 85 l 103 243 l 89 40 b 296 -12 138 11 224 -8 l 278 -139 l 354 -139 l 372 -11 b 656 225 521 4 638 94 b 444 494 675 358 621 415 l 471 692 b 601 521 538 682 576 628 l 653 521 l 667 715 b 482 763 617 740 544 758 l 499 889 z m 431 157 b 385 76 426 121 408 93 l 407 233 b 431 157 431 206 435 179 z m 349 610 b 393 679 354 643 372 665 l 374 536 b 349 610 356 554 344 578 z "},"":{"ha":556,"x_min":0,"x_max":0,"o":"m 499 1392 l 450 1392 l 431 1251 b 251 1110 331 1243 263 1186 b 382 940 238 1014 301 976 b 482 826 439 914 492 890 b 364 732 474 765 421 732 b 238 885 303 732 233 761 l 213 885 l 206 736 b 353 696 239 710 297 697 l 333 556 l 382 556 l 401 697 b 588 863 497 707 574 763 b 440 1035 601 961 519 1001 b 356 1135 385 1058 349 1081 b 460 1214 365 1197 419 1214 b 571 1072 532 1214 567 1172 l 596 1072 l 607 1215 b 479 1251 571 1236 524 1249 z "},"":{"ha":1015,"x_min":0,"x_max":0,"o":"m 279 217 b 411 56 267 124 329 56 b 561 94 467 56 518 71 l 358 351 b 279 217 324 322 289 285 z m 571 608 b 515 707 578 658 565 707 b 428 617 465 707 435 664 b 483 475 419 563 453 508 b 571 608 531 503 564 561 z m 593 60 b 360 -14 506 7 425 -14 b 103 188 200 -14 86 63 b 326 389 117 286 229 361 b 253 588 261 460 243 521 b 518 764 269 706 406 764 b 711 613 628 764 725 703 b 513 440 703 553 667 492 l 696 210 b 760 306 724 243 743 274 b 672 389 788 363 771 376 l 676 424 l 976 424 l 972 389 b 821 306 871 376 854 363 b 726 169 790 250 758 207 l 788 101 b 896 42 806 82 838 56 l 890 0 l 646 0 z "},"":{"ha":513,"x_min":0,"x_max":0,"o":"m 269 833 l 244 860 l 411 1069 b 497 983 476 1153 599 1050 z "},"⁽":{"ha":556,"x_min":0,"x_max":0,"o":"m 413 999 b 585 1467 433 1149 486 1329 l 560 1467 b 315 999 410 1329 336 1156 b 429 535 293 847 318 672 l 454 535 b 413 999 394 674 392 854 z "},"⁾":{"ha":556,"x_min":0,"x_max":0,"o":"m 424 999 b 381 1467 444 1149 442 1329 l 404 1467 b 519 999 517 1329 540 1156 b 274 535 497 847 425 672 l 250 535 b 424 999 350 674 403 854 z "},"‥":{"ha":764,"x_min":0,"x_max":0,"o":"m 132 88 b 219 -14 125 32 164 -14 b 335 88 275 -14 328 32 b 249 189 343 143 304 189 b 132 88 193 189 140 143 z m 451 88 b 539 -14 444 32 483 -14 b 654 88 594 -14 647 32 b 568 189 663 143 624 189 b 451 88 513 189 460 143 z "},"․":{"ha":444,"x_min":0,"x_max":0,"o":"m 132 88 b 219 -14 125 32 164 -14 b 335 88 275 -14 328 32 b 249 189 343 143 304 189 b 132 88 193 189 140 143 z "},"":{"ha":833,"x_min":0,"x_max":0,"o":"m 107 375 b 414 -14 72 125 178 -14 b 829 375 650 -14 797 139 b 524 764 863 611 760 764 b 107 375 288 764 140 611 z m 343 375 b 514 694 381 639 417 694 b 593 375 611 694 631 639 b 424 56 557 111 521 56 b 343 375 326 56 307 111 z "},"":{"ha":597,"x_min":0,"x_max":0,"o":"m 524 764 l 510 764 l 150 681 l 144 639 b 269 542 269 639 281 618 l 215 153 b 61 42 204 76 174 56 l 56 0 l 556 0 l 561 42 b 438 153 451 56 426 76 z "},"":{"ha":708,"x_min":0,"x_max":0,"o":"m 444 694 b 350 572 389 694 358 674 b 256 493 347 543 325 493 b 171 590 179 493 164 542 b 475 764 183 679 274 764 b 738 557 663 764 754 681 b 321 167 721 444 643 333 l 689 167 l 667 0 l 42 0 l 49 56 b 519 542 457 292 503 417 b 444 694 532 625 514 694 z "},"":{"ha":757,"x_min":0,"x_max":0,"o":"m 329 -125 b 264 4 274 -125 243 -97 b 190 76 269 33 260 76 b 71 -21 107 76 78 28 b 313 -194 58 -110 139 -194 b 714 89 528 -194 690 -89 b 493 326 735 236 614 311 l 493 329 b 743 557 632 354 728 449 b 475 764 760 681 663 764 b 185 590 288 764 197 679 b 269 493 178 542 193 493 b 364 572 339 493 361 543 b 458 694 372 674 403 694 b 538 553 486 694 554 667 b 350 354 519 419 435 354 l 328 354 l 319 292 l 356 292 b 482 92 467 292 499 210 b 329 -125 463 -47 413 -125 z "},"":{"ha":792,"x_min":0,"x_max":0,"o":"m 446 139 l 504 554 l 129 139 z m 750 0 l 649 0 l 622 -181 l 400 -181 l 426 0 l 42 0 l 64 161 l 611 764 l 756 764 l 668 139 l 769 139 z "},"":{"ha":743,"x_min":0,"x_max":0,"o":"m 192 333 l 303 333 b 471 97 442 333 489 219 b 315 -125 454 -28 413 -125 b 250 4 260 -125 229 -97 b 176 76 256 33 246 76 b 57 -21 93 76 64 28 b 299 -194 44 -110 125 -194 b 701 104 521 -194 678 -62 b 274 410 717 211 681 451 l 307 583 l 735 583 l 757 750 l 264 750 z "},"":{"ha":785,"x_min":0,"x_max":0,"o":"m 532 278 b 457 489 551 417 528 489 b 354 453 431 489 392 479 b 403 56 306 274 299 56 b 532 278 468 56 510 119 z m 769 292 b 392 -14 743 106 558 -14 b 104 353 182 -14 76 154 b 704 931 146 649 401 875 l 711 875 b 363 521 458 806 393 625 b 540 582 432 574 503 582 b 769 292 715 582 790 444 z "},"":{"ha":694,"x_min":0,"x_max":0,"o":"m 360 -181 l 110 -181 l 638 583 l 290 583 b 172 486 211 583 196 557 l 124 486 l 167 750 l 771 750 l 760 667 z "},"":{"ha":785,"x_min":0,"x_max":0,"o":"m 600 714 b 514 847 614 819 571 847 b 400 726 471 847 411 807 b 521 543 392 667 408 590 b 600 714 553 569 590 644 z m 535 199 b 375 403 547 290 500 346 b 296 231 342 361 306 301 b 397 56 279 113 326 56 b 535 199 479 56 524 121 z m 756 246 b 385 -14 732 76 560 -14 b 93 221 206 -14 69 56 b 321 433 108 326 199 407 b 192 681 203 507 181 596 b 529 917 214 831 364 917 b 779 708 668 917 800 851 b 575 515 768 626 704 544 b 756 246 735 444 771 351 z "},"":{"ha":785,"x_min":0,"x_max":0,"o":"m 357 472 b 432 261 338 333 361 261 b 535 297 458 261 497 271 b 486 694 583 476 590 694 b 357 472 421 694 379 631 z m 119 458 b 497 764 146 644 331 764 b 785 397 707 764 813 596 b 185 -181 743 101 488 -125 l 178 -125 b 526 229 431 -56 496 125 b 349 168 457 176 386 168 b 119 458 174 168 97 306 z "},"":{"ha":556,"x_min":0,"x_max":0,"o":"m 383 832 b 308 767 349 832 314 801 b 363 700 303 725 329 700 b 281 560 417 700 378 601 l 290 532 b 456 725 354 553 442 626 b 383 832 461 768 456 832 z "},"":{"ha":1250,"x_min":0,"x_max":0,"o":"m 182 410 l 171 333 l 1171 333 l 1182 410 z "},"":{"ha":556,"x_min":0,"x_max":0,"o":"m 313 765 b 375 694 307 728 336 694 b 456 765 414 694 450 728 b 394 838 461 804 433 838 b 313 765 356 838 318 804 z "},"":{"ha":615,"x_min":0,"x_max":0,"o":"m 514 569 b 321 513 507 515 393 528 b 258 278 175 481 233 325 l 321 278 b 400 375 318 331 360 363 b 579 542 519 413 571 479 b 372 758 599 674 446 742 b 243 575 199 799 147 607 b 514 569 325 547 529 672 z m 164 88 b 251 -14 157 32 196 -14 b 367 88 307 -14 360 32 b 281 189 375 143 336 189 b 164 88 225 189 172 143 z "},"":{"ha":507,"x_min":0,"x_max":0,"o":"m 525 1015 b 403 1129 538 1088 486 1129 b 189 953 279 1129 169 1004 b 288 994 196 924 319 963 b 344 1076 268 1015 271 1076 b 385 978 394 1076 397 1044 l 374 908 l 268 889 b 153 794 201 879 160 846 b 225 694 144 738 176 694 b 350 761 275 694 297 713 l 351 761 b 417 694 346 729 358 694 b 542 744 467 694 492 708 l 544 765 b 492 819 504 757 481 754 z m 356 794 b 315 779 343 785 332 779 b 283 811 293 779 283 794 b 328 865 283 844 297 860 l 368 874 z "},"":{"ha":579,"x_min":0,"x_max":0,"o":"m 436 1054 b 513 910 486 1054 522 1018 b 400 736 500 799 458 736 b 349 840 374 736 335 744 l 375 1033 b 436 1054 396 1050 417 1054 z m 418 1343 l 411 1343 l 239 1307 l 235 1282 b 268 1219 261 1272 274 1260 l 194 701 l 229 701 l 300 736 b 407 694 333 708 378 694 b 647 910 513 694 628 779 b 504 1129 664 1035 611 1129 b 381 1071 456 1129 415 1108 l 381 1071 z "},"":{"ha":556,"x_min":0,"x_max":0,"o":"m 415 556 l 367 556 l 386 697 b 175 974 239 708 151 810 b 464 1250 197 1136 314 1238 l 483 1392 l 532 1392 l 513 1251 b 678 1201 589 1249 647 1219 l 667 1082 l 643 1082 b 492 1217 636 1147 594 1217 b 283 974 389 1217 306 1133 b 422 731 261 815 319 731 b 613 865 525 731 586 799 l 636 865 l 614 744 b 435 696 578 725 511 699 z "},"":{"ha":599,"x_min":0,"x_max":0,"o":"m 382 765 b 308 910 332 765 296 803 b 419 1088 318 1024 361 1088 b 469 982 444 1088 482 1076 l 442 788 b 382 765 425 775 403 765 z m 486 1104 b 414 1129 469 1118 443 1129 b 169 910 304 1129 188 1044 b 314 694 151 788 206 694 b 436 754 364 694 404 715 l 438 754 l 429 694 l 439 694 l 628 736 l 632 765 b 582 836 578 761 574 779 l 653 1343 l 646 1343 l 475 1307 l 471 1282 b 503 1219 494 1272 508 1260 z "},"":{"ha":489,"x_min":0,"x_max":0,"o":"m 410 1088 b 442 985 444 1088 474 1060 l 313 985 b 410 1088 331 1051 364 1088 z m 353 694 b 532 771 456 694 513 754 l 539 828 b 410 790 494 803 458 790 b 306 940 346 790 289 828 l 551 940 b 421 1129 594 1082 517 1129 b 168 908 317 1129 189 1050 b 353 694 153 794 215 694 z "},"":{"ha":354,"x_min":0,"x_max":0,"o":"m 397 1132 l 389 1132 l 222 1096 l 219 1068 b 247 1008 239 1064 253 1049 l 218 801 b 158 736 211 754 194 743 l 154 708 l 388 708 l 392 736 b 351 801 360 743 344 754 z m 274 1271 b 340 1197 268 1229 299 1197 b 428 1271 382 1197 422 1229 b 361 1349 433 1314 403 1349 b 274 1271 319 1349 279 1314 z "},"":{"ha":354,"x_min":0,"x_max":0,"o":"m 428 1349 l 419 1349 l 253 1311 l 250 1286 b 276 1224 269 1278 283 1267 l 218 801 b 158 736 211 754 194 743 l 154 708 l 388 708 l 392 736 b 351 801 360 743 344 754 z "},"":{"ha":869,"x_min":0,"x_max":0,"o":"m 638 1013 b 728 1049 669 1038 701 1049 b 761 999 751 1049 765 1038 l 733 801 b 692 736 726 754 718 746 l 688 708 l 901 708 l 906 736 b 868 801 875 743 861 754 l 897 1008 b 801 1132 910 1101 856 1132 b 642 1042 740 1132 679 1096 l 640 1042 b 543 1132 635 1106 592 1132 b 386 1046 482 1132 425 1101 l 385 1046 l 399 1132 l 393 1132 l 222 1096 l 219 1068 b 247 1008 239 1064 253 1049 l 218 801 b 158 736 211 754 194 743 l 154 708 l 388 708 l 392 736 b 351 801 360 743 344 754 l 381 1013 b 469 1049 414 1038 443 1049 b 503 999 493 1049 507 1038 l 475 801 b 433 736 468 754 460 746 l 429 708 l 643 708 l 647 736 b 608 801 619 743 601 754 z "},"ⁿ":{"ha":622,"x_min":0,"x_max":0,"o":"m 154 708 l 388 708 l 392 736 b 351 801 360 743 344 754 l 381 1013 b 469 1049 414 1038 443 1049 b 513 999 493 1049 517 1038 l 485 801 b 442 736 478 754 467 746 l 438 708 l 654 708 l 658 736 b 617 801 624 743 610 754 l 646 1008 b 551 1132 658 1101 607 1132 b 386 1046 490 1132 425 1101 l 385 1046 l 399 1132 l 393 1132 l 222 1096 l 219 1068 b 247 1008 239 1064 253 1049 l 218 801 b 158 736 211 754 194 743 z "},"":{"ha":538,"x_min":0,"x_max":0,"o":"m 171 910 b 351 694 150 792 225 694 b 603 910 475 694 585 792 b 421 1129 622 1032 543 1129 b 171 910 294 1129 190 1032 z m 311 910 b 411 1088 328 1035 358 1088 b 460 910 464 1088 476 1035 b 361 736 442 788 414 736 b 311 910 308 736 293 788 z "},"":{"ha":458,"x_min":0,"x_max":0,"o":"m 351 801 b 392 736 344 754 360 743 l 388 708 l 154 708 l 158 736 b 218 801 194 743 211 754 l 247 1008 b 219 1068 253 1049 239 1064 l 222 1096 l 393 1132 l 399 1132 l 383 1038 l 385 1038 b 504 1132 422 1096 456 1132 b 485 1015 588 1132 550 996 b 379 1004 433 1032 403 1021 z "},"":{"ha":422,"x_min":0,"x_max":0,"o":"m 471 994 l 479 1103 b 358 1129 447 1115 397 1129 b 182 1007 250 1129 192 1072 b 279 865 172 936 203 900 b 344 790 343 836 349 811 b 286 736 340 754 313 736 b 196 836 261 736 207 740 l 172 836 l 157 725 b 288 694 190 708 247 694 b 474 828 385 694 463 750 b 350 982 485 903 450 936 b 304 1039 322 993 299 1007 b 357 1088 308 1072 336 1088 b 443 994 403 1088 428 1060 z "},"":{"ha":414,"x_min":0,"x_max":0,"o":"m 372 1072 l 472 1072 l 479 1118 l 379 1118 l 396 1243 l 363 1243 l 249 1129 l 211 1113 l 206 1072 l 240 1072 l 201 794 b 301 694 192 725 246 694 b 443 744 346 694 396 708 l 446 765 b 376 757 417 760 394 757 b 338 828 336 757 331 775 z "},"ﬀ":{"ha":917,"x_min":0,"x_max":0,"o":"m 183 618 l 106 63 b -18 -236 75 -153 150 -328 b -24 -375 -96 -194 -176 -375 b 328 63 86 -375 293 -181 l 406 618 l 628 618 l 550 63 b 426 -236 519 -153 594 -328 b 421 -375 349 -194 268 -375 b 772 63 531 -375 738 -181 l 850 618 l 989 618 l 1000 694 l 861 694 b 1033 931 885 910 863 1022 b 1039 1069 1110 889 1192 1069 b 639 694 936 1069 703 910 l 417 694 b 589 931 440 910 418 1022 b 594 1069 665 889 747 1069 b 194 694 492 1069 258 910 l 124 688 l 114 618 z "},"ﬃ":{"ha":1333,"x_min":0,"x_max":0,"o":"m 850 618 l 1017 618 b 1075 542 1061 618 1083 597 l 1021 153 b 1167 -14 1007 56 1044 -14 b 1396 188 1308 -14 1361 76 l 1347 208 b 1271 97 1313 122 1296 97 b 1243 153 1258 97 1238 110 l 1321 708 l 1310 708 l 1028 694 l 861 694 b 1033 931 885 910 863 1022 b 1039 1069 1110 889 1192 1069 b 639 694 936 1069 703 910 l 417 694 b 589 931 440 910 418 1022 b 594 1069 665 889 747 1069 b 194 694 492 1069 258 910 l 124 688 l 114 618 l 183 618 l 106 63 b -18 -236 75 -153 150 -328 b -24 -375 -96 -194 -176 -375 b 328 63 86 -375 293 -181 l 406 618 l 628 618 l 550 63 b 426 -236 519 -153 594 -328 b 421 -375 349 -194 268 -375 b 772 63 531 -375 738 -181 z "},"ﬄ":{"ha":1333,"x_min":0,"x_max":0,"o":"m 417 694 b 589 931 440 910 418 1022 b 594 1069 665 889 747 1069 b 194 694 492 1069 258 910 l 124 688 l 114 618 l 183 618 l 106 63 b -18 -236 75 -153 150 -328 b -24 -375 -96 -194 -176 -375 b 328 63 86 -375 293 -181 l 406 618 l 628 618 l 550 63 b 426 -236 519 -153 594 -328 b 421 -375 349 -194 268 -375 b 772 63 531 -375 738 -181 l 850 618 l 989 618 l 1000 694 l 861 694 b 1122 878 883 904 843 1065 l 1021 153 b 1167 -14 1007 56 1044 -14 b 1396 188 1308 -14 1361 76 l 1347 208 b 1271 97 1313 122 1296 97 b 1243 153 1258 97 1238 110 l 1372 1069 l 1361 1069 l 1289 1022 b 1094 1069 1236 1051 1163 1069 b 639 694 919 1069 703 910 z "},"₍":{"ha":556,"x_min":0,"x_max":0,"o":"m 274 13 b 446 481 294 163 347 343 l 421 481 b 176 13 271 343 199 169 b 290 -451 154 -139 179 -314 l 315 -451 b 274 13 256 -312 253 -132 z "},"₎":{"ha":556,"x_min":0,"x_max":0,"o":"m 285 13 b 242 481 306 163 303 343 l 265 481 b 381 13 378 343 403 169 b 135 -451 358 -139 286 -314 l 111 -451 b 285 13 211 -312 264 -132 z "},"":{"ha":653,"x_min":0,"x_max":0,"o":"m 457 938 l 589 833 l 658 833 l 519 1083 l 436 1083 l 228 833 l 297 833 z "},"":{"ha":556,"x_min":0,"x_max":0,"o":"m 163 1014 l 154 951 l 668 951 l 676 1014 z "},"":{"ha":513,"x_min":0,"x_max":0,"o":"m 476 833 l 507 860 l 401 1069 b 290 983 358 1153 208 1050 z "},"":{"ha":819,"x_min":0,"x_max":0,"o":"m 760 125 b 825 42 774 79 786 63 l 819 0 l 444 0 l 450 42 b 508 167 521 56 526 97 l 492 229 l 269 229 l 238 167 b 311 42 203 96 214 56 l 306 0 l 0 0 l 6 42 b 135 125 75 56 107 69 l 463 757 l 578 757 z m 411 519 l 299 292 l 472 292 l 414 519 z "},"":{"ha":792,"x_min":0,"x_max":0,"o":"m 583 397 b 792 201 726 382 807 308 b 417 0 769 49 625 0 l 42 0 l 47 42 b 146 153 104 56 135 76 l 208 597 b 140 708 219 674 194 694 l 146 750 l 507 750 b 801 569 715 750 819 694 b 583 400 786 458 683 417 z m 397 361 l 356 63 l 397 63 b 564 208 481 63 547 97 b 425 361 581 331 522 361 z m 433 424 b 572 569 503 424 556 450 b 457 688 588 681 513 688 l 443 688 l 406 424 z "},"":{"ha":778,"x_min":0,"x_max":0,"o":"m 479 56 b 740 278 632 56 696 167 l 789 278 l 746 69 b 456 -14 685 35 594 -14 b 93 375 261 -14 53 83 b 565 764 135 667 371 764 b 831 681 704 764 781 715 l 815 472 l 767 472 b 569 694 756 583 694 694 b 329 375 486 694 367 639 b 479 56 293 111 396 56 z "},"":{"ha":917,"x_min":0,"x_max":0,"o":"m 356 63 l 443 688 l 471 688 b 690 375 676 688 721 590 b 397 63 665 197 594 63 z m 389 0 b 926 375 688 0 893 131 b 493 750 964 639 792 750 l 146 750 l 140 708 b 208 597 194 694 219 674 l 146 153 b 47 42 135 76 104 56 l 42 0 z "},"":{"ha":778,"x_min":0,"x_max":0,"o":"m 443 688 l 589 688 b 742 542 665 688 744 654 l 790 542 l 813 750 l 146 750 l 140 708 b 208 597 194 694 219 674 l 146 153 b 47 42 135 76 104 56 l 42 0 l 722 0 l 765 208 l 717 208 b 515 63 686 96 592 63 l 356 63 l 396 347 l 424 347 b 554 215 500 347 558 326 l 603 215 l 649 542 l 600 542 b 432 410 572 431 508 410 l 404 410 z "},"":{"ha":743,"x_min":0,"x_max":0,"o":"m 393 333 l 421 333 b 553 201 497 333 556 313 l 601 201 l 647 528 l 599 528 b 431 396 571 417 507 396 l 403 396 l 443 688 l 589 688 b 742 542 665 688 744 654 l 790 542 l 813 750 l 146 750 l 140 708 b 208 597 194 694 219 674 l 146 153 b 47 42 135 76 104 56 l 42 0 l 431 0 l 436 42 b 368 153 382 56 357 76 z "},"":{"ha":875,"x_min":0,"x_max":0,"o":"m 479 56 b 578 76 507 56 533 58 l 594 194 b 526 306 606 271 594 292 l 533 347 l 922 347 l 915 306 b 817 194 831 292 828 271 l 803 97 b 454 -14 742 56 593 -14 b 93 375 261 -14 53 83 b 565 764 135 667 371 764 b 831 681 704 764 781 715 l 815 472 l 767 472 b 569 694 756 583 694 694 b 329 375 486 694 367 639 b 479 56 293 111 396 56 z "},"":{"ha":986,"x_min":0,"x_max":0,"o":"m 944 597 b 1043 708 956 674 986 694 l 1049 750 l 660 750 l 654 708 b 722 597 708 694 733 674 l 697 417 l 406 417 l 431 597 b 529 708 442 674 472 694 l 535 750 l 146 750 l 140 708 b 208 597 194 694 219 674 l 146 153 b 47 42 135 76 104 56 l 42 0 l 431 0 l 436 42 b 368 153 382 56 357 76 l 396 354 l 688 354 l 660 153 b 561 42 649 76 618 56 l 556 0 l 944 0 l 950 42 b 882 153 896 56 871 76 z "},"":{"ha":472,"x_min":0,"x_max":0,"o":"m 431 597 b 529 708 442 674 472 694 l 535 750 l 146 750 l 140 708 b 208 597 194 694 219 674 l 146 153 b 47 42 135 76 104 56 l 42 0 l 431 0 l 436 42 b 368 153 382 56 357 76 z "},"":{"ha":556,"x_min":0,"x_max":0,"o":"m 514 597 b 613 708 525 674 556 694 l 618 750 l 229 750 l 224 708 b 292 597 278 694 303 674 l 258 361 b 106 104 235 194 256 -37 b 81 -14 8 196 -92 -14 b 489 417 324 -14 457 194 z "},"":{"ha":889,"x_min":0,"x_max":0,"o":"m 406 424 b 531 472 447 424 492 432 l 660 597 b 626 708 715 656 725 694 l 632 750 l 958 750 l 953 708 b 783 639 876 694 832 686 l 590 451 l 761 174 b 881 42 833 57 849 63 l 875 0 l 514 0 l 519 42 b 513 146 547 49 558 64 l 446 257 b 392 319 422 297 406 319 l 368 153 b 436 42 357 76 382 56 l 431 0 l 42 0 l 47 42 b 146 153 104 56 135 76 l 208 597 b 140 708 219 674 194 694 l 146 750 l 535 750 l 529 708 b 431 597 472 694 442 674 z "},"":{"ha":750,"x_min":0,"x_max":0,"o":"m 146 153 b 47 42 135 76 104 56 l 42 0 l 722 0 l 765 208 l 717 208 b 515 63 686 96 592 63 l 356 63 l 431 597 b 529 708 442 674 472 694 l 535 750 l 146 750 l 140 708 b 208 597 194 694 219 674 z "},"":{"ha":1111,"x_min":0,"x_max":0,"o":"m 631 243 l 486 750 l 146 750 l 140 708 b 250 597 250 694 261 674 l 188 153 b 47 42 176 76 160 56 l 42 0 l 361 0 l 367 42 b 257 153 257 56 246 76 l 315 569 l 464 -7 l 575 -7 l 832 486 l 785 153 b 686 42 774 76 743 56 l 681 0 l 1069 0 l 1075 42 b 1007 153 1021 56 996 76 l 1069 597 b 1168 708 1081 674 1111 694 l 1174 750 l 903 750 z "},"":{"ha":931,"x_min":0,"x_max":0,"o":"m 749 292 l 465 750 l 146 750 l 140 708 b 243 597 222 694 254 674 l 181 153 b 47 42 169 76 132 56 l 42 0 l 361 0 l 367 42 b 257 153 257 56 246 76 l 315 569 l 653 0 l 785 0 l 868 597 b 1001 708 879 674 917 694 l 1007 750 l 688 750 l 682 708 b 792 597 792 694 803 674 z "},"":{"ha":917,"x_min":0,"x_max":0,"o":"m 93 375 b 456 -14 58 125 236 -14 b 926 375 675 -14 892 125 b 565 764 963 625 785 764 b 93 375 346 764 129 625 z m 329 375 b 556 694 367 639 460 694 b 690 375 651 694 728 639 b 465 56 654 111 561 56 b 329 375 369 56 293 111 z "},"":{"ha":792,"x_min":0,"x_max":0,"o":"m 393 326 l 443 688 l 485 688 b 607 521 596 688 622 632 b 421 326 590 399 518 326 z m 411 264 b 836 521 703 264 817 382 b 549 750 858 674 757 750 l 146 750 l 140 708 b 208 597 194 694 219 674 l 146 153 b 47 42 135 76 104 56 l 42 0 l 431 0 l 436 42 b 368 153 382 56 357 76 l 383 264 z "},"":{"ha":917,"x_min":0,"x_max":0,"o":"m 93 375 b 385 -8 63 153 199 18 b 728 -347 458 -212 539 -347 b 929 -306 797 -347 889 -322 l 933 -271 b 551 -4 760 -242 629 -94 b 926 375 735 29 897 161 b 565 764 963 625 785 764 b 93 375 346 764 129 625 z m 329 375 b 556 694 367 639 460 694 b 690 375 651 694 728 639 b 465 56 654 111 561 56 b 329 375 369 56 293 111 z "},"":{"ha":847,"x_min":0,"x_max":0,"o":"m 839 535 b 549 750 860 688 757 750 l 146 750 l 140 708 b 208 597 194 694 219 674 l 146 153 b 47 42 135 76 104 56 l 42 0 l 431 0 l 436 42 b 368 153 382 56 357 76 l 392 319 l 425 319 l 499 97 b 569 0 513 56 536 28 l 847 0 l 853 42 b 731 167 800 63 757 121 l 633 347 b 839 535 751 385 828 458 z m 400 382 l 443 688 l 485 688 b 610 535 596 688 625 646 b 428 382 592 413 525 382 z "},"":{"ha":660,"x_min":0,"x_max":0,"o":"m 639 521 l 653 715 b 435 764 596 744 506 764 b 118 551 238 764 135 669 b 294 299 100 422 153 364 b 417 157 410 247 422 197 b 306 56 407 89 353 56 b 143 243 261 56 167 69 l 89 243 l 75 40 b 311 -14 131 7 235 -14 b 642 225 482 -14 622 82 b 418 500 661 361 604 418 b 335 610 371 521 326 551 b 432 694 343 669 394 694 b 588 521 514 694 560 642 z "},"":{"ha":750,"x_min":0,"x_max":0,"o":"m 819 750 l 797 542 l 749 542 b 624 688 751 654 700 688 l 582 688 l 507 153 b 575 42 496 76 521 56 l 569 0 l 181 0 l 186 42 b 285 153 243 56 274 76 l 360 688 l 318 688 b 151 542 242 688 182 654 l 103 542 l 139 750 z "},"":{"ha":972,"x_min":0,"x_max":0,"o":"m 792 347 b 531 69 765 167 690 69 b 382 347 413 69 353 139 l 417 597 b 515 708 428 674 458 694 l 521 750 l 132 750 l 126 708 b 194 597 181 694 206 674 l 157 333 b 476 -14 125 107 247 -14 b 865 333 661 -14 832 97 l 903 597 b 1043 708 914 674 944 694 l 1049 750 l 715 750 l 710 708 b 826 597 819 694 838 674 z "},"":{"ha":819,"x_min":0,"x_max":0,"o":"m 164 625 b 99 708 150 671 138 688 l 104 750 l 479 750 l 474 708 b 415 583 403 694 397 653 l 510 231 l 513 231 l 686 583 b 613 708 721 654 710 694 l 618 750 l 924 750 l 918 708 b 789 625 849 694 817 681 l 463 -7 l 346 -7 z "},"":{"ha":1222,"x_min":0,"x_max":0,"o":"m 622 625 b 557 708 613 672 596 688 l 563 750 l 938 750 l 932 708 b 860 583 861 694 849 657 l 913 231 l 915 231 l 1089 583 b 1015 708 1125 654 1113 694 l 1021 750 l 1326 750 l 1321 708 b 1192 625 1251 694 1219 681 l 865 -7 l 749 -7 l 661 451 l 426 -7 l 311 -7 l 164 625 b 99 708 153 672 138 688 l 104 750 l 479 750 l 474 708 b 415 583 403 694 401 654 l 476 231 l 479 231 l 640 538 z "},"":{"ha":861,"x_min":0,"x_max":0,"o":"m 228 639 b 140 708 204 686 194 694 l 146 750 l 507 750 l 501 708 b 486 597 444 694 450 660 l 542 500 l 626 583 b 626 708 682 639 711 694 l 632 750 l 917 750 l 911 708 b 758 639 835 694 803 685 l 571 440 l 751 111 b 839 42 778 63 799 56 l 833 0 l 458 0 l 464 42 b 486 153 521 56 522 92 l 417 272 l 308 153 b 317 42 254 93 229 56 l 311 0 l 28 0 l 33 42 b 192 111 110 56 149 63 l 385 331 z "},"":{"ha":778,"x_min":0,"x_max":0,"o":"m 164 625 b 85 708 144 669 124 688 l 90 750 l 451 750 l 446 708 b 408 583 375 694 382 650 l 503 333 l 506 333 l 650 576 b 585 708 690 644 682 694 l 590 750 l 896 750 l 890 708 b 754 625 821 694 786 681 l 561 293 l 542 153 b 610 42 531 76 556 56 l 604 0 l 215 0 l 221 42 b 319 153 278 56 308 76 l 329 226 z "},"":{"ha":743,"x_min":0,"x_max":0,"o":"m 293 63 l 481 63 b 682 208 564 63 651 96 l 731 208 l 688 0 l 35 0 l 44 69 l 547 688 l 383 688 b 189 542 304 688 219 654 l 140 542 l 176 750 l 792 750 l 781 667 z "},"₡":{"ha":889,"x_min":0,"x_max":0,"o":"m 653 -139 l 576 -139 l 596 -10 b 525 -14 572 -12 549 -14 b 436 -7 493 -14 464 -11 l 417 -139 l 340 -139 l 363 11 b 110 486 174 75 76 254 b 496 960 142 718 289 896 l 517 1111 l 593 1111 l 575 979 b 665 986 604 983 633 986 b 735 982 689 986 713 985 l 753 1111 l 829 1111 l 808 968 b 974 903 882 951 942 924 l 958 694 l 910 694 b 656 917 897 806 822 917 b 346 486 503 917 382 750 b 535 56 308 222 382 56 b 851 278 701 56 807 167 l 900 278 l 857 69 b 674 3 818 47 751 21 z "},"":{"ha":1778,"x_min":0,"x_max":0,"o":"m 1239 28 b 1365 -14 1271 0 1314 -14 b 1771 347 1546 -14 1739 125 b 1529 708 1800 556 1710 708 b 1324 611 1446 708 1379 674 l 1321 611 l 1339 708 l 1328 708 l 1035 646 l 1029 604 b 1083 500 1068 590 1093 569 l 1019 49 b 832 194 954 61 882 97 l 700 443 b 932 708 854 492 918 604 b 650 972 954 861 858 972 l 206 972 l 200 931 b 267 819 253 917 278 896 l 174 153 b 75 42 163 76 132 56 l 69 0 l 458 0 l 464 42 b 396 153 410 56 385 76 l 433 417 l 482 417 l 590 153 b 681 0 613 97 656 28 l 1014 0 l 983 -208 b 899 -319 974 -285 957 -306 l 893 -361 l 1268 -361 l 1274 -319 b 1206 -208 1221 -306 1196 -285 z m 1415 590 b 1542 347 1499 590 1560 528 b 1354 56 1522 160 1451 56 b 1268 229 1313 56 1246 69 l 1313 553 b 1415 590 1344 576 1381 590 z m 442 479 l 503 910 l 586 910 b 701 694 697 910 717 806 b 497 479 683 572 636 479 z "},"":{"ha":764,"x_min":0,"x_max":0,"o":"m 278 847 b 390 903 304 874 340 903 b 611 847 456 903 546 847 b 794 1014 675 847 757 956 l 750 1042 b 640 1000 724 1014 689 1000 b 425 1056 586 1000 481 1056 b 233 875 361 1056 271 935 z "},"":{"ha":444,"x_min":0,"x_max":0,"o":"m 214 663 b 329 764 221 718 274 764 b 417 663 385 764 424 718 b 300 561 408 607 356 561 b 214 663 244 561 206 607 z m 317 472 l 336 108 b 221 -14 342 32 290 -14 b 133 108 151 -14 107 32 l 261 472 z "},"":{"ha":833,"x_min":0,"x_max":0,"o":"m 628 889 l 611 763 b 844 681 729 756 799 713 l 829 472 l 781 472 b 601 693 769 578 714 683 l 511 56 b 754 278 651 64 713 171 l 803 278 l 760 69 b 501 -12 703 38 622 -6 l 483 -139 l 407 -139 l 425 -12 b 107 375 244 1 69 104 b 535 763 146 644 349 749 l 551 889 z m 343 375 b 436 65 315 169 371 90 l 524 685 b 343 375 450 660 372 579 z "},"":{"ha":750,"x_min":0,"x_max":0,"o":"m 97 403 l 89 340 l 172 340 l 146 153 b 47 42 135 76 104 56 l 42 0 l 722 0 l 765 208 l 717 208 b 515 63 686 96 592 63 l 356 63 l 394 340 l 492 340 l 500 403 l 403 403 l 431 597 b 529 708 442 674 472 694 l 535 750 l 146 750 l 140 708 b 208 597 194 694 219 674 l 181 403 z "},"":{"ha":660,"x_min":0,"x_max":0,"o":"m 639 521 l 653 715 b 435 764 596 744 506 764 b 118 551 238 764 135 669 b 294 299 100 422 153 364 b 417 157 410 247 422 197 b 306 56 407 89 353 56 b 143 243 261 56 167 69 l 89 243 l 75 40 b 311 -14 131 7 235 -14 b 642 225 482 -14 622 82 b 418 500 661 361 604 418 b 335 610 371 521 326 551 b 432 694 343 669 394 694 b 588 521 514 694 560 642 z m 457 965 l 617 1069 l 686 1069 l 478 819 l 394 819 l 256 1069 l 325 1069 z "},"":{"ha":743,"x_min":0,"x_max":0,"o":"m 293 63 l 481 63 b 682 208 564 63 651 96 l 731 208 l 688 0 l 35 0 l 44 69 l 547 688 l 383 688 b 189 542 304 688 219 654 l 140 542 l 176 750 l 792 750 l 781 667 z m 517 965 l 676 1069 l 746 1069 l 538 819 l 454 819 l 315 1069 l 385 1069 z "},"":{"ha":694,"x_min":0,"x_max":0,"o":"m 251 924 b 328 836 244 871 278 836 b 431 924 379 836 424 871 b 353 1014 438 976 404 1014 b 251 924 303 1014 258 976 z m 522 924 b 600 836 515 871 549 836 b 701 924 650 836 694 871 b 625 1014 708 976 675 1014 b 522 924 574 1014 529 976 z "},"":{"ha":625,"x_min":0,"x_max":0,"o":"m 433 861 b 275 1071 308 861 261 969 l 342 1071 b 450 983 347 1000 407 983 b 583 1071 493 983 558 1000 l 650 1071 b 433 861 636 969 558 861 z "},"":{"ha":653,"x_min":0,"x_max":0,"o":"m 464 979 l 624 1083 l 693 1083 l 485 833 l 401 833 l 263 1083 l 332 1083 z "},"":{"ha":436,"x_min":0,"x_max":0,"o":"m 254 940 b 336 844 246 886 282 844 b 446 940 390 844 438 886 b 363 1036 453 994 417 1036 b 254 940 308 1036 261 994 z "},"":{"ha":708,"x_min":0,"x_max":0,"o":"m 260 965 l 249 889 l 707 889 l 718 965 z "},"‒":{"ha":847,"x_min":0,"x_max":0,"o":"m 182 410 l 171 333 l 768 333 l 779 410 z "},"":{"ha":556,"x_min":0,"x_max":0,"o":"m 24 28 l 15 -35 l 529 -35 l 538 28 z "},"":{"ha":500,"x_min":0,"x_max":0,"o":"m 343 -222 b 313 0 161 -293 181 -108 l 250 0 b 203 -326 40 -135 32 -326 b 336 -271 244 -326 307 -303 z "},"":{"ha":521,"x_min":0,"x_max":0,"o":"m 260 954 b 375 821 249 878 299 821 b 528 954 450 821 517 878 b 413 1089 539 1029 488 1089 b 260 954 336 1089 271 1029 z m 318 954 b 404 1031 324 997 363 1031 b 469 954 447 1031 475 997 b 382 879 464 913 425 879 b 318 954 340 879 313 913 z "},"":{"ha":517,"x_min":0,"x_max":0,"o":"m 185 0 l 169 -69 b 213 -215 151 -160 222 -142 b 82 -306 204 -274 125 -292 l 86 -368 b 363 -197 189 -354 349 -285 b 228 -56 381 -75 221 -106 l 236 0 z "},"":{"ha":615,"x_min":0,"x_max":0,"o":"m 204 181 b 397 238 211 235 325 222 b 460 472 543 269 485 425 l 397 472 b 317 375 400 419 358 388 b 139 208 199 338 147 271 b 346 -8 119 76 272 8 b 475 175 519 -49 571 143 b 204 181 393 203 189 78 z m 554 663 b 467 764 561 718 522 764 b 351 663 411 764 358 718 b 438 561 343 607 382 561 b 554 663 493 561 546 607 z "},"⅛":{"ha":1250,"x_min":0,"x_max":0,"o":"m 403 981 l 394 981 l 200 931 l 197 910 b 285 860 276 910 292 906 l 238 518 b 132 451 231 472 217 460 l 129 431 l 421 431 l 424 451 b 338 518 342 460 331 472 z m 953 986 l 479 -14 l 424 -14 l 899 986 z m 1133 418 b 1063 508 1142 482 1110 508 b 972 426 1019 508 979 479 b 1068 307 965 376 994 338 b 1133 418 1103 326 1126 369 z m 1099 118 b 983 247 1107 172 1067 213 b 910 138 942 219 917 183 b 993 21 900 63 933 21 b 1099 118 1054 21 1092 63 z m 1200 142 b 981 -14 1186 40 1082 -14 b 815 131 879 -14 801 32 b 956 263 824 189 879 239 b 874 403 889 303 867 351 b 1072 544 886 493 982 544 b 1217 414 1156 544 1229 500 b 1093 293 1210 365 1167 315 b 1200 142 1183 251 1208 206 z "},"⅜":{"ha":1250,"x_min":0,"x_max":0,"o":"m 953 986 l 479 -14 l 424 -14 l 899 986 z m 1133 418 b 1063 508 1142 482 1110 508 b 972 426 1019 508 979 479 b 1068 307 965 376 994 338 b 1133 418 1103 326 1126 369 z m 1099 118 b 983 247 1107 172 1067 213 b 910 138 942 219 917 183 b 993 21 900 63 933 21 b 1099 118 1054 21 1092 63 z m 1200 142 b 981 -14 1186 40 1082 -14 b 815 131 879 -14 801 32 b 956 263 824 189 879 239 b 874 403 889 303 867 351 b 1072 544 886 493 982 544 b 1217 414 1156 544 1229 500 b 1093 293 1210 365 1167 315 b 1200 142 1183 251 1208 206 z m 292 451 b 240 536 246 451 232 475 b 201 571 242 553 232 571 b 146 535 174 571 151 557 b 283 417 126 463 182 417 b 514 576 403 417 499 469 b 389 713 526 665 461 703 l 389 714 b 531 851 468 732 521 786 b 382 975 540 925 482 975 b 207 857 279 975 210 924 b 251 821 207 831 229 821 b 299 857 282 821 300 840 b 369 939 297 918 324 939 b 432 849 408 939 440 907 b 306 726 421 767 372 726 l 293 726 l 289 693 l 315 693 b 407 581 382 693 417 651 b 292 451 396 497 357 451 z "},"⅝":{"ha":1250,"x_min":0,"x_max":0,"o":"m 953 986 l 479 -14 l 424 -14 l 899 986 z m 1133 418 b 1063 508 1142 482 1110 508 b 972 426 1019 508 979 479 b 1068 307 965 376 994 338 b 1133 418 1103 326 1126 369 z m 1099 118 b 983 247 1107 172 1067 213 b 910 138 942 219 917 183 b 993 21 900 63 933 21 b 1099 118 1054 21 1092 63 z m 1200 142 b 981 -14 1186 40 1082 -14 b 815 131 879 -14 801 32 b 956 263 824 189 879 239 b 874 403 889 303 867 351 b 1072 544 886 493 982 544 b 1217 414 1156 544 1229 500 b 1093 293 1210 365 1167 315 b 1200 142 1183 251 1208 206 z m 219 721 l 276 721 b 411 579 390 721 422 656 b 289 456 400 496 351 456 b 242 536 249 456 228 476 b 203 571 244 553 233 571 b 142 521 167 571 146 550 b 285 417 135 468 188 417 b 517 588 414 417 503 488 b 265 761 526 658 492 788 l 286 888 l 538 888 l 549 967 l 263 967 z "},"⅞":{"ha":1250,"x_min":0,"x_max":0,"o":"m 897 986 l 424 -14 l 368 -14 l 843 986 z m 1133 418 b 1063 508 1142 482 1110 508 b 972 426 1019 508 979 479 b 1068 307 965 376 994 338 b 1133 418 1103 326 1126 369 z m 1099 118 b 983 247 1107 172 1067 213 b 910 138 942 219 917 183 b 993 21 900 63 933 21 b 1099 118 1054 21 1092 63 z m 1200 142 b 981 -14 1186 40 1082 -14 b 815 131 879 -14 801 32 b 956 263 824 189 879 239 b 874 403 889 303 867 351 b 1072 544 886 493 982 544 b 1217 414 1156 544 1229 500 b 1093 293 1210 365 1167 315 b 1200 142 1183 251 1208 206 z m 299 431 l 182 431 l 499 893 l 290 893 b 210 826 235 893 226 882 l 185 826 l 210 972 l 564 972 l 560 939 l 299 431 z "},"⅓":{"ha":1250,"x_min":0,"x_max":0,"o":"m 979 21 b 926 106 933 21 918 44 b 889 140 929 122 919 140 b 832 104 861 140 838 126 b 969 -14 814 32 868 -14 b 1200 146 1089 -14 1185 39 b 1075 282 1213 235 1147 272 l 1075 283 b 1217 421 1154 301 1207 356 b 1069 544 1228 494 1169 544 b 894 426 967 544 896 493 b 938 390 893 400 915 390 b 986 426 968 390 986 410 b 1056 508 985 488 1010 508 b 1119 418 1094 508 1128 476 b 992 296 1108 336 1058 296 l 979 296 l 975 263 l 1001 263 b 1094 150 1068 263 1104 221 b 979 21 1082 67 1044 21 z m 403 981 l 394 981 l 200 931 l 197 910 b 285 860 276 910 292 906 l 238 518 b 132 451 231 472 217 460 l 129 431 l 421 431 l 424 451 b 338 518 342 460 331 472 z m 953 986 l 479 -14 l 424 -14 l 899 986 z "},"⅔":{"ha":1250,"x_min":0,"x_max":0,"o":"m 979 21 b 926 106 933 21 918 44 b 889 140 929 122 919 140 b 832 104 861 140 838 126 b 969 -14 814 32 868 -14 b 1200 146 1089 -14 1185 39 b 1075 282 1213 235 1147 272 l 1075 283 b 1217 421 1154 301 1207 356 b 1069 544 1228 494 1169 544 b 894 426 967 544 896 493 b 938 390 893 400 915 390 b 986 426 968 390 986 410 b 1056 508 985 488 1010 508 b 1119 418 1094 508 1128 476 b 992 296 1108 336 1058 296 l 979 296 l 975 263 l 1001 263 b 1094 150 1068 263 1104 221 b 979 21 1082 67 1044 21 z m 981 986 l 507 -14 l 451 -14 l 926 986 z m 381 944 b 307 863 332 944 311 924 b 258 826 306 846 289 826 b 214 876 225 826 210 847 b 394 981 222 929 282 981 b 540 832 503 981 550 906 b 244 510 531 764 496 668 l 499 510 l 488 431 l 129 431 l 133 464 b 439 822 392 635 428 747 b 381 944 447 889 435 944 z "},"⁰":{"ha":556,"x_min":0,"x_max":0,"o":"m 206 974 b 375 694 185 828 233 694 b 622 974 517 694 603 832 b 453 1253 642 1115 594 1253 b 206 974 311 1253 225 1115 z m 314 974 b 449 1217 335 1119 369 1217 b 514 974 528 1217 535 1119 b 379 729 493 828 458 729 b 314 974 300 729 293 828 z "},"⁴":{"ha":556,"x_min":0,"x_max":0,"o":"m 438 892 l 475 1158 l 226 892 z m 601 825 l 528 825 l 511 708 l 411 708 l 428 825 l 185 825 l 196 906 l 524 1258 l 589 1258 l 538 892 l 611 892 z "},"⁵":{"ha":556,"x_min":0,"x_max":0,"o":"m 285 999 l 342 999 b 475 857 456 999 486 933 b 353 733 464 774 415 733 b 306 814 313 733 292 754 b 267 849 310 831 297 849 b 206 799 231 849 210 828 b 349 694 199 746 251 694 b 581 865 478 694 567 765 b 329 1039 590 936 556 1065 l 350 1165 l 601 1165 l 613 1244 l 326 1244 z "},"⁶":{"ha":556,"x_min":0,"x_max":0,"o":"m 483 869 b 415 1001 496 953 471 1001 b 326 967 388 1001 354 989 b 381 729 294 847 308 729 b 483 869 432 729 471 775 z m 593 878 b 375 694 578 767 475 694 b 211 914 250 694 194 796 b 563 1261 236 1092 382 1228 l 565 1232 b 331 1003 414 1190 358 1090 b 460 1047 379 1039 424 1047 b 593 878 556 1047 607 969 z "},"⁷":{"ha":556,"x_min":0,"x_max":0,"o":"m 367 708 l 250 708 l 567 1171 l 358 1171 b 278 1104 303 1171 294 1160 l 253 1104 l 278 1250 l 632 1250 l 628 1217 l 367 708 z "},"⁸":{"ha":556,"x_min":0,"x_max":0,"o":"m 521 1126 b 451 1217 531 1190 499 1217 b 360 1135 408 1217 368 1188 b 456 1015 353 1085 382 1046 b 521 1126 490 1035 515 1078 z m 488 826 b 371 956 496 881 456 921 b 299 846 329 928 306 892 b 381 729 289 771 321 729 b 488 826 442 729 481 771 z m 589 850 b 369 694 574 749 471 694 b 203 839 268 694 189 740 b 344 971 211 897 267 947 b 263 1111 278 1011 256 1060 b 460 1253 275 1201 369 1253 b 606 1122 543 1253 618 1208 b 482 1001 599 1074 556 1024 b 589 850 572 960 597 914 z "},"⁹":{"ha":556,"x_min":0,"x_max":0,"o":"m 342 1072 b 411 939 331 989 356 939 b 499 975 439 939 472 953 b 444 1211 531 1094 517 1211 b 342 1072 393 1211 356 1167 z m 232 1064 b 451 1247 247 1175 351 1247 b 615 1028 576 1247 631 1146 b 263 681 590 850 444 714 l 260 710 b 496 939 413 751 467 851 b 365 894 447 903 401 894 b 232 1064 269 894 219 972 z "},"₀":{"ha":556,"x_min":0,"x_max":0,"o":"m 67 -12 b 236 -292 46 -158 94 -292 b 483 -12 378 -292 464 -154 b 314 267 504 129 456 267 b 67 -12 172 267 88 129 z m 175 -12 b 310 231 196 133 231 231 b 375 -12 389 231 396 133 b 240 -257 354 -158 319 -257 b 175 -12 161 -257 154 -158 z "},"₁":{"ha":556,"x_min":0,"x_max":0,"o":"m 365 272 l 357 272 l 163 222 l 160 201 b 249 151 239 201 254 197 l 200 -190 b 94 -257 194 -236 179 -249 l 92 -278 l 383 -278 l 386 -257 b 300 -190 304 -249 294 -236 z "},"₂":{"ha":556,"x_min":0,"x_max":0,"o":"m 310 236 b 236 154 261 236 240 215 b 188 118 235 138 218 118 b 144 168 154 118 140 139 b 324 272 151 221 211 272 b 469 124 432 272 479 197 b 174 -199 460 56 425 -40 l 428 -199 l 417 -278 l 58 -278 l 64 -244 b 368 114 321 -74 357 39 b 310 236 378 181 364 236 z "},"₃":{"ha":556,"x_min":0,"x_max":0,"o":"m 218 -257 b 167 -172 172 -257 158 -233 b 129 -137 169 -156 160 -137 b 72 -174 101 -137 78 -151 b 210 -292 54 -246 108 -292 b 440 -132 329 -292 425 -239 b 315 4 453 -43 388 -6 l 315 6 b 457 143 394 24 447 78 b 308 267 467 217 408 267 b 135 149 206 267 136 215 b 178 113 133 122 156 113 b 226 149 208 113 226 132 b 296 231 225 210 250 231 b 360 140 335 231 368 199 b 232 18 347 58 299 18 l 219 18 l 215 -15 l 242 -15 b 335 -128 308 -15 344 -57 b 218 -257 322 -211 283 -257 z "},"₄":{"ha":556,"x_min":0,"x_max":0,"o":"m 299 -94 l 336 172 l 88 -94 z m 463 -161 l 389 -161 l 372 -278 l 272 -278 l 289 -161 l 46 -161 l 57 -81 l 385 272 l 450 272 l 399 -94 l 472 -94 z "},"₅":{"ha":556,"x_min":0,"x_max":0,"o":"m 146 13 l 203 13 b 336 -129 317 13 347 -53 b 214 -253 325 -212 276 -253 b 167 -172 174 -253 153 -232 b 129 -137 171 -156 160 -137 b 68 -187 93 -137 71 -158 b 210 -292 60 -240 113 -292 b 442 -121 339 -292 428 -221 b 190 53 451 -50 418 79 l 213 179 l 464 179 l 475 258 l 189 258 z "},"₆":{"ha":556,"x_min":0,"x_max":0,"o":"m 346 -117 b 276 15 357 -33 332 15 b 189 -19 249 15 215 3 b 242 -257 156 -139 169 -257 b 346 -117 293 -257 332 -211 z m 456 -108 b 236 -292 439 -219 336 -292 b 72 -72 111 -292 56 -190 b 424 275 97 106 243 242 l 426 246 b 192 17 275 204 219 104 b 322 61 240 53 286 61 b 456 -108 418 61 468 -17 z "},"₇":{"ha":556,"x_min":0,"x_max":0,"o":"m 228 -278 l 111 -278 l 428 185 l 219 185 b 139 118 164 185 156 174 l 114 118 l 139 264 l 493 264 l 489 231 l 228 -278 z "},"₈":{"ha":556,"x_min":0,"x_max":0,"o":"m 383 140 b 313 231 392 204 360 231 b 222 149 269 231 229 201 b 317 29 214 99 244 60 b 383 140 351 49 376 92 z m 349 -160 b 232 -31 357 -106 317 -65 b 160 -140 192 -58 167 -94 b 242 -257 150 -215 182 -257 b 349 -160 303 -257 342 -215 z m 450 -136 b 231 -292 435 -237 332 -292 b 65 -147 129 -292 51 -246 b 206 -15 74 -89 129 -39 b 124 125 139 25 117 74 b 321 267 136 215 231 267 b 467 136 404 267 479 222 b 343 15 460 88 417 38 b 450 -136 433 -26 458 -72 z "},"₉":{"ha":556,"x_min":0,"x_max":0,"o":"m 203 86 b 272 -47 192 3 217 -47 b 360 -11 300 -47 333 -33 b 306 225 392 108 378 225 b 203 86 254 225 217 181 z m 93 78 b 313 261 110 189 213 261 b 476 42 438 261 493 160 b 125 -306 451 -136 306 -272 l 122 -276 b 357 -47 274 -235 328 -135 b 226 -92 308 -83 263 -92 b 93 78 131 -92 81 -14 z "},"":{"ha":556,"x_min":0,"x_max":0,"o":"m 276 -431 l 228 -431 l 247 -289 b 36 -12 100 -278 14 -176 b 325 264 60 150 175 251 l 346 406 l 394 406 l 374 265 b 539 215 450 263 508 233 l 528 96 l 504 96 b 353 231 497 161 456 231 b 144 -12 250 231 167 147 b 285 -256 122 -171 182 -256 b 474 -121 388 -256 449 -187 l 497 -121 l 475 -242 b 296 -290 439 -261 372 -287 z "},"":{"ha":556,"x_min":0,"x_max":0,"o":"m 361 406 l 313 406 l 292 265 b 113 124 193 257 124 200 b 243 -46 99 28 164 -10 b 343 -160 300 -72 353 -96 b 225 -254 335 -221 282 -254 b 99 -101 164 -254 94 -225 l 74 -101 l 67 -250 b 214 -290 101 -276 158 -289 l 194 -431 l 243 -431 l 263 -289 b 449 -124 358 -279 435 -224 b 301 49 463 -25 381 15 b 218 149 246 72 210 94 b 322 228 226 211 282 228 b 432 86 394 228 428 186 l 457 86 l 469 229 b 340 265 432 250 385 263 z "},"":{"ha":556,"x_min":0,"x_max":0,"o":"m 174 -221 b 236 -292 168 -258 197 -292 b 317 -221 275 -292 311 -258 b 256 -149 322 -182 294 -149 b 174 -221 217 -149 179 -182 z "},"":{"ha":556,"x_min":0,"x_max":0,"o":"m 244 -154 b 169 -219 210 -154 175 -185 b 225 -286 164 -261 192 -286 b 142 -426 279 -286 240 -385 l 153 -454 b 317 -261 217 -433 303 -360 b 244 -154 322 -218 317 -154 z "},"":{"ha":819,"x_min":0,"x_max":0,"o":"m 511 833 l 542 860 l 436 1069 b 325 983 393 1153 243 1050 z m 760 125 b 825 42 774 79 786 63 l 819 0 l 444 0 l 450 42 b 508 167 521 56 526 97 l 492 229 l 269 229 l 238 167 b 311 42 203 96 214 56 l 306 0 l 0 0 l 6 42 b 135 125 75 56 107 69 l 463 757 l 578 757 z m 411 519 l 299 292 l 472 292 l 414 519 z "},"":{"ha":819,"x_min":0,"x_max":0,"o":"m 521 833 l 496 860 l 663 1069 b 749 983 728 1153 850 1050 z m 760 125 b 825 42 774 79 786 63 l 819 0 l 444 0 l 450 42 b 508 167 521 56 526 97 l 492 229 l 269 229 l 238 167 b 311 42 203 96 214 56 l 306 0 l 0 0 l 6 42 b 135 125 75 56 107 69 l 463 757 l 578 757 z m 411 519 l 299 292 l 472 292 l 414 519 z "},"":{"ha":819,"x_min":0,"x_max":0,"o":"m 528 938 l 660 833 l 729 833 l 590 1083 l 507 1083 l 299 833 l 368 833 z m 760 125 b 825 42 774 79 786 63 l 819 0 l 444 0 l 450 42 b 508 167 521 56 526 97 l 492 229 l 269 229 l 238 167 b 311 42 203 96 214 56 l 306 0 l 0 0 l 6 42 b 135 125 75 56 107 69 l 463 757 l 578 757 z m 411 519 l 299 292 l 472 292 l 414 519 z "},"":{"ha":819,"x_min":0,"x_max":0,"o":"m 294 847 b 407 903 321 874 357 903 b 628 847 472 903 563 847 b 811 1014 692 847 774 956 l 767 1042 b 657 1000 740 1014 706 1000 b 442 1056 603 1000 497 1056 b 250 875 378 1056 288 935 z m 760 125 b 825 42 774 79 786 63 l 819 0 l 444 0 l 450 42 b 508 167 521 56 526 97 l 492 229 l 269 229 l 238 167 b 311 42 203 96 214 56 l 306 0 l 0 0 l 6 42 b 135 125 75 56 107 69 l 463 757 l 578 757 z m 411 519 l 299 292 l 472 292 l 414 519 z "},"":{"ha":819,"x_min":0,"x_max":0,"o":"m 304 924 b 381 836 297 871 331 836 b 483 924 432 836 476 871 b 406 1014 490 976 457 1014 b 304 924 356 1014 311 976 z m 575 924 b 653 836 568 871 601 836 b 754 924 703 836 747 871 b 678 1014 761 976 728 1014 b 575 924 626 1014 582 976 z m 760 125 b 825 42 774 79 786 63 l 819 0 l 444 0 l 450 42 b 508 167 521 56 526 97 l 492 229 l 269 229 l 238 167 b 311 42 203 96 214 56 l 306 0 l 0 0 l 6 42 b 135 125 75 56 107 69 l 463 757 l 578 757 z m 411 519 l 299 292 l 472 292 l 414 519 z "},"":{"ha":819,"x_min":0,"x_max":0,"o":"m 400 864 b 553 999 411 939 476 999 b 668 864 628 999 679 939 b 581 746 661 811 625 768 l 760 125 b 825 42 774 79 786 63 l 819 0 l 444 0 l 450 42 b 508 167 521 56 526 97 l 493 222 l 265 222 l 238 167 b 311 42 203 96 214 56 l 306 0 l 0 0 l 6 42 b 135 125 75 56 107 69 l 456 743 b 400 864 415 765 392 810 z m 411 519 l 303 299 l 474 299 l 414 519 z m 458 864 b 522 789 453 822 481 789 b 610 864 565 789 604 822 b 544 940 615 907 588 940 b 458 864 503 940 464 907 z "},"":{"ha":1042,"x_min":0,"x_max":0,"o":"m 724 410 l 751 410 b 864 542 786 410 836 431 l 913 542 l 867 215 l 818 215 b 743 347 822 326 778 347 l 715 347 l 675 63 l 779 63 b 981 208 856 63 950 96 l 1029 208 l 986 0 l 361 0 l 367 42 b 465 153 424 56 454 76 l 483 278 l 339 278 l 258 167 b 297 42 210 96 203 56 l 292 0 l 0 0 l 6 42 b 147 125 76 56 108 69 l 600 750 l 1076 750 l 1054 542 l 1006 542 b 853 688 1008 654 929 688 l 763 688 z m 515 526 l 382 340 l 492 340 l 518 526 z "},"":{"ha":778,"x_min":0,"x_max":0,"o":"m 479 56 b 740 278 632 56 696 167 l 789 278 l 746 69 b 467 -14 686 35 599 -11 l 461 -56 b 596 -197 454 -106 614 -75 b 319 -368 582 -285 422 -354 l 315 -306 b 446 -215 358 -292 438 -274 b 403 -69 456 -142 385 -160 l 414 -12 b 93 375 233 0 56 103 b 565 764 135 667 371 764 b 831 681 704 764 781 715 l 815 472 l 767 472 b 569 694 756 583 694 694 b 329 375 486 694 367 639 b 479 56 293 111 396 56 z "},"":{"ha":778,"x_min":0,"x_max":0,"o":"m 443 688 l 589 688 b 742 542 665 688 744 654 l 790 542 l 813 750 l 146 750 l 140 708 b 208 597 194 694 219 674 l 146 153 b 47 42 135 76 104 56 l 42 0 l 722 0 l 765 208 l 717 208 b 515 63 686 96 592 63 l 356 63 l 396 347 l 424 347 b 554 215 500 347 558 326 l 603 215 l 649 542 l 600 542 b 432 410 572 431 508 410 l 404 410 z m 540 833 l 571 860 l 465 1069 b 354 983 422 1153 272 1050 z "},"":{"ha":778,"x_min":0,"x_max":0,"o":"m 443 688 l 589 688 b 742 542 665 688 744 654 l 790 542 l 813 750 l 146 750 l 140 708 b 208 597 194 694 219 674 l 146 153 b 47 42 135 76 104 56 l 42 0 l 722 0 l 765 208 l 717 208 b 515 63 686 96 592 63 l 356 63 l 396 347 l 424 347 b 554 215 500 347 558 326 l 603 215 l 649 542 l 600 542 b 432 410 572 431 508 410 l 404 410 z m 544 833 l 519 860 l 686 1069 b 772 983 751 1153 874 1050 z "},"":{"ha":778,"x_min":0,"x_max":0,"o":"m 443 688 l 589 688 b 742 542 665 688 744 654 l 790 542 l 813 750 l 146 750 l 140 708 b 208 597 194 694 219 674 l 146 153 b 47 42 135 76 104 56 l 42 0 l 722 0 l 765 208 l 717 208 b 515 63 686 96 592 63 l 356 63 l 396 347 l 424 347 b 554 215 500 347 558 326 l 603 215 l 649 542 l 600 542 b 432 410 572 431 508 410 l 404 410 z m 564 938 l 696 833 l 765 833 l 626 1083 l 543 1083 l 335 833 l 404 833 z "},"":{"ha":778,"x_min":0,"x_max":0,"o":"m 443 688 l 589 688 b 742 542 665 688 744 654 l 790 542 l 813 750 l 146 750 l 140 708 b 208 597 194 694 219 674 l 146 153 b 47 42 135 76 104 56 l 42 0 l 722 0 l 765 208 l 717 208 b 515 63 686 96 592 63 l 356 63 l 396 347 l 424 347 b 554 215 500 347 558 326 l 603 215 l 649 542 l 600 542 b 432 410 572 431 508 410 l 404 410 z m 329 924 b 406 836 322 871 356 836 b 508 924 457 836 501 871 b 431 1014 515 976 482 1014 b 329 924 381 1014 336 976 z m 600 924 b 678 836 593 871 626 836 b 779 924 728 836 772 871 b 703 1014 786 976 753 1014 b 600 924 651 1014 607 976 z "},"":{"ha":472,"x_min":0,"x_max":0,"o":"m 449 597 b 547 708 460 674 490 694 l 553 750 l 164 750 l 158 708 b 226 597 213 694 238 674 l 164 153 b 65 42 153 76 122 56 l 60 0 l 449 0 l 454 42 b 386 153 400 56 375 76 z m 374 833 l 404 860 l 299 1069 b 188 983 256 1153 106 1050 z "},"":{"ha":472,"x_min":0,"x_max":0,"o":"m 431 597 b 529 708 442 674 472 694 l 535 750 l 146 750 l 140 708 b 208 597 194 694 219 674 l 146 153 b 47 42 135 76 104 56 l 42 0 l 431 0 l 436 42 b 368 153 382 56 357 76 z m 347 833 l 322 860 l 489 1069 b 575 983 554 1153 676 1050 z "},"":{"ha":472,"x_min":0,"x_max":0,"o":"m 429 597 b 528 708 440 674 471 694 l 533 750 l 144 750 l 139 708 b 207 597 193 694 218 674 l 144 153 b 46 42 133 76 103 56 l 40 0 l 429 0 l 435 42 b 367 153 381 56 356 76 z m 367 938 l 499 833 l 568 833 l 429 1083 l 346 1083 l 138 833 l 207 833 z "},"":{"ha":472,"x_min":0,"x_max":0,"o":"m 433 597 b 532 708 444 674 475 694 l 538 750 l 149 750 l 143 708 b 211 597 197 694 222 674 l 149 153 b 50 42 138 76 107 56 l 44 0 l 433 0 l 439 42 b 371 153 385 56 360 76 z m 140 924 b 217 836 133 871 167 836 b 319 924 268 836 313 871 b 242 1014 326 976 293 1014 b 140 924 192 1014 147 976 z m 411 924 b 489 836 404 871 438 836 b 590 924 539 836 583 871 b 514 1014 597 976 564 1014 b 411 924 463 1014 418 976 z "},"":{"ha":917,"x_min":0,"x_max":0,"o":"m 389 0 b 926 375 688 0 893 131 b 493 750 964 639 792 750 l 146 750 l 140 708 b 208 597 194 694 219 674 l 182 410 l 99 410 l 90 347 l 174 347 l 146 153 b 47 42 135 76 104 56 l 42 0 z m 356 63 l 396 347 l 521 347 l 529 410 l 404 410 l 443 688 l 471 688 b 690 375 676 688 721 590 b 397 63 665 197 594 63 z "},"":{"ha":931,"x_min":0,"x_max":0,"o":"m 749 292 l 465 750 l 146 750 l 140 708 b 243 597 222 694 254 674 l 181 153 b 47 42 169 76 132 56 l 42 0 l 361 0 l 367 42 b 257 153 257 56 246 76 l 315 569 l 653 0 l 785 0 l 868 597 b 1001 708 879 674 917 694 l 1007 750 l 688 750 l 682 708 b 792 597 792 694 803 674 z m 374 847 b 486 903 400 874 436 903 b 707 847 551 903 642 847 b 890 1014 771 847 853 956 l 846 1042 b 736 1000 819 1014 785 1000 b 521 1056 682 1000 576 1056 b 329 875 457 1056 367 935 z "},"":{"ha":917,"x_min":0,"x_max":0,"o":"m 93 375 b 456 -14 58 125 236 -14 b 926 375 675 -14 892 125 b 565 764 963 625 785 764 b 93 375 346 764 129 625 z m 329 375 b 556 694 367 639 460 694 b 690 375 651 694 728 639 b 465 56 654 111 561 56 b 329 375 369 56 293 111 z m 574 833 l 604 860 l 499 1069 b 388 983 456 1153 306 1050 z "},"":{"ha":917,"x_min":0,"x_max":0,"o":"m 93 375 b 456 -14 58 125 236 -14 b 926 375 675 -14 892 125 b 565 764 963 625 785 764 b 93 375 346 764 129 625 z m 329 375 b 556 694 367 639 460 694 b 690 375 651 694 728 639 b 465 56 654 111 561 56 b 329 375 369 56 293 111 z m 581 833 l 556 860 l 722 1069 b 808 983 788 1153 910 1050 z "},"":{"ha":917,"x_min":0,"x_max":0,"o":"m 93 375 b 456 -14 58 125 236 -14 b 926 375 675 -14 892 125 b 565 764 963 625 785 764 b 93 375 346 764 129 625 z m 329 375 b 556 694 367 639 460 694 b 690 375 651 694 728 639 b 465 56 654 111 561 56 b 329 375 369 56 293 111 z m 588 938 l 719 833 l 789 833 l 650 1083 l 567 1083 l 358 833 l 428 833 z "},"":{"ha":917,"x_min":0,"x_max":0,"o":"m 93 375 b 456 -14 58 125 236 -14 b 926 375 675 -14 892 125 b 565 764 963 625 785 764 b 93 375 346 764 129 625 z m 329 375 b 556 694 367 639 460 694 b 690 375 651 694 728 639 b 465 56 654 111 561 56 b 329 375 369 56 293 111 z m 358 847 b 471 903 385 874 421 903 b 692 847 536 903 626 847 b 875 1014 756 847 838 956 l 831 1042 b 721 1000 804 1014 769 1000 b 506 1056 667 1000 561 1056 b 314 875 442 1056 351 935 z "},"":{"ha":917,"x_min":0,"x_max":0,"o":"m 93 375 b 456 -14 58 125 236 -14 b 926 375 675 -14 892 125 b 565 764 963 625 785 764 b 93 375 346 764 129 625 z m 329 375 b 556 694 367 639 460 694 b 690 375 651 694 728 639 b 465 56 654 111 561 56 b 329 375 369 56 293 111 z m 367 924 b 443 836 360 871 393 836 b 546 924 494 836 539 871 b 468 1014 553 976 519 1014 b 367 924 418 1014 374 976 z m 638 924 b 715 836 631 871 664 836 b 817 924 765 836 810 871 b 740 1014 824 976 790 1014 b 638 924 689 1014 644 976 z "},"":{"ha":1214,"x_min":0,"x_max":0,"o":"m 879 688 l 1025 688 b 1178 542 1101 688 1181 654 l 1226 542 l 1249 750 l 676 750 b 565 764 646 758 606 764 b 93 375 346 764 129 625 b 456 -14 58 125 236 -14 b 569 0 496 -14 536 -8 l 1158 0 l 1201 208 l 1153 208 b 951 63 1122 96 1028 63 l 792 63 l 832 347 l 860 347 b 990 215 936 347 994 326 l 1039 215 l 1085 542 l 1036 542 b 868 410 1008 431 944 410 l 840 410 z m 329 375 b 556 694 367 639 460 694 b 611 375 651 694 649 639 b 465 56 575 111 561 56 b 329 375 369 56 293 111 z "},"":{"ha":917,"x_min":0,"x_max":0,"o":"m 99 26 l 142 -21 l 222 51 b 456 -14 285 8 367 -14 b 926 375 675 -14 892 125 b 865 635 942 483 917 571 l 942 704 l 901 757 l 819 682 b 565 764 753 736 664 764 b 93 375 346 764 129 625 b 172 93 76 254 110 160 z m 329 375 b 556 694 367 639 460 694 b 694 568 621 694 676 668 l 321 228 b 329 375 319 268 321 315 z m 690 375 b 465 56 654 111 561 56 b 333 151 407 56 356 76 l 700 485 b 690 375 699 453 697 417 z "},"":{"ha":972,"x_min":0,"x_max":0,"o":"m 792 347 b 531 69 765 167 690 69 b 382 347 413 69 353 139 l 417 597 b 515 708 428 674 458 694 l 521 750 l 132 750 l 126 708 b 194 597 181 694 206 674 l 157 333 b 476 -14 125 107 247 -14 b 865 333 661 -14 832 97 l 903 597 b 1043 708 914 674 944 694 l 1049 750 l 715 750 l 710 708 b 826 597 819 694 838 674 z m 625 833 l 656 860 l 550 1069 b 439 983 507 1153 357 1050 z "},"":{"ha":972,"x_min":0,"x_max":0,"o":"m 792 347 b 531 69 765 167 690 69 b 382 347 413 69 353 139 l 417 597 b 515 708 428 674 458 694 l 521 750 l 132 750 l 126 708 b 194 597 181 694 206 674 l 157 333 b 476 -14 125 107 247 -14 b 865 333 661 -14 832 97 l 903 597 b 1043 708 914 674 944 694 l 1049 750 l 715 750 l 710 708 b 826 597 819 694 838 674 z m 633 833 l 608 860 l 775 1069 b 861 983 840 1153 963 1050 z "},"":{"ha":972,"x_min":0,"x_max":0,"o":"m 792 347 b 531 69 765 167 690 69 b 382 347 413 69 353 139 l 417 597 b 515 708 428 674 458 694 l 521 750 l 132 750 l 126 708 b 194 597 181 694 206 674 l 157 333 b 476 -14 125 107 247 -14 b 865 333 661 -14 832 97 l 903 597 b 1043 708 914 674 944 694 l 1049 750 l 715 750 l 710 708 b 826 597 819 694 838 674 z m 649 938 l 781 833 l 850 833 l 711 1083 l 628 1083 l 419 833 l 489 833 z "},"":{"ha":972,"x_min":0,"x_max":0,"o":"m 792 347 b 531 69 765 167 690 69 b 382 347 413 69 353 139 l 417 597 b 515 708 428 674 458 694 l 521 750 l 132 750 l 126 708 b 194 597 181 694 206 674 l 157 333 b 476 -14 125 107 247 -14 b 865 333 661 -14 832 97 l 903 597 b 1043 708 914 674 944 694 l 1049 750 l 715 750 l 710 708 b 826 597 819 694 838 674 z m 422 924 b 499 836 415 871 449 836 b 601 924 550 836 594 871 b 524 1014 608 976 575 1014 b 422 924 474 1014 429 976 z m 693 924 b 771 836 686 871 719 836 b 872 924 821 836 865 871 b 796 1014 879 976 846 1014 b 693 924 744 1014 700 976 z "},"":{"ha":778,"x_min":0,"x_max":0,"o":"m 164 625 b 85 708 144 669 124 688 l 90 750 l 451 750 l 446 708 b 408 583 375 694 382 650 l 503 333 l 506 333 l 650 576 b 585 708 690 644 682 694 l 590 750 l 896 750 l 890 708 b 754 625 821 694 786 681 l 561 293 l 542 153 b 610 42 531 76 556 56 l 604 0 l 215 0 l 221 42 b 319 153 278 56 308 76 l 329 226 z m 533 833 l 508 860 l 675 1069 b 761 983 740 1153 863 1050 z "},"":{"ha":792,"x_min":0,"x_max":0,"o":"m 378 222 l 421 528 l 463 528 b 586 375 574 528 603 486 b 406 222 569 253 503 222 z m 146 153 b 47 42 135 76 104 56 l 42 0 l 431 0 l 436 42 b 368 153 382 56 357 76 l 369 160 l 397 160 b 815 375 689 160 796 236 b 526 590 838 528 735 590 l 429 590 l 431 597 b 529 708 442 674 472 694 l 535 750 l 146 750 l 140 708 b 208 597 194 694 219 674 z "},"":{"ha":778,"x_min":0,"x_max":0,"o":"m 164 625 b 85 708 144 669 124 688 l 90 750 l 451 750 l 446 708 b 408 583 375 694 382 650 l 503 333 l 506 333 l 650 576 b 585 708 690 644 682 694 l 590 750 l 896 750 l 890 708 b 754 625 821 694 786 681 l 561 293 l 542 153 b 610 42 531 76 556 56 l 604 0 l 215 0 l 221 42 b 319 153 278 56 308 76 l 329 226 z m 325 924 b 401 836 318 871 351 836 b 504 924 453 836 497 871 b 426 1014 511 976 478 1014 b 325 924 376 1014 332 976 z m 596 924 b 674 836 589 871 622 836 b 775 924 724 836 768 871 b 699 1014 782 976 749 1014 b 596 924 647 1014 603 976 z "},"\r":{"ha":319,"x_min":0,"x_max":0,"o":""},"€":{"ha":1042,"x_min":0,"x_max":0,"o":"m 154 604 l 143 528 l 228 528 b 221 486 225 514 222 500 b 215 438 218 469 215 453 l 131 438 l 119 361 l 215 361 b 636 -14 231 136 388 -14 b 968 69 775 -14 907 35 l 1011 278 l 963 278 b 646 56 918 167 813 56 b 447 361 518 56 447 171 l 647 361 l 658 438 l 451 438 b 457 486 451 453 454 469 l 463 528 l 671 528 l 682 604 l 481 604 b 767 917 532 799 638 917 b 1021 694 933 917 1008 806 l 1069 694 l 1085 903 b 776 986 1033 938 915 986 b 249 604 525 986 325 832 z "},"­":{"ha":778,"x_min":0,"x_max":0,"o":"m 182 410 l 171 333 l 699 333 l 710 410 z "},"":{"ha":625,"x_min":0,"x_max":0,"o":"m 424 792 b 265 1001 299 792 251 900 l 332 1001 b 440 914 338 931 397 914 b 574 1001 483 914 549 931 l 640 1001 b 424 792 626 900 549 792 z "},"":{"ha":472,"x_min":0,"x_max":0,"o":"m 213 -50 b 104 -146 163 -50 111 -96 b 181 -247 94 -211 131 -247 b 61 -433 257 -247 200 -372 l 83 -478 b 318 -203 172 -447 299 -343 b 213 -50 326 -142 315 -50 z "},"":{"ha":472,"x_min":0,"x_max":0,"o":"m 213 -50 b 104 -146 163 -50 111 -96 b 181 -247 94 -211 131 -247 b 61 -433 257 -247 200 -372 l 83 -478 b 318 -203 172 -447 299 -343 b 213 -50 326 -142 315 -50 z "},"":{"ha":806,"x_min":0,"x_max":0,"o":"m 242 854 b 318 767 235 801 268 767 b 421 854 369 767 414 801 b 343 944 428 907 394 944 b 242 854 293 944 249 907 z m 624 854 b 701 767 617 801 650 767 b 803 854 751 767 796 801 b 726 944 810 907 776 944 b 624 854 675 944 631 907 z m 515 833 l 474 854 l 579 1106 b 694 1046 614 1189 758 1125 z "},"":{"ha":806,"x_min":0,"x_max":0,"o":"m 803 854 b 701 767 796 801 751 767 b 624 854 650 767 617 801 b 726 944 631 907 675 944 b 803 854 776 944 810 907 z m 421 854 b 318 767 414 801 369 767 b 242 854 268 767 235 801 b 343 944 249 907 293 944 b 421 854 394 944 428 907 z m 524 833 l 571 854 l 535 1106 b 403 1046 525 1189 361 1125 z "},"":{"ha":667,"x_min":0,"x_max":0,"o":"m 607 764 l 654 785 l 618 1036 b 486 976 608 1119 444 1056 z m 385 764 l 432 785 l 396 1036 b 264 976 386 1119 222 1056 z "},"":{"ha":653,"x_min":0,"x_max":0,"o":"m 447 868 l 579 764 l 649 764 l 510 1014 l 426 1014 l 218 764 l 288 764 z "},"ˉ":{"ha":708,"x_min":0,"x_max":0,"o":"m 250 896 l 239 819 l 697 819 l 708 896 z "},"":{"ha":513,"x_min":0,"x_max":0,"o":"m 299 1042 l 275 1068 l 440 1278 b 526 1192 506 1361 628 1258 z "},"":{"ha":625,"x_min":0,"x_max":0,"o":"m 463 1069 b 304 1279 338 1069 290 1178 l 371 1279 b 479 1192 376 1208 436 1192 b 613 1279 522 1192 588 1208 l 679 1279 b 463 1069 665 1178 588 1069 z "},"":{"ha":653,"x_min":0,"x_max":0,"o":"m 493 1188 l 653 1292 l 722 1292 l 514 1042 l 431 1042 l 292 1292 l 361 1292 z "},"":{"ha":694,"x_min":0,"x_max":0,"o":"m 281 1132 b 357 1044 274 1079 307 1044 b 460 1132 408 1044 453 1079 b 382 1222 467 1185 433 1222 b 281 1132 332 1222 288 1185 z m 551 1132 b 629 1044 544 1079 578 1044 b 731 1132 679 1044 724 1079 b 654 1222 738 1185 704 1222 b 551 1132 603 1222 558 1185 z "},"":{"ha":806,"x_min":0,"x_max":0,"o":"m 281 1132 b 357 1044 274 1079 307 1044 b 460 1132 408 1044 453 1079 b 382 1222 467 1185 433 1222 b 281 1132 332 1222 288 1185 z m 663 1132 b 740 1044 656 1079 689 1044 b 842 1132 790 1044 835 1079 b 765 1222 849 1185 815 1222 b 663 1132 714 1222 669 1185 z m 554 1111 l 513 1132 l 618 1383 b 733 1324 653 1467 797 1403 z "},"":{"ha":806,"x_min":0,"x_max":0,"o":"m 842 1132 b 740 1044 835 1079 790 1044 b 663 1132 689 1044 656 1079 b 765 1222 669 1185 714 1222 b 842 1132 815 1222 849 1185 z m 460 1132 b 357 1044 453 1079 408 1044 b 281 1132 307 1044 274 1079 b 382 1222 288 1185 332 1222 b 460 1132 433 1222 467 1185 z m 563 1111 l 610 1132 l 574 1383 b 442 1324 564 1467 400 1403 z "},"":{"ha":667,"x_min":0,"x_max":0,"o":"m 315 1042 l 274 1063 l 379 1314 b 494 1254 414 1397 558 1333 z m 538 1042 l 496 1063 l 601 1314 b 717 1254 636 1397 781 1333 z "},"":{"ha":513,"x_min":0,"x_max":0,"o":"m 506 1042 l 538 1068 l 431 1278 b 319 1192 388 1361 238 1258 z "},"":{"ha":667,"x_min":0,"x_max":0,"o":"m 646 1042 l 693 1063 l 657 1314 b 525 1254 647 1397 483 1333 z m 424 1042 l 471 1063 l 435 1314 b 303 1254 425 1397 261 1333 z "},"":{"ha":653,"x_min":0,"x_max":0,"o":"m 486 1146 l 618 1042 l 688 1042 l 549 1292 l 465 1292 l 257 1042 l 326 1042 z "},"":{"ha":708,"x_min":0,"x_max":0,"o":"m 289 1174 l 279 1097 l 738 1097 l 747 1174 z "},"Ă":{"ha":972,"x_min":0,"x_max":0,"o":"m 635 1069 b 476 1279 510 1069 463 1178 l 543 1279 b 651 1192 549 1208 608 1192 b 785 1279 694 1192 760 1208 l 851 1279 b 635 1069 838 1178 760 1069 z m 885 125 b 978 42 900 79 911 63 l 972 0 l 556 0 l 561 42 b 633 167 632 56 644 94 l 604 326 l 329 326 l 261 188 b 339 42 222 104 229 56 l 333 0 l 0 0 l 6 42 b 156 125 90 56 128 68 l 568 979 l 686 979 z m 518 736 l 358 389 l 589 389 l 521 736 z "},"Ā":{"ha":972,"x_min":0,"x_max":0,"o":"m 422 1174 l 413 1097 l 871 1097 l 881 1174 z m 885 125 b 978 42 900 79 911 63 l 972 0 l 556 0 l 561 42 b 633 167 632 56 644 94 l 604 326 l 329 326 l 261 188 b 339 42 222 104 229 56 l 333 0 l 0 0 l 6 42 b 156 125 90 56 128 68 l 568 979 l 686 979 z m 518 736 l 358 389 l 589 389 l 521 736 z "},"Ą":{"ha":972,"x_min":0,"x_max":0,"o":"m 885 125 b 978 42 900 79 911 63 l 972 0 l 826 0 b 857 -222 694 -108 675 -293 l 850 -271 b 717 -326 821 -303 758 -326 b 764 0 546 -326 554 -135 l 556 0 l 561 42 b 633 167 632 56 644 94 l 607 319 l 324 319 l 261 188 b 339 42 222 104 229 56 l 333 0 l 0 0 l 6 42 b 156 125 90 56 128 68 l 568 979 l 686 979 z m 518 736 l 360 396 l 590 396 l 521 736 z "},"Ǽ":{"ha":1222,"x_min":0,"x_max":0,"o":"m 847 1042 l 824 1068 l 989 1278 b 1075 1192 1054 1361 1176 1258 z m 761 972 l 1289 972 l 1263 736 l 1214 736 b 1065 910 1215 849 1142 910 l 919 910 l 864 521 l 892 521 b 1063 667 968 521 1035 556 l 1111 667 l 1061 313 l 1013 313 b 883 458 1015 424 960 458 l 856 458 l 800 63 l 960 63 b 1164 236 1036 63 1135 124 l 1213 236 l 1167 0 l 486 0 l 492 42 b 590 153 549 56 579 76 l 633 458 l 478 458 l 294 188 b 339 42 236 104 232 56 l 333 0 l 0 0 l 6 42 b 175 125 92 56 136 68 z m 669 736 l 521 521 l 642 521 l 672 736 z "},"Ć":{"ha":889,"x_min":0,"x_max":0,"o":"m 656 1042 l 632 1068 l 797 1278 b 883 1192 863 1361 985 1258 z m 535 56 b 851 278 701 56 807 167 l 900 278 l 857 69 b 525 -14 796 35 664 -14 b 110 486 233 -14 68 194 b 665 986 150 778 374 986 b 974 903 804 986 922 938 l 958 694 l 910 694 b 656 917 897 806 822 917 b 346 486 503 917 382 750 b 535 56 308 222 382 56 z "},"Č":{"ha":889,"x_min":0,"x_max":0,"o":"m 693 1188 l 853 1292 l 922 1292 l 714 1042 l 631 1042 l 492 1292 l 561 1292 z m 535 56 b 851 278 701 56 807 167 l 900 278 l 857 69 b 525 -14 796 35 664 -14 b 110 486 233 -14 68 194 b 665 986 150 778 374 986 b 974 903 804 986 922 938 l 958 694 l 910 694 b 656 917 897 806 822 917 b 346 486 503 917 382 750 b 535 56 308 222 382 56 z "},"Ĉ":{"ha":889,"x_min":0,"x_max":0,"o":"m 675 1146 l 807 1042 l 876 1042 l 738 1292 l 654 1292 l 446 1042 l 515 1042 z m 535 56 b 851 278 701 56 807 167 l 900 278 l 857 69 b 525 -14 796 35 664 -14 b 110 486 233 -14 68 194 b 665 986 150 778 374 986 b 974 903 804 986 922 938 l 958 694 l 910 694 b 656 917 897 806 822 917 b 346 486 503 917 382 750 b 535 56 308 222 382 56 z "},"Ċ":{"ha":889,"x_min":0,"x_max":0,"o":"m 608 1149 b 690 1053 600 1094 636 1053 b 800 1149 744 1053 792 1094 b 717 1244 807 1203 771 1244 b 608 1149 663 1244 615 1203 z m 535 56 b 851 278 701 56 807 167 l 900 278 l 857 69 b 525 -14 796 35 664 -14 b 110 486 233 -14 68 194 b 665 986 150 778 374 986 b 974 903 804 986 922 938 l 958 694 l 910 694 b 656 917 897 806 822 917 b 346 486 503 917 382 750 b 535 56 308 222 382 56 z "},"Ď":{"ha":1028,"x_min":0,"x_max":0,"o":"m 661 1188 l 821 1292 l 890 1292 l 682 1042 l 599 1042 l 460 1292 l 529 1292 z m 356 63 l 475 910 l 586 910 b 818 486 792 910 854 743 b 481 63 786 267 678 63 z m 472 0 b 1054 486 771 0 1014 200 b 608 972 1097 792 907 972 l 178 972 l 172 931 b 239 819 225 917 250 896 l 146 153 b 47 42 135 76 104 56 l 42 0 z "},"Đ":{"ha":1028,"x_min":0,"x_max":0,"o":"m 72 521 l 64 458 l 189 458 l 146 153 b 47 42 135 76 104 56 l 42 0 l 472 0 b 1054 486 771 0 1014 200 b 608 972 1097 792 907 972 l 178 972 l 172 931 b 239 819 225 917 250 896 l 197 521 z m 356 63 l 411 458 l 536 458 l 544 521 l 419 521 l 475 910 l 586 910 b 818 486 792 910 854 743 b 481 63 786 267 678 63 z "},"Ĕ":{"ha":833,"x_min":0,"x_max":0,"o":"m 607 1069 b 449 1279 482 1069 435 1178 l 515 1279 b 624 1192 521 1208 581 1192 b 757 1279 667 1192 732 1208 l 824 1279 b 607 1069 810 1178 732 1069 z m 475 910 l 676 910 b 825 736 753 910 826 849 l 874 736 l 900 972 l 178 972 l 172 931 b 239 819 225 917 250 896 l 146 153 b 47 42 135 76 104 56 l 42 0 l 778 0 l 824 236 l 775 236 b 571 63 746 124 647 63 l 356 63 l 411 458 l 494 458 b 624 313 571 458 626 424 l 672 313 l 722 667 l 674 667 b 503 521 646 556 579 521 l 419 521 z "},"Ě":{"ha":833,"x_min":0,"x_max":0,"o":"m 626 1188 l 786 1292 l 856 1292 l 647 1042 l 564 1042 l 425 1292 l 494 1292 z m 475 910 l 676 910 b 825 736 753 910 826 849 l 874 736 l 900 972 l 178 972 l 172 931 b 239 819 225 917 250 896 l 146 153 b 47 42 135 76 104 56 l 42 0 l 778 0 l 824 236 l 775 236 b 571 63 746 124 647 63 l 356 63 l 411 458 l 494 458 b 624 313 571 458 626 424 l 672 313 l 722 667 l 674 667 b 503 521 646 556 579 521 l 419 521 z "},"Ė":{"ha":833,"x_min":0,"x_max":0,"o":"m 515 1149 b 597 1053 507 1094 543 1053 b 707 1149 651 1053 699 1094 b 624 1244 714 1203 678 1244 b 515 1149 569 1244 522 1203 z m 475 910 l 676 910 b 825 736 753 910 826 849 l 874 736 l 900 972 l 178 972 l 172 931 b 239 819 225 917 250 896 l 146 153 b 47 42 135 76 104 56 l 42 0 l 778 0 l 824 236 l 775 236 b 571 63 746 124 647 63 l 356 63 l 411 458 l 494 458 b 624 313 571 458 626 424 l 672 313 l 722 667 l 674 667 b 503 521 646 556 579 521 l 419 521 z "},"Ē":{"ha":833,"x_min":0,"x_max":0,"o":"m 386 1174 l 376 1097 l 835 1097 l 844 1174 z m 475 910 l 676 910 b 825 736 753 910 826 849 l 874 736 l 900 972 l 178 972 l 172 931 b 239 819 225 917 250 896 l 146 153 b 47 42 135 76 104 56 l 42 0 l 778 0 l 824 236 l 775 236 b 571 63 746 124 647 63 l 356 63 l 411 458 l 494 458 b 624 313 571 458 626 424 l 672 313 l 722 667 l 674 667 b 503 521 646 556 579 521 l 419 521 z "},"Ę":{"ha":833,"x_min":0,"x_max":0,"o":"m 808 -222 b 778 0 626 -293 646 -108 l 824 236 l 775 236 b 571 63 746 124 647 63 l 356 63 l 411 458 l 494 458 b 624 313 571 458 626 424 l 672 313 l 722 667 l 674 667 b 503 521 646 556 579 521 l 419 521 l 475 910 l 676 910 b 825 736 753 910 826 849 l 874 736 l 900 972 l 178 972 l 172 931 b 239 819 225 917 250 896 l 146 153 b 47 42 135 76 104 56 l 42 0 l 715 0 b 668 -326 506 -135 497 -326 b 801 -271 710 -326 772 -303 z "},"Ğ":{"ha":972,"x_min":0,"x_max":0,"o":"m 674 1069 b 515 1279 549 1069 501 1178 l 582 1279 b 690 1192 588 1208 647 1192 b 824 1279 733 1192 799 1208 l 890 1279 b 674 1069 876 1178 799 1069 z m 707 292 b 639 403 718 368 707 389 l 644 444 l 1033 444 l 1028 403 b 929 292 943 389 940 368 l 901 97 b 525 -14 840 56 664 -14 b 110 486 233 -14 68 194 b 665 986 150 778 374 986 b 974 903 804 986 922 938 l 958 694 l 910 694 b 656 917 897 806 822 917 b 346 486 503 917 382 750 b 535 56 308 222 382 56 b 678 83 586 56 633 65 z "},"Ĝ":{"ha":972,"x_min":0,"x_max":0,"o":"m 681 1146 l 813 1042 l 882 1042 l 743 1292 l 660 1292 l 451 1042 l 521 1042 z m 707 292 b 639 403 718 368 707 389 l 644 444 l 1033 444 l 1028 403 b 929 292 943 389 940 368 l 901 97 b 525 -14 840 56 664 -14 b 110 486 233 -14 68 194 b 665 986 150 778 374 986 b 974 903 804 986 922 938 l 958 694 l 910 694 b 656 917 897 806 822 917 b 346 486 503 917 382 750 b 535 56 308 222 382 56 b 678 83 586 56 633 65 z "},"Ģ":{"ha":972,"x_min":0,"x_max":0,"o":"m 707 292 b 639 403 718 368 707 389 l 644 444 l 1033 444 l 1028 403 b 929 292 943 389 940 368 l 901 97 b 525 -14 840 56 664 -14 b 110 486 233 -14 68 194 b 665 986 150 778 374 986 b 974 903 804 986 922 938 l 958 694 l 910 694 b 656 917 897 806 822 917 b 346 486 503 917 382 750 b 535 56 308 222 382 56 b 678 83 586 56 633 65 z m 503 -50 b 394 -146 453 -50 401 -96 b 471 -247 385 -211 421 -247 b 351 -433 547 -247 490 -372 l 374 -478 b 608 -203 463 -447 589 -343 b 503 -50 617 -142 606 -50 z "},"Ġ":{"ha":972,"x_min":0,"x_max":0,"o":"m 607 1149 b 689 1053 599 1094 635 1053 b 799 1149 743 1053 790 1094 b 715 1244 806 1203 769 1244 b 607 1149 661 1244 614 1203 z m 707 292 b 639 403 718 368 707 389 l 644 444 l 1033 444 l 1028 403 b 929 292 943 389 940 368 l 901 97 b 525 -14 840 56 664 -14 b 110 486 233 -14 68 194 b 665 986 150 778 374 986 b 974 903 804 986 922 938 l 958 694 l 910 694 b 656 917 897 806 822 917 b 346 486 503 917 382 750 b 535 56 308 222 382 56 b 678 83 586 56 633 65 z "},"Ħ":{"ha":1083,"x_min":0,"x_max":0,"o":"m 140 708 l 132 646 l 215 646 l 146 153 b 47 42 135 76 104 56 l 42 0 l 431 0 l 436 42 b 368 153 382 56 357 76 l 413 465 l 801 465 l 757 153 b 658 42 746 76 715 56 l 653 0 l 1042 0 l 1047 42 b 979 153 993 56 968 76 l 1049 646 l 1132 646 l 1140 708 l 1057 708 l 1072 819 b 1172 931 1083 896 1114 917 l 1178 972 l 789 972 l 783 931 b 850 819 836 917 861 896 l 835 708 l 446 708 l 461 819 b 561 931 472 896 503 917 l 567 972 l 178 972 l 172 931 b 239 819 225 917 250 896 l 224 708 z m 421 528 l 438 646 l 826 646 l 810 528 z "},"Ĥ":{"ha":1083,"x_min":0,"x_max":0,"o":"m 707 1146 l 839 1042 l 908 1042 l 769 1292 l 686 1292 l 478 1042 l 547 1042 z m 1072 819 b 1172 931 1083 896 1114 917 l 1178 972 l 789 972 l 783 931 b 850 819 836 917 861 896 l 810 528 l 421 528 l 461 819 b 561 931 472 896 503 917 l 567 972 l 178 972 l 172 931 b 239 819 225 917 250 896 l 146 153 b 47 42 135 76 104 56 l 42 0 l 431 0 l 436 42 b 368 153 382 56 357 76 l 413 465 l 801 465 l 757 153 b 658 42 746 76 715 56 l 653 0 l 1042 0 l 1047 42 b 979 153 993 56 968 76 z "},"Ĭ":{"ha":472,"x_min":0,"x_max":0,"o":"m 388 1069 b 229 1279 263 1069 215 1178 l 296 1279 b 404 1192 301 1208 361 1192 b 538 1279 447 1192 513 1208 l 604 1279 b 388 1069 590 1178 513 1069 z m 461 819 b 561 931 472 896 503 917 l 567 972 l 178 972 l 172 931 b 239 819 225 917 250 896 l 146 153 b 47 42 135 76 104 56 l 42 0 l 431 0 l 436 42 b 368 153 382 56 357 76 z "},"İ":{"ha":472,"x_min":0,"x_max":0,"o":"m 299 1149 b 381 1053 290 1094 326 1053 b 490 1149 435 1053 482 1094 b 407 1244 497 1203 461 1244 b 299 1149 353 1244 306 1203 z m 461 819 b 561 931 472 896 503 917 l 567 972 l 178 972 l 172 931 b 239 819 225 917 250 896 l 146 153 b 47 42 135 76 104 56 l 42 0 l 431 0 l 436 42 b 368 153 382 56 357 76 z "},"Ī":{"ha":472,"x_min":0,"x_max":0,"o":"m 171 1174 l 161 1097 l 619 1097 l 629 1174 z m 461 819 b 561 931 472 896 503 917 l 567 972 l 178 972 l 172 931 b 239 819 225 917 250 896 l 146 153 b 47 42 135 76 104 56 l 42 0 l 431 0 l 436 42 b 368 153 382 56 357 76 z "},"Į":{"ha":472,"x_min":0,"x_max":0,"o":"m 315 -222 b 285 0 133 -293 153 -108 l 431 0 l 436 42 b 368 153 382 56 357 76 l 461 819 b 561 931 472 896 503 917 l 567 972 l 178 972 l 172 931 b 239 819 225 917 250 896 l 146 153 b 47 42 135 76 104 56 l 42 0 l 222 0 b 175 -326 13 -135 4 -326 b 308 -271 217 -326 279 -303 z "},"Ĩ":{"ha":472,"x_min":0,"x_max":0,"o":"m 161 1056 b 274 1111 188 1082 224 1111 b 494 1056 339 1111 429 1056 b 678 1222 558 1056 640 1164 l 633 1250 b 524 1208 607 1222 572 1208 b 308 1264 469 1208 364 1264 b 117 1083 244 1264 154 1143 z m 461 819 b 561 931 472 896 503 917 l 567 972 l 178 972 l 172 931 b 239 819 225 917 250 896 l 146 153 b 47 42 135 76 104 56 l 42 0 l 431 0 l 436 42 b 368 153 382 56 357 76 z "},"Ĳ":{"ha":1028,"x_min":0,"x_max":0,"o":"m 461 819 b 561 931 472 896 503 917 l 567 972 l 178 972 l 172 931 b 239 819 225 917 250 896 l 146 153 b 47 42 135 76 104 56 l 42 0 l 431 0 l 436 42 b 368 153 382 56 357 76 z m 1017 819 b 1117 931 1028 896 1058 917 l 1122 972 l 733 972 l 728 931 b 794 819 781 917 806 896 l 731 361 b 578 104 707 194 728 -37 b 553 -14 481 196 379 -14 b 961 417 796 -14 929 194 z "},"Ĵ":{"ha":556,"x_min":0,"x_max":0,"o":"m 479 1146 l 611 1042 l 681 1042 l 542 1292 l 458 1292 l 250 1042 l 319 1042 z m 544 819 b 644 931 556 896 586 917 l 650 972 l 261 972 l 256 931 b 322 819 308 917 333 896 l 258 361 b 106 104 235 194 256 -37 b 81 -14 8 196 -92 -14 b 489 417 324 -14 457 194 z "},"Ķ":{"ha":1019,"x_min":0,"x_max":0,"o":"m 472 -40 b 364 -136 422 -40 371 -86 b 440 -237 354 -201 390 -237 b 321 -424 517 -237 460 -362 l 343 -468 b 578 -193 432 -437 558 -333 b 472 -40 586 -132 575 -40 z m 540 583 b 419 514 499 542 475 514 l 461 819 b 561 931 472 896 503 917 l 567 972 l 178 972 l 172 931 b 239 819 225 917 250 896 l 146 153 b 47 42 135 76 104 56 l 42 0 l 431 0 l 436 42 b 368 153 382 56 357 76 l 407 431 b 451 396 421 431 432 429 l 579 174 b 567 42 617 110 632 56 l 561 0 l 1006 0 l 1011 42 b 865 181 968 69 904 121 l 621 569 l 860 833 b 1081 931 918 893 982 917 l 1086 972 l 711 972 l 706 931 b 728 785 822 917 782 840 z "},"Ĺ":{"ha":806,"x_min":0,"x_max":0,"o":"m 382 1042 l 358 1068 l 524 1278 b 610 1192 589 1361 711 1258 z m 356 63 l 461 819 b 561 931 472 896 503 917 l 567 972 l 178 972 l 172 931 b 239 819 225 917 250 896 l 146 153 b 47 42 135 76 104 56 l 42 0 l 778 0 l 824 236 l 775 236 b 571 63 746 124 647 63 z "},"Ľ":{"ha":806,"x_min":0,"x_max":0,"o":"m 747 1007 b 639 911 697 1007 646 961 b 715 810 629 846 665 810 b 596 624 792 810 735 685 l 618 579 b 853 854 707 610 833 714 b 747 1007 861 915 850 1007 z m 356 63 l 461 819 b 561 931 472 896 503 917 l 567 972 l 178 972 l 172 931 b 239 819 225 917 250 896 l 146 153 b 47 42 135 76 104 56 l 42 0 l 778 0 l 824 236 l 775 236 b 571 63 746 124 647 63 z "},"Ļ":{"ha":806,"x_min":0,"x_max":0,"o":"m 408 -39 b 300 -135 358 -39 307 -85 b 376 -236 290 -200 326 -236 b 257 -422 453 -236 396 -361 l 279 -467 b 514 -192 368 -436 494 -332 b 408 -39 522 -131 511 -39 z m 356 63 l 461 819 b 561 931 472 896 503 917 l 567 972 l 178 972 l 172 931 b 239 819 225 917 250 896 l 146 153 b 47 42 135 76 104 56 l 42 0 l 778 0 l 824 236 l 775 236 b 571 63 746 124 647 63 z "},"Ŀ":{"ha":806,"x_min":0,"x_max":0,"o":"m 526 504 b 604 417 519 451 554 417 b 704 504 654 417 697 451 b 629 594 713 557 679 594 b 526 504 579 594 535 557 z m 356 63 l 461 819 b 561 931 472 896 503 917 l 567 972 l 178 972 l 172 931 b 239 819 225 917 250 896 l 146 153 b 47 42 135 76 104 56 l 42 0 l 778 0 l 824 236 l 775 236 b 571 63 746 124 647 63 z "},"Ń":{"ha":1014,"x_min":0,"x_max":0,"o":"m 656 1042 l 632 1068 l 797 1278 b 883 1192 863 1361 985 1258 z m 838 333 l 525 972 l 178 972 l 172 931 b 274 819 253 917 285 896 l 181 153 b 47 42 169 76 132 56 l 42 0 l 361 0 l 367 42 b 257 153 257 56 246 76 l 347 792 l 736 0 l 868 0 l 982 819 b 1117 931 993 896 1031 917 l 1122 972 l 803 972 l 797 931 b 906 819 906 917 917 896 z "},"Ň":{"ha":1014,"x_min":0,"x_max":0,"o":"m 697 1188 l 857 1292 l 926 1292 l 718 1042 l 635 1042 l 496 1292 l 565 1292 z m 838 333 l 525 972 l 178 972 l 172 931 b 274 819 253 917 285 896 l 181 153 b 47 42 169 76 132 56 l 42 0 l 361 0 l 367 42 b 257 153 257 56 246 76 l 347 792 l 736 0 l 868 0 l 982 819 b 1117 931 993 896 1031 917 l 1122 972 l 803 972 l 797 931 b 906 819 906 917 917 896 z "},"Ņ":{"ha":1014,"x_min":0,"x_max":0,"o":"m 475 -50 b 367 -146 425 -50 374 -96 b 443 -247 357 -211 393 -247 b 324 -433 519 -247 463 -372 l 346 -478 b 581 -203 435 -447 561 -343 b 475 -50 589 -142 578 -50 z m 838 333 l 525 972 l 178 972 l 172 931 b 274 819 253 917 285 896 l 181 153 b 47 42 169 76 132 56 l 42 0 l 361 0 l 367 42 b 257 153 257 56 246 76 l 347 792 l 736 0 l 868 0 l 982 819 b 1117 931 993 896 1031 917 l 1122 972 l 803 972 l 797 931 b 906 819 906 917 917 896 z "},"Ŏ":{"ha":1083,"x_min":0,"x_max":0,"o":"m 711 1069 b 553 1279 586 1069 539 1178 l 619 1279 b 728 1192 625 1208 685 1192 b 861 1279 771 1192 836 1208 l 928 1279 b 711 1069 914 1178 836 1069 z m 110 486 b 539 -14 68 194 278 -14 b 1110 486 800 -14 1068 194 b 679 986 1150 778 940 986 b 110 486 418 986 150 778 z m 346 486 b 669 917 382 750 489 917 b 874 486 850 917 910 750 b 549 56 836 222 729 56 b 346 486 368 56 308 222 z "},"Ő":{"ha":1083,"x_min":0,"x_max":0,"o":"m 585 1042 l 543 1063 l 649 1314 b 764 1254 683 1397 828 1333 z m 807 1042 l 765 1063 l 871 1314 b 986 1254 906 1397 1050 1333 z m 110 486 b 539 -14 68 194 278 -14 b 1110 486 800 -14 1068 194 b 679 986 1150 778 940 986 b 110 486 418 986 150 778 z m 346 486 b 669 917 382 750 489 917 b 874 486 850 917 910 750 b 549 56 836 222 729 56 b 346 486 368 56 308 222 z "},"Ō":{"ha":1083,"x_min":0,"x_max":0,"o":"m 486 1174 l 476 1097 l 935 1097 l 944 1174 z m 110 486 b 539 -14 68 194 278 -14 b 1110 486 800 -14 1068 194 b 679 986 1150 778 940 986 b 110 486 418 986 150 778 z m 346 486 b 669 917 382 750 489 917 b 874 486 850 917 910 750 b 549 56 836 222 729 56 b 346 486 368 56 308 222 z "},"Ǿ":{"ha":1083,"x_min":0,"x_max":0,"o":"m 683 1042 l 660 1068 l 825 1278 b 911 1192 890 1361 1013 1258 z m 110 486 b 193 149 90 351 124 235 l 106 69 l 147 15 l 238 99 b 539 -14 317 26 422 -14 b 1110 486 800 -14 1068 194 b 1028 819 1128 618 1094 733 l 1113 897 l 1074 950 l 983 869 b 679 986 906 943 797 986 b 110 486 418 986 150 778 z m 346 486 b 669 917 382 750 489 917 b 867 761 774 917 838 860 l 338 281 b 346 486 332 340 335 408 z m 874 486 b 549 56 836 222 729 56 b 353 203 446 56 382 108 l 881 685 b 874 486 886 626 883 560 z "},"Ŕ":{"ha":931,"x_min":0,"x_max":0,"o":"m 563 1042 l 539 1068 l 704 1278 b 790 1192 769 1361 892 1258 z m 904 708 b 622 972 926 861 831 972 l 178 972 l 172 931 b 239 819 225 917 250 896 l 146 153 b 47 42 135 76 104 56 l 42 0 l 431 0 l 436 42 b 368 153 382 56 357 76 l 406 417 l 454 417 l 563 153 b 653 0 585 97 628 28 l 917 0 l 922 42 b 804 194 871 69 839 136 l 672 443 b 904 708 826 492 890 604 z m 414 479 l 475 910 l 558 910 b 674 694 669 910 689 806 b 469 479 656 572 608 479 z "},"Ř":{"ha":931,"x_min":0,"x_max":0,"o":"m 604 1188 l 764 1292 l 833 1292 l 625 1042 l 542 1042 l 403 1292 l 472 1292 z m 904 708 b 622 972 926 861 831 972 l 178 972 l 172 931 b 239 819 225 917 250 896 l 146 153 b 47 42 135 76 104 56 l 42 0 l 431 0 l 436 42 b 368 153 382 56 357 76 l 406 417 l 454 417 l 563 153 b 653 0 585 97 628 28 l 917 0 l 922 42 b 804 194 871 69 839 136 l 672 443 b 904 708 826 492 890 604 z m 414 479 l 475 910 l 558 910 b 674 694 669 910 689 806 b 469 479 656 572 608 479 z "},"Ŗ":{"ha":931,"x_min":0,"x_max":0,"o":"m 474 -42 b 365 -137 424 -42 372 -87 b 442 -239 356 -203 392 -239 b 322 -425 518 -239 461 -364 l 344 -469 b 579 -194 433 -439 560 -335 b 474 -42 588 -133 576 -42 z m 904 708 b 622 972 926 861 831 972 l 178 972 l 172 931 b 239 819 225 917 250 896 l 146 153 b 47 42 135 76 104 56 l 42 0 l 431 0 l 436 42 b 368 153 382 56 357 76 l 406 417 l 454 417 l 563 153 b 653 0 585 97 628 28 l 917 0 l 922 42 b 804 194 871 69 839 136 l 672 443 b 904 708 826 492 890 604 z m 414 479 l 475 910 l 558 910 b 674 694 669 910 689 806 b 469 479 656 572 608 479 z "},"Ś":{"ha":743,"x_min":0,"x_max":0,"o":"m 510 1042 l 486 1068 l 651 1278 b 738 1192 717 1361 839 1258 z m 754 681 l 775 924 b 515 986 704 965 600 986 b 140 708 325 986 165 886 b 372 403 117 539 240 463 b 515 215 471 358 528 299 b 332 63 501 115 417 63 b 133 313 228 63 128 125 l 85 313 l 63 56 b 349 -14 133 14 249 -14 b 742 292 535 -14 713 83 b 489 618 767 472 619 563 b 376 778 394 658 368 715 b 535 910 392 882 489 910 b 706 681 654 910 688 847 z "},"Ş":{"ha":743,"x_min":0,"x_max":0,"o":"m 754 681 l 775 924 b 515 986 704 965 600 986 b 140 708 325 986 165 886 b 372 403 117 539 240 463 b 515 215 471 358 528 299 b 332 63 501 115 417 63 b 133 313 228 63 128 125 l 85 313 l 63 56 b 319 -12 126 18 228 -8 l 308 -69 b 351 -215 290 -160 361 -142 b 221 -306 343 -274 264 -292 l 225 -368 b 501 -197 328 -354 488 -285 b 367 -56 519 -75 360 -106 l 372 -12 b 742 292 550 -6 714 92 b 489 618 767 472 619 563 b 376 778 394 658 368 715 b 535 910 392 882 489 910 b 706 681 654 910 688 847 z "},"Ŝ":{"ha":743,"x_min":0,"x_max":0,"o":"m 538 1146 l 669 1042 l 739 1042 l 600 1292 l 517 1292 l 308 1042 l 378 1042 z m 754 681 l 775 924 b 515 986 704 965 600 986 b 140 708 325 986 165 886 b 372 403 117 539 240 463 b 515 215 471 358 528 299 b 332 63 501 115 417 63 b 133 313 228 63 128 125 l 85 313 l 63 56 b 349 -14 133 14 249 -14 b 742 292 535 -14 713 83 b 489 618 767 472 619 563 b 376 778 394 658 368 715 b 535 910 392 882 489 910 b 706 681 654 910 688 847 z "},"Ș":{"ha":743,"x_min":0,"x_max":0,"o":"m 347 -50 b 239 -146 297 -50 246 -96 b 315 -247 229 -211 265 -247 b 196 -433 392 -247 335 -372 l 218 -478 b 453 -203 307 -447 433 -343 b 347 -50 461 -142 450 -50 z m 754 681 l 775 924 b 515 986 704 965 600 986 b 140 708 325 986 165 886 b 372 403 117 539 240 463 b 515 215 471 358 528 299 b 332 63 501 115 417 63 b 133 313 228 63 128 125 l 85 313 l 63 56 b 349 -14 133 14 249 -14 b 742 292 535 -14 713 83 b 489 618 767 472 619 563 b 376 778 394 658 368 715 b 535 910 392 882 489 910 b 706 681 654 910 688 847 z "},"Ŧ":{"ha":833,"x_min":0,"x_max":0,"o":"m 725 521 l 717 458 l 592 458 l 549 153 b 617 42 538 76 563 56 l 611 0 l 222 0 l 228 42 b 326 153 285 56 315 76 l 369 458 l 244 458 l 253 521 l 378 521 l 433 910 l 378 910 b 179 736 301 910 208 849 l 131 736 l 171 972 l 935 972 l 908 736 l 860 736 b 711 910 861 849 788 910 l 656 910 l 600 521 z "},"Ť":{"ha":833,"x_min":0,"x_max":0,"o":"m 582 1188 l 742 1292 l 811 1292 l 603 1042 l 519 1042 l 381 1292 l 450 1292 z m 935 972 l 908 736 l 860 736 b 711 910 861 849 788 910 l 656 910 l 549 153 b 617 42 538 76 563 56 l 611 0 l 222 0 l 228 42 b 326 153 285 56 315 76 l 433 910 l 378 910 b 179 736 301 910 208 849 l 131 736 l 171 972 z "},"Ţ":{"ha":833,"x_min":0,"x_max":0,"o":"m 392 -50 b 283 -146 342 -50 290 -96 b 360 -247 274 -211 310 -247 b 240 -433 436 -247 379 -372 l 263 -478 b 497 -203 351 -447 478 -343 b 392 -50 506 -142 494 -50 z m 935 972 l 908 736 l 860 736 b 711 910 861 849 788 910 l 656 910 l 549 153 b 617 42 538 76 563 56 l 611 0 l 222 0 l 228 42 b 326 153 285 56 315 76 l 433 910 l 378 910 b 179 736 301 910 208 849 l 131 736 l 171 972 z "},"Ț":{"ha":833,"x_min":0,"x_max":0,"o":"m 393 -46 b 285 -142 343 -46 292 -92 b 361 -243 275 -207 311 -243 b 242 -429 438 -243 381 -368 l 264 -474 b 499 -199 353 -443 479 -339 b 393 -46 507 -137 496 -46 z m 935 972 l 908 736 l 860 736 b 711 910 861 849 788 910 l 656 910 l 549 153 b 617 42 538 76 563 56 l 611 0 l 222 0 l 228 42 b 326 153 285 56 315 76 l 433 910 l 378 910 b 179 736 301 910 208 849 l 131 736 l 171 972 z "},"Ŭ":{"ha":1056,"x_min":0,"x_max":0,"o":"m 686 1069 b 528 1279 561 1069 514 1178 l 594 1279 b 703 1192 600 1208 660 1192 b 836 1279 746 1192 811 1208 l 903 1279 b 686 1069 889 1178 811 1069 z m 881 389 b 572 69 853 194 760 69 b 388 389 426 69 356 167 l 447 819 b 547 931 458 896 489 917 l 553 972 l 164 972 l 158 931 b 225 819 211 917 236 896 l 163 375 b 518 -14 129 135 247 -14 b 954 375 744 -14 919 125 l 1017 819 b 1158 931 1028 896 1058 917 l 1164 972 l 831 972 l 825 931 b 940 819 933 917 951 896 z "},"Ű":{"ha":1056,"x_min":0,"x_max":0,"o":"m 590 1042 l 549 1063 l 654 1314 b 769 1254 689 1397 833 1333 z m 813 1042 l 771 1063 l 876 1314 b 992 1254 911 1397 1056 1333 z m 881 389 b 572 69 853 194 760 69 b 388 389 426 69 356 167 l 447 819 b 547 931 458 896 489 917 l 553 972 l 164 972 l 158 931 b 225 819 211 917 236 896 l 163 375 b 518 -14 129 135 247 -14 b 954 375 744 -14 919 125 l 1017 819 b 1158 931 1028 896 1058 917 l 1164 972 l 831 972 l 825 931 b 940 819 933 917 951 896 z "},"Ū":{"ha":1056,"x_min":0,"x_max":0,"o":"m 489 1174 l 479 1097 l 938 1097 l 947 1174 z m 881 389 b 572 69 853 194 760 69 b 388 389 426 69 356 167 l 447 819 b 547 931 458 896 489 917 l 553 972 l 164 972 l 158 931 b 225 819 211 917 236 896 l 163 375 b 518 -14 129 135 247 -14 b 954 375 744 -14 919 125 l 1017 819 b 1158 931 1028 896 1058 917 l 1164 972 l 831 972 l 825 931 b 940 819 933 917 951 896 z "},"Ų":{"ha":1056,"x_min":0,"x_max":0,"o":"m 607 -222 b 561 -12 431 -290 442 -121 b 954 375 767 4 922 140 l 1017 819 b 1158 931 1028 896 1058 917 l 1164 972 l 831 972 l 825 931 b 940 819 933 917 951 896 l 881 389 b 572 69 853 194 760 69 b 388 389 426 69 356 167 l 447 819 b 547 931 458 896 489 917 l 553 972 l 164 972 l 158 931 b 225 819 211 917 236 896 l 163 375 b 493 -14 131 142 240 -4 b 467 -326 304 -147 301 -326 b 600 -271 508 -326 571 -303 z "},"Ů":{"ha":1056,"x_min":0,"x_max":0,"o":"m 588 1163 b 703 1029 576 1086 626 1029 b 856 1163 778 1029 844 1086 b 740 1297 867 1238 815 1297 b 588 1163 664 1297 599 1238 z m 646 1163 b 732 1239 651 1206 690 1239 b 797 1163 775 1239 803 1206 b 711 1088 792 1121 754 1088 b 646 1163 669 1088 640 1121 z m 881 389 b 572 69 853 194 760 69 b 388 389 426 69 356 167 l 447 819 b 547 931 458 896 489 917 l 553 972 l 164 972 l 158 931 b 225 819 211 917 236 896 l 163 375 b 518 -14 129 135 247 -14 b 954 375 744 -14 919 125 l 1017 819 b 1158 931 1028 896 1058 917 l 1164 972 l 831 972 l 825 931 b 940 819 933 917 951 896 z "},"Ũ":{"ha":1056,"x_min":0,"x_max":0,"o":"m 492 1056 b 604 1111 518 1082 554 1111 b 825 1056 669 1111 760 1056 b 1008 1222 889 1056 971 1164 l 964 1250 b 854 1208 938 1222 903 1208 b 639 1264 800 1208 694 1264 b 447 1083 575 1264 485 1143 z m 881 389 b 572 69 853 194 760 69 b 388 389 426 69 356 167 l 447 819 b 547 931 458 896 489 917 l 553 972 l 164 972 l 158 931 b 225 819 211 917 236 896 l 163 375 b 518 -14 129 135 247 -14 b 954 375 744 -14 919 125 l 1017 819 b 1158 931 1028 896 1058 917 l 1164 972 l 831 972 l 825 931 b 940 819 933 917 951 896 z "},"Ẃ":{"ha":1403,"x_min":0,"x_max":0,"o":"m 872 1042 l 849 1068 l 1014 1278 b 1100 1192 1079 1361 1201 1258 z m 719 847 b 631 931 711 894 696 910 l 636 972 l 1039 972 l 1033 931 b 956 806 960 917 946 878 l 1040 236 l 1043 236 l 1279 785 b 1200 931 1315 869 1307 917 l 1206 972 l 1539 972 l 1533 931 b 1379 847 1446 917 1408 904 l 1007 -7 l 882 -7 l 779 518 l 507 -7 l 389 -7 l 219 847 b 131 931 207 893 196 910 l 136 972 l 539 972 l 533 931 b 456 806 460 917 446 878 l 561 236 l 564 236 l 760 625 z "},"Ŵ":{"ha":1403,"x_min":0,"x_max":0,"o":"m 872 1146 l 1004 1042 l 1074 1042 l 935 1292 l 851 1292 l 643 1042 l 713 1042 z m 719 847 b 631 931 711 894 696 910 l 636 972 l 1039 972 l 1033 931 b 956 806 960 917 946 878 l 1040 236 l 1043 236 l 1279 785 b 1200 931 1315 869 1307 917 l 1206 972 l 1539 972 l 1533 931 b 1379 847 1446 917 1408 904 l 1007 -7 l 882 -7 l 779 518 l 507 -7 l 389 -7 l 219 847 b 131 931 207 893 196 910 l 136 972 l 539 972 l 533 931 b 456 806 460 917 446 878 l 561 236 l 564 236 l 760 625 z "},"Ẅ":{"ha":1403,"x_min":0,"x_max":0,"o":"m 649 1132 b 725 1044 642 1079 675 1044 b 828 1132 776 1044 821 1079 b 750 1222 835 1185 801 1222 b 649 1132 700 1222 656 1185 z m 919 1132 b 997 1044 913 1079 946 1044 b 1099 1132 1047 1044 1092 1079 b 1022 1222 1106 1185 1072 1222 b 919 1132 971 1222 926 1185 z m 719 847 b 631 931 711 894 696 910 l 636 972 l 1039 972 l 1033 931 b 956 806 960 917 946 878 l 1040 236 l 1043 236 l 1279 785 b 1200 931 1315 869 1307 917 l 1206 972 l 1539 972 l 1533 931 b 1379 847 1446 917 1408 904 l 1007 -7 l 882 -7 l 779 518 l 507 -7 l 389 -7 l 219 847 b 131 931 207 893 196 910 l 136 972 l 539 972 l 533 931 b 456 806 460 917 446 878 l 561 236 l 564 236 l 760 625 z "},"Ẁ":{"ha":1403,"x_min":0,"x_max":0,"o":"m 864 1042 l 896 1068 l 789 1278 b 678 1192 746 1361 596 1258 z m 719 847 b 631 931 711 894 696 910 l 636 972 l 1039 972 l 1033 931 b 956 806 960 917 946 878 l 1040 236 l 1043 236 l 1279 785 b 1200 931 1315 869 1307 917 l 1206 972 l 1539 972 l 1533 931 b 1379 847 1446 917 1408 904 l 1007 -7 l 882 -7 l 779 518 l 507 -7 l 389 -7 l 219 847 b 131 931 207 893 196 910 l 136 972 l 539 972 l 533 931 b 456 806 460 917 446 878 l 561 236 l 564 236 l 760 625 z "},"Ŷ":{"ha":889,"x_min":0,"x_max":0,"o":"m 640 1146 l 772 1042 l 842 1042 l 703 1292 l 619 1292 l 411 1042 l 481 1042 z m 194 847 b 117 931 178 892 156 910 l 122 972 l 483 972 l 478 931 b 439 806 406 917 414 872 l 574 444 l 576 444 l 792 799 b 728 931 833 867 824 917 l 733 972 l 1039 972 l 1033 931 b 896 847 963 917 929 903 l 632 404 l 597 153 b 665 42 586 76 611 56 l 660 0 l 271 0 l 276 42 b 375 153 333 56 364 76 l 401 338 z "},"Ỳ":{"ha":889,"x_min":0,"x_max":0,"o":"m 625 1042 l 657 1068 l 550 1278 b 439 1192 507 1361 357 1258 z m 194 847 b 117 931 178 892 156 910 l 122 972 l 483 972 l 478 931 b 439 806 406 917 414 872 l 574 444 l 576 444 l 792 799 b 728 931 833 867 824 917 l 733 972 l 1039 972 l 1033 931 b 896 847 963 917 929 903 l 632 404 l 597 153 b 665 42 586 76 611 56 l 660 0 l 271 0 l 276 42 b 375 153 333 56 364 76 l 401 338 z "},"Ź":{"ha":833,"x_min":0,"x_max":0,"o":"m 565 1042 l 542 1068 l 707 1278 b 793 1192 772 1361 894 1258 z m 300 63 l 571 63 b 775 236 654 63 746 124 l 824 236 l 778 0 l 42 0 l 51 69 l 669 910 l 422 910 b 224 736 343 910 253 849 l 175 736 l 215 972 l 914 972 l 901 889 z "},"Ż":{"ha":833,"x_min":0,"x_max":0,"o":"m 507 1149 b 589 1053 499 1094 535 1053 b 699 1149 643 1053 690 1094 b 615 1244 706 1203 669 1244 b 507 1149 561 1244 514 1203 z m 300 63 l 571 63 b 775 236 654 63 746 124 l 824 236 l 778 0 l 42 0 l 51 69 l 669 910 l 422 910 b 224 736 343 910 253 849 l 175 736 l 215 972 l 914 972 l 901 889 z "},"":{"ha":819,"x_min":0,"x_max":0,"o":"m 514 861 b 356 1071 389 861 342 969 l 422 1071 b 531 983 428 1000 488 983 b 664 1071 574 983 639 1000 l 731 1071 b 514 861 717 969 639 861 z m 760 125 b 825 42 774 79 786 63 l 819 0 l 444 0 l 450 42 b 508 167 521 56 526 97 l 492 229 l 269 229 l 238 167 b 311 42 203 96 214 56 l 306 0 l 0 0 l 6 42 b 135 125 75 56 107 69 l 463 757 l 578 757 z m 411 519 l 299 292 l 472 292 l 414 519 z "},"":{"ha":819,"x_min":0,"x_max":0,"o":"m 307 965 l 296 889 l 754 889 l 765 965 z m 760 125 b 825 42 774 79 786 63 l 819 0 l 444 0 l 450 42 b 508 167 521 56 526 97 l 492 229 l 269 229 l 238 167 b 311 42 203 96 214 56 l 306 0 l 0 0 l 6 42 b 135 125 75 56 107 69 l 463 757 l 578 757 z m 411 519 l 299 292 l 472 292 l 414 519 z "},"":{"ha":1042,"x_min":0,"x_max":0,"o":"m 724 410 l 751 410 b 864 542 786 410 836 431 l 913 542 l 867 215 l 818 215 b 743 347 822 326 778 347 l 715 347 l 675 63 l 779 63 b 981 208 856 63 950 96 l 1029 208 l 986 0 l 361 0 l 367 42 b 465 153 424 56 454 76 l 483 278 l 339 278 l 258 167 b 297 42 210 96 203 56 l 292 0 l 0 0 l 6 42 b 147 125 76 56 108 69 l 600 750 l 1076 750 l 1054 542 l 1006 542 b 853 688 1008 654 929 688 l 763 688 z m 515 526 l 382 340 l 492 340 l 518 526 z m 692 833 l 667 860 l 833 1069 b 919 983 899 1153 1021 1050 z "},"":{"ha":778,"x_min":0,"x_max":0,"o":"m 479 56 b 740 278 632 56 696 167 l 789 278 l 746 69 b 456 -14 685 35 594 -14 b 93 375 261 -14 53 83 b 565 764 135 667 371 764 b 831 681 704 764 781 715 l 815 472 l 767 472 b 569 694 756 583 694 694 b 329 375 486 694 367 639 b 479 56 293 111 396 56 z m 550 833 l 525 860 l 692 1069 b 778 983 757 1153 879 1050 z "},"":{"ha":778,"x_min":0,"x_max":0,"o":"m 479 56 b 740 278 632 56 696 167 l 789 278 l 746 69 b 456 -14 685 35 594 -14 b 93 375 261 -14 53 83 b 565 764 135 667 371 764 b 831 681 704 764 781 715 l 815 472 l 767 472 b 569 694 756 583 694 694 b 329 375 486 694 367 639 b 479 56 293 111 396 56 z m 592 979 l 751 1083 l 821 1083 l 613 833 l 529 833 l 390 1083 l 460 1083 z "},"":{"ha":778,"x_min":0,"x_max":0,"o":"m 479 56 b 740 278 632 56 696 167 l 789 278 l 746 69 b 456 -14 685 35 594 -14 b 93 375 261 -14 53 83 b 565 764 135 667 371 764 b 831 681 704 764 781 715 l 815 472 l 767 472 b 569 694 756 583 694 694 b 329 375 486 694 367 639 b 479 56 293 111 396 56 z m 571 938 l 703 833 l 772 833 l 633 1083 l 550 1083 l 342 833 l 411 833 z "},"":{"ha":778,"x_min":0,"x_max":0,"o":"m 479 56 b 740 278 632 56 696 167 l 789 278 l 746 69 b 456 -14 685 35 594 -14 b 93 375 261 -14 53 83 b 565 764 135 667 371 764 b 831 681 704 764 781 715 l 815 472 l 767 472 b 569 694 756 583 694 694 b 329 375 486 694 367 639 b 479 56 293 111 396 56 z m 492 940 b 574 844 483 886 519 844 b 683 940 628 844 675 886 b 600 1036 690 994 654 1036 b 492 940 546 1036 499 994 z "},"":{"ha":917,"x_min":0,"x_max":0,"o":"m 356 63 l 443 688 l 471 688 b 690 375 676 688 721 590 b 397 63 665 197 594 63 z m 389 0 b 926 375 688 0 893 131 b 493 750 964 639 792 750 l 146 750 l 140 708 b 208 597 194 694 219 674 l 146 153 b 47 42 135 76 104 56 l 42 0 z m 583 979 l 743 1083 l 813 1083 l 604 833 l 521 833 l 382 1083 l 451 1083 z "},"":{"ha":778,"x_min":0,"x_max":0,"o":"m 443 688 l 589 688 b 742 542 665 688 744 654 l 790 542 l 813 750 l 146 750 l 140 708 b 208 597 194 694 219 674 l 146 153 b 47 42 135 76 104 56 l 42 0 l 722 0 l 765 208 l 717 208 b 515 63 686 96 592 63 l 356 63 l 396 347 l 424 347 b 554 215 500 347 558 326 l 603 215 l 649 542 l 600 542 b 432 410 572 431 508 410 l 404 410 z m 556 861 b 397 1071 431 861 383 969 l 464 1071 b 572 983 469 1000 529 983 b 706 1071 615 983 681 1000 l 772 1071 b 556 861 758 969 681 861 z "},"":{"ha":778,"x_min":0,"x_max":0,"o":"m 443 688 l 589 688 b 742 542 665 688 744 654 l 790 542 l 813 750 l 146 750 l 140 708 b 208 597 194 694 219 674 l 146 153 b 47 42 135 76 104 56 l 42 0 l 722 0 l 765 208 l 717 208 b 515 63 686 96 592 63 l 356 63 l 396 347 l 424 347 b 554 215 500 347 558 326 l 603 215 l 649 542 l 600 542 b 432 410 572 431 508 410 l 404 410 z m 585 979 l 744 1083 l 814 1083 l 606 833 l 522 833 l 383 1083 l 453 1083 z "},"":{"ha":778,"x_min":0,"x_max":0,"o":"m 443 688 l 589 688 b 742 542 665 688 744 654 l 790 542 l 813 750 l 146 750 l 140 708 b 208 597 194 694 219 674 l 146 153 b 47 42 135 76 104 56 l 42 0 l 722 0 l 765 208 l 717 208 b 515 63 686 96 592 63 l 356 63 l 396 347 l 424 347 b 554 215 500 347 558 326 l 603 215 l 649 542 l 600 542 b 432 410 572 431 508 410 l 404 410 z m 478 940 b 560 844 469 886 506 844 b 669 940 614 844 661 886 b 586 1036 676 994 640 1036 b 478 940 532 1036 485 994 z "},"":{"ha":778,"x_min":0,"x_max":0,"o":"m 443 688 l 589 688 b 742 542 665 688 744 654 l 790 542 l 813 750 l 146 750 l 140 708 b 208 597 194 694 219 674 l 146 153 b 47 42 135 76 104 56 l 42 0 l 722 0 l 765 208 l 717 208 b 515 63 686 96 592 63 l 356 63 l 396 347 l 424 347 b 554 215 500 347 558 326 l 603 215 l 649 542 l 600 542 b 432 410 572 431 508 410 l 404 410 z m 328 965 l 317 889 l 775 889 l 786 965 z "},"":{"ha":875,"x_min":0,"x_max":0,"o":"m 479 56 b 578 76 507 56 533 58 l 594 194 b 526 306 606 271 594 292 l 533 347 l 922 347 l 915 306 b 817 194 831 292 828 271 l 803 97 b 454 -14 742 56 593 -14 b 93 375 261 -14 53 83 b 565 764 135 667 371 764 b 831 681 704 764 781 715 l 815 472 l 767 472 b 569 694 756 583 694 694 b 329 375 486 694 367 639 b 479 56 293 111 396 56 z m 567 861 b 408 1071 442 861 394 969 l 475 1071 b 583 983 481 1000 540 983 b 717 1071 626 983 692 1000 l 783 1071 b 567 861 769 969 692 861 z "},"":{"ha":875,"x_min":0,"x_max":0,"o":"m 479 56 b 578 76 507 56 533 58 l 594 194 b 526 306 606 271 594 292 l 533 347 l 922 347 l 915 306 b 817 194 831 292 828 271 l 803 97 b 454 -14 742 56 593 -14 b 93 375 261 -14 53 83 b 565 764 135 667 371 764 b 831 681 704 764 781 715 l 815 472 l 767 472 b 569 694 756 583 694 694 b 329 375 486 694 367 639 b 479 56 293 111 396 56 z m 578 938 l 710 833 l 779 833 l 640 1083 l 557 1083 l 349 833 l 418 833 z "},"":{"ha":875,"x_min":0,"x_max":0,"o":"m 479 56 b 578 76 507 56 533 58 l 594 194 b 526 306 606 271 594 292 l 533 347 l 922 347 l 915 306 b 817 194 831 292 828 271 l 803 97 b 454 -14 742 56 593 -14 b 93 375 261 -14 53 83 b 565 764 135 667 371 764 b 831 681 704 764 781 715 l 815 472 l 767 472 b 569 694 756 583 694 694 b 329 375 486 694 367 639 b 479 56 293 111 396 56 z m 429 -50 b 321 -146 379 -50 328 -96 b 397 -247 311 -211 347 -247 b 278 -433 474 -247 417 -372 l 300 -478 b 535 -203 389 -447 515 -343 b 429 -50 543 -142 532 -50 z "},"":{"ha":875,"x_min":0,"x_max":0,"o":"m 479 56 b 578 76 507 56 533 58 l 594 194 b 526 306 606 271 594 292 l 533 347 l 922 347 l 915 306 b 817 194 831 292 828 271 l 803 97 b 454 -14 742 56 593 -14 b 93 375 261 -14 53 83 b 565 764 135 667 371 764 b 831 681 704 764 781 715 l 815 472 l 767 472 b 569 694 756 583 694 694 b 329 375 486 694 367 639 b 479 56 293 111 396 56 z m 493 940 b 575 844 485 886 521 844 b 685 940 629 844 676 886 b 601 1036 692 994 656 1036 b 493 940 547 1036 500 994 z "},"":{"ha":986,"x_min":0,"x_max":0,"o":"m 944 597 b 1043 708 956 674 986 694 l 1049 750 l 660 750 l 654 708 b 722 597 708 694 733 674 l 697 417 l 406 417 l 431 597 b 529 708 442 674 472 694 l 535 750 l 146 750 l 140 708 b 208 597 194 694 219 674 l 146 153 b 47 42 135 76 104 56 l 42 0 l 431 0 l 436 42 b 368 153 382 56 357 76 l 396 354 l 688 354 l 660 153 b 561 42 649 76 618 56 l 556 0 l 944 0 l 950 42 b 882 153 896 56 871 76 z m 629 938 l 761 833 l 831 833 l 692 1083 l 608 1083 l 400 833 l 469 833 z "},"":{"ha":472,"x_min":0,"x_max":0,"o":"m 431 597 b 529 708 442 674 472 694 l 535 750 l 146 750 l 140 708 b 208 597 194 694 219 674 l 146 153 b 47 42 135 76 104 56 l 42 0 l 431 0 l 436 42 b 368 153 382 56 357 76 z m 354 861 b 196 1071 229 861 182 969 l 263 1071 b 371 983 268 1000 328 983 b 504 1071 414 983 479 1000 l 571 1071 b 354 861 557 969 479 861 z "},"":{"ha":472,"x_min":0,"x_max":0,"o":"m 431 597 b 529 708 442 674 472 694 l 535 750 l 146 750 l 140 708 b 208 597 194 694 219 674 l 146 153 b 47 42 135 76 104 56 l 42 0 l 431 0 l 436 42 b 368 153 382 56 357 76 z m 269 940 b 351 844 261 886 297 844 b 461 940 406 844 453 886 b 378 1036 468 994 432 1036 b 269 940 324 1036 276 994 z "},"":{"ha":472,"x_min":0,"x_max":0,"o":"m 432 597 b 531 708 443 674 474 694 l 536 750 l 147 750 l 142 708 b 210 597 196 694 221 674 l 147 153 b 49 42 136 76 106 56 l 43 0 l 432 0 l 438 42 b 369 153 383 56 358 76 z m 142 965 l 131 889 l 589 889 l 600 965 z "},"":{"ha":472,"x_min":0,"x_max":0,"o":"m 432 597 b 531 708 443 674 474 694 l 536 750 l 147 750 l 142 708 b 210 597 196 694 221 674 l 147 153 b 49 42 136 76 106 56 l 43 0 l 432 0 l 438 42 b 369 153 383 56 358 76 z m 132 847 b 244 903 158 874 194 903 b 465 847 310 903 400 847 b 649 1014 529 847 611 956 l 604 1042 b 494 1000 578 1014 543 1000 b 279 1056 440 1000 335 1056 b 88 875 215 1056 125 935 z "},"":{"ha":556,"x_min":0,"x_max":0,"o":"m 514 597 b 613 708 525 674 556 694 l 618 750 l 229 750 l 224 708 b 292 597 278 694 303 674 l 258 361 b 106 104 235 194 256 -37 b 81 -14 8 196 -92 -14 b 489 417 324 -14 457 194 z m 450 938 l 582 833 l 651 833 l 513 1083 l 429 1083 l 221 833 l 290 833 z "},"":{"ha":889,"x_min":0,"x_max":0,"o":"m 406 424 b 531 472 447 424 492 432 l 660 597 b 626 708 715 656 725 694 l 632 750 l 958 750 l 953 708 b 783 639 876 694 832 686 l 590 451 l 761 174 b 881 42 833 57 849 63 l 875 0 l 514 0 l 519 42 b 513 146 547 49 558 64 l 446 257 b 392 319 422 297 406 319 l 368 153 b 436 42 357 76 382 56 l 431 0 l 42 0 l 47 42 b 146 153 104 56 135 76 l 208 597 b 140 708 219 674 194 694 l 146 750 l 535 750 l 529 708 b 431 597 472 694 442 674 z m 443 -50 b 335 -146 393 -50 342 -96 b 411 -247 325 -211 361 -247 b 292 -433 488 -247 431 -372 l 314 -478 b 549 -203 403 -447 529 -343 b 443 -50 557 -142 546 -50 z "},"":{"ha":750,"x_min":0,"x_max":0,"o":"m 146 153 b 47 42 135 76 104 56 l 42 0 l 722 0 l 765 208 l 717 208 b 515 63 686 96 592 63 l 356 63 l 431 597 b 529 708 442 674 472 694 l 535 750 l 146 750 l 140 708 b 208 597 194 694 219 674 z m 360 833 l 335 860 l 501 1069 b 588 983 567 1153 689 1050 z "},"":{"ha":750,"x_min":0,"x_max":0,"o":"m 146 153 b 47 42 135 76 104 56 l 42 0 l 722 0 l 765 208 l 717 208 b 515 63 686 96 592 63 l 356 63 l 431 597 b 529 708 442 674 472 694 l 535 750 l 146 750 l 140 708 b 208 597 194 694 219 674 z m 726 783 b 618 688 676 783 625 738 b 694 586 608 622 644 586 b 575 400 771 586 714 461 l 597 356 b 832 631 686 386 813 490 b 726 783 840 692 829 783 z "},"":{"ha":750,"x_min":0,"x_max":0,"o":"m 146 153 b 47 42 135 76 104 56 l 42 0 l 722 0 l 765 208 l 717 208 b 515 63 686 96 592 63 l 356 63 l 431 597 b 529 708 442 674 472 694 l 535 750 l 146 750 l 140 708 b 208 597 194 694 219 674 z m 397 -50 b 289 -146 347 -50 296 -96 b 365 -247 279 -211 315 -247 b 246 -433 442 -247 385 -372 l 268 -478 b 503 -203 357 -447 483 -343 b 397 -50 511 -142 500 -50 z "},"":{"ha":750,"x_min":0,"x_max":0,"o":"m 146 153 b 47 42 135 76 104 56 l 42 0 l 722 0 l 765 208 l 717 208 b 515 63 686 96 592 63 l 356 63 l 431 597 b 529 708 442 674 472 694 l 535 750 l 146 750 l 140 708 b 208 597 194 694 219 674 z m 528 401 b 610 306 519 347 556 306 b 719 401 664 306 711 347 b 636 497 726 456 690 497 b 528 401 582 497 535 456 z "},"":{"ha":931,"x_min":0,"x_max":0,"o":"m 749 292 l 465 750 l 146 750 l 140 708 b 243 597 222 694 254 674 l 181 153 b 47 42 169 76 132 56 l 42 0 l 361 0 l 367 42 b 257 153 257 56 246 76 l 315 569 l 653 0 l 785 0 l 868 597 b 1001 708 879 674 917 694 l 1007 750 l 688 750 l 682 708 b 792 597 792 694 803 674 z m 600 833 l 575 860 l 742 1069 b 828 983 807 1153 929 1050 z "},"":{"ha":931,"x_min":0,"x_max":0,"o":"m 749 292 l 465 750 l 146 750 l 140 708 b 243 597 222 694 254 674 l 181 153 b 47 42 169 76 132 56 l 42 0 l 361 0 l 367 42 b 257 153 257 56 246 76 l 315 569 l 653 0 l 785 0 l 868 597 b 1001 708 879 674 917 694 l 1007 750 l 688 750 l 682 708 b 792 597 792 694 803 674 z m 622 979 l 782 1083 l 851 1083 l 643 833 l 560 833 l 421 1083 l 490 1083 z "},"":{"ha":931,"x_min":0,"x_max":0,"o":"m 749 292 l 465 750 l 146 750 l 140 708 b 243 597 222 694 254 674 l 181 153 b 47 42 169 76 132 56 l 42 0 l 361 0 l 367 42 b 257 153 257 56 246 76 l 315 569 l 653 0 l 785 0 l 868 597 b 1001 708 879 674 917 694 l 1007 750 l 688 750 l 682 708 b 792 597 792 694 803 674 z m 446 -50 b 338 -146 396 -50 344 -96 b 414 -247 328 -211 364 -247 b 294 -433 490 -247 433 -372 l 317 -478 b 551 -203 406 -447 532 -343 b 446 -50 560 -142 549 -50 z "},"":{"ha":917,"x_min":0,"x_max":0,"o":"m 93 375 b 456 -14 58 125 236 -14 b 926 375 675 -14 892 125 b 565 764 963 625 785 764 b 93 375 346 764 129 625 z m 329 375 b 556 694 367 639 460 694 b 690 375 651 694 728 639 b 465 56 654 111 561 56 b 329 375 369 56 293 111 z m 581 861 b 422 1071 456 861 408 969 l 489 1071 b 597 983 494 1000 554 983 b 731 1071 640 983 706 1000 l 797 1071 b 581 861 783 969 706 861 z "},"":{"ha":917,"x_min":0,"x_max":0,"o":"m 93 375 b 456 -14 58 125 236 -14 b 926 375 675 -14 892 125 b 565 764 963 625 785 764 b 93 375 346 764 129 625 z m 329 375 b 556 694 367 639 460 694 b 690 375 651 694 728 639 b 465 56 654 111 561 56 b 329 375 369 56 293 111 z m 474 833 l 432 854 l 538 1106 b 653 1046 572 1189 717 1125 z m 696 833 l 654 854 l 760 1106 b 875 1046 794 1189 939 1125 z "},"":{"ha":917,"x_min":0,"x_max":0,"o":"m 93 375 b 456 -14 58 125 236 -14 b 926 375 675 -14 892 125 b 565 764 963 625 785 764 b 93 375 346 764 129 625 z m 329 375 b 556 694 367 639 460 694 b 690 375 651 694 728 639 b 465 56 654 111 561 56 b 329 375 369 56 293 111 z m 356 965 l 344 889 l 803 889 l 814 965 z "},"":{"ha":917,"x_min":0,"x_max":0,"o":"m 578 833 l 553 860 l 719 1069 b 806 983 785 1153 907 1050 z m 99 26 l 142 -21 l 222 51 b 456 -14 285 8 367 -14 b 926 375 675 -14 892 125 b 865 635 942 483 917 571 l 942 704 l 901 757 l 819 682 b 565 764 753 736 664 764 b 93 375 346 764 129 625 b 172 93 76 254 110 160 z m 329 375 b 556 694 367 639 460 694 b 694 568 621 694 676 668 l 321 228 b 329 375 319 268 321 315 z m 690 375 b 465 56 654 111 561 56 b 333 151 407 56 356 76 l 700 485 b 690 375 699 453 697 417 z "},"":{"ha":847,"x_min":0,"x_max":0,"o":"m 513 833 l 488 860 l 654 1069 b 740 983 719 1153 842 1050 z m 839 535 b 549 750 860 688 757 750 l 146 750 l 140 708 b 208 597 194 694 219 674 l 146 153 b 47 42 135 76 104 56 l 42 0 l 431 0 l 436 42 b 368 153 382 56 357 76 l 392 319 l 425 319 l 499 97 b 569 0 513 56 536 28 l 847 0 l 853 42 b 731 167 800 63 757 121 l 633 347 b 839 535 751 385 828 458 z m 400 382 l 443 688 l 485 688 b 610 535 596 688 625 646 b 428 382 592 413 525 382 z "},"":{"ha":847,"x_min":0,"x_max":0,"o":"m 544 979 l 704 1083 l 774 1083 l 565 833 l 482 833 l 343 1083 l 413 1083 z m 839 535 b 549 750 860 688 757 750 l 146 750 l 140 708 b 208 597 194 694 219 674 l 146 153 b 47 42 135 76 104 56 l 42 0 l 431 0 l 436 42 b 368 153 382 56 357 76 l 392 319 l 425 319 l 499 97 b 569 0 513 56 536 28 l 847 0 l 853 42 b 731 167 800 63 757 121 l 633 347 b 839 535 751 385 828 458 z m 400 382 l 443 688 l 485 688 b 610 535 596 688 625 646 b 428 382 592 413 525 382 z "},"":{"ha":847,"x_min":0,"x_max":0,"o":"m 447 -50 b 339 -146 397 -50 346 -96 b 415 -247 329 -211 365 -247 b 296 -433 492 -247 435 -372 l 318 -478 b 553 -203 407 -447 533 -343 b 447 -50 561 -142 550 -50 z m 839 535 b 549 750 860 688 757 750 l 146 750 l 140 708 b 208 597 194 694 219 674 l 146 153 b 47 42 135 76 104 56 l 42 0 l 431 0 l 436 42 b 368 153 382 56 357 76 l 392 319 l 425 319 l 499 97 b 569 0 513 56 536 28 l 847 0 l 853 42 b 731 167 800 63 757 121 l 633 347 b 839 535 751 385 828 458 z m 400 382 l 443 688 l 485 688 b 610 535 596 688 625 646 b 428 382 592 413 525 382 z "},"":{"ha":660,"x_min":0,"x_max":0,"o":"m 639 521 l 653 715 b 435 764 596 744 506 764 b 118 551 238 764 135 669 b 294 299 100 422 153 364 b 417 157 410 247 422 197 b 306 56 407 89 353 56 b 143 243 261 56 167 69 l 89 243 l 75 40 b 311 -14 131 7 235 -14 b 642 225 482 -14 622 82 b 418 500 661 361 604 418 b 335 610 371 521 326 551 b 432 694 343 669 394 694 b 588 521 514 694 560 642 z m 425 833 l 400 860 l 567 1069 b 653 983 632 1153 754 1050 z "},"":{"ha":660,"x_min":0,"x_max":0,"o":"m 639 521 l 653 715 b 435 764 596 744 506 764 b 118 551 238 764 135 669 b 294 299 100 422 153 364 b 417 157 410 247 422 197 b 306 56 407 89 353 56 b 143 243 261 56 167 69 l 89 243 l 75 40 b 311 -14 131 7 235 -14 b 642 225 482 -14 622 82 b 418 500 661 361 604 418 b 335 610 371 521 326 551 b 432 694 343 669 394 694 b 588 521 514 694 560 642 z m 447 938 l 579 833 l 649 833 l 510 1083 l 426 1083 l 218 833 l 288 833 z "},"":{"ha":660,"x_min":0,"x_max":0,"o":"m 639 521 l 653 715 b 435 764 596 744 506 764 b 118 551 238 764 135 669 b 294 299 100 422 153 364 b 417 157 410 247 422 197 b 306 56 407 89 353 56 b 143 243 261 56 167 69 l 89 243 l 75 40 b 311 -14 131 7 235 -14 b 642 225 482 -14 622 82 b 418 500 661 361 604 418 b 335 610 371 521 326 551 b 432 694 343 669 394 694 b 588 521 514 694 560 642 z m 297 -50 b 189 -146 247 -50 196 -96 b 265 -247 179 -211 215 -247 b 146 -433 342 -247 285 -372 l 168 -478 b 403 -203 257 -447 383 -343 b 297 -50 411 -142 400 -50 z "},"":{"ha":750,"x_min":0,"x_max":0,"o":"m 819 750 l 797 542 l 749 542 b 624 688 751 654 700 688 l 582 688 l 507 153 b 575 42 496 76 521 56 l 569 0 l 181 0 l 186 42 b 285 153 243 56 274 76 l 360 688 l 318 688 b 151 542 242 688 182 654 l 103 542 l 139 750 z m 511 979 l 671 1083 l 740 1083 l 532 833 l 449 833 l 310 1083 l 379 1083 z "},"":{"ha":750,"x_min":0,"x_max":0,"o":"m 819 750 l 797 542 l 749 542 b 624 688 751 654 700 688 l 582 688 l 507 153 b 575 42 496 76 521 56 l 569 0 l 181 0 l 186 42 b 285 153 243 56 274 76 l 360 688 l 318 688 b 151 542 242 688 182 654 l 103 542 l 139 750 z m 350 -50 b 242 -146 300 -50 249 -96 b 318 -247 232 -211 268 -247 b 199 -433 394 -247 338 -372 l 221 -478 b 456 -203 310 -447 436 -343 b 350 -50 464 -142 453 -50 z "},"":{"ha":972,"x_min":0,"x_max":0,"o":"m 792 347 b 531 69 765 167 690 69 b 382 347 413 69 353 139 l 417 597 b 515 708 428 674 458 694 l 521 750 l 132 750 l 126 708 b 194 597 181 694 206 674 l 157 333 b 476 -14 125 107 247 -14 b 865 333 661 -14 832 97 l 903 597 b 1043 708 914 674 944 694 l 1049 750 l 715 750 l 710 708 b 826 597 819 694 838 674 z m 633 861 b 475 1071 508 861 461 969 l 542 1071 b 650 983 547 1000 607 983 b 783 1071 693 983 758 1000 l 850 1071 b 633 861 836 969 758 861 z "},"":{"ha":972,"x_min":0,"x_max":0,"o":"m 792 347 b 531 69 765 167 690 69 b 382 347 413 69 353 139 l 417 597 b 515 708 428 674 458 694 l 521 750 l 132 750 l 126 708 b 194 597 181 694 206 674 l 157 333 b 476 -14 125 107 247 -14 b 865 333 661 -14 832 97 l 903 597 b 1043 708 914 674 944 694 l 1049 750 l 715 750 l 710 708 b 826 597 819 694 838 674 z m 524 833 l 482 854 l 588 1106 b 703 1046 622 1189 767 1125 z m 746 833 l 704 854 l 810 1106 b 925 1046 844 1189 989 1125 z "},"":{"ha":972,"x_min":0,"x_max":0,"o":"m 792 347 b 531 69 765 167 690 69 b 382 347 413 69 353 139 l 417 597 b 515 708 428 674 458 694 l 521 750 l 132 750 l 126 708 b 194 597 181 694 206 674 l 157 333 b 476 -14 125 107 247 -14 b 865 333 661 -14 832 97 l 903 597 b 1043 708 914 674 944 694 l 1049 750 l 715 750 l 710 708 b 826 597 819 694 838 674 z m 419 965 l 408 889 l 867 889 l 878 965 z "},"":{"ha":972,"x_min":0,"x_max":0,"o":"m 792 347 b 531 69 765 167 690 69 b 382 347 413 69 353 139 l 417 597 b 515 708 428 674 458 694 l 521 750 l 132 750 l 126 708 b 194 597 181 694 206 674 l 157 333 b 476 -14 125 107 247 -14 b 865 333 661 -14 832 97 l 903 597 b 1043 708 914 674 944 694 l 1049 750 l 715 750 l 710 708 b 826 597 819 694 838 674 z m 513 954 b 628 821 501 878 551 821 b 781 954 703 821 769 878 b 665 1089 792 1029 740 1089 b 513 954 589 1089 524 1029 z m 571 954 b 657 1031 576 997 615 1031 b 722 954 700 1031 728 997 b 635 879 717 913 678 879 b 571 954 593 879 565 913 z "},"":{"ha":972,"x_min":0,"x_max":0,"o":"m 792 347 b 531 69 765 167 690 69 b 382 347 413 69 353 139 l 417 597 b 515 708 428 674 458 694 l 521 750 l 132 750 l 126 708 b 194 597 181 694 206 674 l 157 333 b 476 -14 125 107 247 -14 b 865 333 661 -14 832 97 l 903 597 b 1043 708 914 674 944 694 l 1049 750 l 715 750 l 710 708 b 826 597 819 694 838 674 z m 414 847 b 526 903 440 874 476 903 b 747 847 592 903 682 847 b 931 1014 811 847 893 956 l 886 1042 b 776 1000 860 1014 825 1000 b 561 1056 722 1000 617 1056 b 369 875 497 1056 407 935 z "},"":{"ha":1222,"x_min":0,"x_max":0,"o":"m 622 625 b 557 708 613 672 596 688 l 563 750 l 938 750 l 932 708 b 860 583 861 694 849 657 l 913 231 l 915 231 l 1089 583 b 1015 708 1125 654 1113 694 l 1021 750 l 1326 750 l 1321 708 b 1192 625 1251 694 1219 681 l 865 -7 l 749 -7 l 661 451 l 426 -7 l 311 -7 l 164 625 b 99 708 153 672 138 688 l 104 750 l 479 750 l 474 708 b 415 583 403 694 401 654 l 476 231 l 479 231 l 640 538 z m 753 833 l 728 860 l 894 1069 b 981 983 960 1153 1082 1050 z "},"":{"ha":1222,"x_min":0,"x_max":0,"o":"m 622 625 b 557 708 613 672 596 688 l 563 750 l 938 750 l 932 708 b 860 583 861 694 849 657 l 913 231 l 915 231 l 1089 583 b 1015 708 1125 654 1113 694 l 1021 750 l 1326 750 l 1321 708 b 1192 625 1251 694 1219 681 l 865 -7 l 749 -7 l 661 451 l 426 -7 l 311 -7 l 164 625 b 99 708 153 672 138 688 l 104 750 l 479 750 l 474 708 b 415 583 403 694 401 654 l 476 231 l 479 231 l 640 538 z m 772 938 l 904 833 l 974 833 l 835 1083 l 751 1083 l 543 833 l 613 833 z "},"":{"ha":1222,"x_min":0,"x_max":0,"o":"m 622 625 b 557 708 613 672 596 688 l 563 750 l 938 750 l 932 708 b 860 583 861 694 849 657 l 913 231 l 915 231 l 1089 583 b 1015 708 1125 654 1113 694 l 1021 750 l 1326 750 l 1321 708 b 1192 625 1251 694 1219 681 l 865 -7 l 749 -7 l 661 451 l 426 -7 l 311 -7 l 164 625 b 99 708 153 672 138 688 l 104 750 l 479 750 l 474 708 b 415 583 403 694 401 654 l 476 231 l 479 231 l 640 538 z m 549 924 b 625 836 542 871 575 836 b 728 924 676 836 721 871 b 650 1014 735 976 701 1014 b 549 924 600 1014 556 976 z m 819 924 b 897 836 813 871 846 836 b 999 924 947 836 992 871 b 922 1014 1006 976 972 1014 b 819 924 871 1014 826 976 z "},"":{"ha":1222,"x_min":0,"x_max":0,"o":"m 622 625 b 557 708 613 672 596 688 l 563 750 l 938 750 l 932 708 b 860 583 861 694 849 657 l 913 231 l 915 231 l 1089 583 b 1015 708 1125 654 1113 694 l 1021 750 l 1326 750 l 1321 708 b 1192 625 1251 694 1219 681 l 865 -7 l 749 -7 l 661 451 l 426 -7 l 311 -7 l 164 625 b 99 708 153 672 138 688 l 104 750 l 479 750 l 474 708 b 415 583 403 694 401 654 l 476 231 l 479 231 l 640 538 z m 754 833 l 785 860 l 679 1069 b 568 983 636 1153 486 1050 z "},"":{"ha":778,"x_min":0,"x_max":0,"o":"m 164 625 b 85 708 144 669 124 688 l 90 750 l 451 750 l 446 708 b 408 583 375 694 382 650 l 503 333 l 506 333 l 650 576 b 585 708 690 644 682 694 l 590 750 l 896 750 l 890 708 b 754 625 821 694 786 681 l 561 293 l 542 153 b 610 42 531 76 556 56 l 604 0 l 215 0 l 221 42 b 319 153 278 56 308 76 l 329 226 z m 547 938 l 679 833 l 749 833 l 610 1083 l 526 1083 l 318 833 l 388 833 z "},"":{"ha":778,"x_min":0,"x_max":0,"o":"m 164 625 b 85 708 144 669 124 688 l 90 750 l 451 750 l 446 708 b 408 583 375 694 382 650 l 503 333 l 506 333 l 650 576 b 585 708 690 644 682 694 l 590 750 l 896 750 l 890 708 b 754 625 821 694 786 681 l 561 293 l 542 153 b 610 42 531 76 556 56 l 604 0 l 215 0 l 221 42 b 319 153 278 56 308 76 l 329 226 z m 521 833 l 551 860 l 446 1069 b 335 983 403 1153 253 1050 z "},"":{"ha":743,"x_min":0,"x_max":0,"o":"m 293 63 l 481 63 b 682 208 564 63 651 96 l 731 208 l 688 0 l 35 0 l 44 69 l 547 688 l 383 688 b 189 542 304 688 219 654 l 140 542 l 176 750 l 792 750 l 781 667 z m 469 833 l 444 860 l 611 1069 b 697 983 676 1153 799 1050 z "},"":{"ha":743,"x_min":0,"x_max":0,"o":"m 293 63 l 481 63 b 682 208 564 63 651 96 l 731 208 l 688 0 l 35 0 l 44 69 l 547 688 l 383 688 b 189 542 304 688 219 654 l 140 542 l 176 750 l 792 750 l 781 667 z m 422 940 b 504 844 414 886 450 844 b 614 940 558 844 606 886 b 531 1036 621 994 585 1036 b 422 940 476 1036 429 994 z "},"ă":{"ha":818,"x_min":0,"x_max":0,"o":""},"ā":{"ha":818,"x_min":0,"x_max":0,"o":""},"ą":{"ha":818,"x_min":0,"x_max":0,"o":"m 724 -271 b 590 -326 694 -303 632 -326 b 619 -11 424 -326 428 -146 b 507 150 522 0 492 64 l 504 150 b 307 -14 465 63 404 -14 b 106 347 154 -14 71 139 b 514 708 147 594 340 708 b 676 661 554 708 622 700 l 751 701 l 807 701 l 728 153 b 756 97 722 110 743 97 b 832 208 781 97 797 122 l 881 188 b 686 -11 849 86 804 1 b 731 -222 567 -121 554 -290 z m 390 104 b 539 375 446 104 515 208 l 549 444 b 500 653 567 576 571 653 b 333 347 421 653 364 553 b 390 104 306 167 335 104 z "},"ǽ":{"ha":1035,"x_min":0,"x_max":0,"o":"m 665 764 l 640 790 l 807 1000 b 893 914 872 1083 994 981 z m 329 125 b 275 181 292 125 275 153 b 350 271 275 238 301 261 l 425 285 b 443 160 422 236 429 194 b 329 125 390 125 350 125 z m 714 -14 b 1042 236 888 -14 999 125 l 1000 236 b 807 146 965 188 904 146 b 657 310 726 146 663 192 b 854 708 1144 335 1135 708 b 639 656 790 708 715 697 b 474 708 603 690 546 708 b 114 417 265 708 86 504 b 283 486 129 369 333 432 b 379 625 250 521 254 625 b 446 458 463 625 464 569 l 426 340 l 251 313 b 49 153 139 294 61 239 b 178 -14 35 58 96 -14 b 472 97 251 -14 333 -6 b 714 -14 518 29 596 -14 z m 813 639 b 661 367 903 639 838 385 b 813 639 674 539 740 639 z "},"ć":{"ha":717,"x_min":0,"x_max":0,"o":""},"č":{"ha":717,"x_min":0,"x_max":0,"o":""},"ĉ":{"ha":717,"x_min":0,"x_max":0,"o":""},"ċ":{"ha":717,"x_min":0,"x_max":0,"o":""},"ď":{"ha":863,"x_min":0,"x_max":0,"o":"m 390 104 b 333 347 335 104 306 167 b 576 639 369 586 449 681 l 539 375 b 390 104 515 208 446 104 z m 585 694 b 106 347 397 750 154 639 b 307 -14 71 139 154 -14 b 506 150 404 -14 467 63 l 508 150 b 654 -14 492 56 532 -14 b 883 188 796 -14 849 76 l 835 208 b 758 97 800 122 783 97 b 731 153 746 97 725 110 l 860 1069 l 846 1069 l 558 1007 l 553 965 b 608 861 593 951 618 931 z m 1061 1089 b 953 993 1011 1089 960 1043 b 1029 892 943 928 979 892 b 910 706 1106 892 1049 767 l 932 661 b 1167 936 1021 692 1147 796 b 1061 1089 1175 997 1164 1089 z "},"đ":{"ha":831,"x_min":0,"x_max":0,"o":"m 390 104 b 333 347 335 104 306 167 b 576 639 369 586 449 681 l 539 375 b 390 104 515 208 446 104 z m 654 -14 b 883 188 796 -14 849 76 l 835 208 b 758 97 800 122 783 97 b 731 153 746 97 725 110 l 815 757 l 899 757 l 907 819 l 825 819 l 860 1069 l 846 1069 l 558 1007 l 553 965 b 608 861 593 951 618 931 l 603 819 l 532 819 l 524 757 l 593 757 l 585 694 b 106 347 397 750 154 639 b 307 -14 71 139 154 -14 b 506 150 404 -14 467 63 l 508 150 b 654 -14 492 56 532 -14 z "},"ĕ":{"ha":721,"x_min":0,"x_max":0,"o":""},"ě":{"ha":721,"x_min":0,"x_max":0,"o":""},"ė":{"ha":721,"x_min":0,"x_max":0,"o":""},"ē":{"ha":721,"x_min":0,"x_max":0,"o":""},"ę":{"ha":721,"x_min":0,"x_max":0,"o":"m 463 -222 b 419 -11 286 -290 299 -119 b 708 236 569 10 668 135 l 667 236 b 474 146 632 188 571 146 b 325 307 393 146 331 189 b 496 708 803 250 867 708 b 104 340 335 708 138 576 b 350 -12 78 160 142 -1 b 322 -326 160 -147 157 -326 b 456 -271 364 -326 426 -303 z m 479 639 b 328 363 617 639 551 350 b 479 639 340 535 407 639 z "},"ğ":{"ha":749,"x_min":0,"x_max":0,"o":""},"ĝ":{"ha":749,"x_min":0,"x_max":0,"o":""},"ģ":{"ha":749,"x_min":0,"x_max":0,"o":"m 318 451 b 428 639 326 581 368 639 b 493 457 481 639 503 576 b 390 271 483 339 460 271 b 318 451 342 271 310 321 z m 431 -104 b 542 -181 490 -112 542 -132 b 361 -306 542 -274 444 -306 b 222 -208 292 -306 222 -285 b 243 -76 222 -153 229 -125 z m 246 229 b 90 63 163 188 90 139 b 201 -62 90 -28 169 -50 b 28 -236 103 -107 28 -153 b 306 -375 28 -326 133 -375 b 736 -83 500 -375 736 -254 b 506 111 736 14 674 92 l 326 132 b 257 167 274 138 257 146 b 292 215 257 186 278 203 b 374 201 313 208 346 201 b 708 458 547 201 686 299 b 667 608 717 521 694 579 l 667 611 l 806 611 l 818 694 l 614 674 b 444 708 567 690 528 708 b 103 454 271 708 125 604 b 246 229 89 347 160 257 z m 556 1186 b 447 1090 506 1186 454 1140 b 524 989 438 1025 474 989 b 404 803 600 989 543 864 l 426 758 b 661 1033 515 789 642 893 b 556 1186 669 1094 658 1186 z "},"ġ":{"ha":749,"x_min":0,"x_max":0,"o":""},"ħ":{"ha":806,"x_min":0,"x_max":0,"o":"m 83 0 l 306 0 l 347 299 b 507 569 365 431 450 569 b 540 486 542 569 549 549 l 493 153 b 639 -14 479 56 517 -14 b 868 188 781 -14 833 76 l 819 208 b 743 97 785 122 768 97 b 715 153 731 97 710 110 l 764 500 b 633 708 786 653 726 708 b 378 514 532 708 435 635 l 375 514 l 410 757 l 494 757 l 503 819 l 419 819 l 456 1069 l 444 1069 l 154 1007 l 149 965 b 204 861 215 965 214 931 l 199 819 l 128 819 l 119 757 l 189 757 z "},"ĥ":{"ha":806,"x_min":0,"x_max":0,"o":""},"ĭ":{"ha":474,"x_min":0,"x_max":0,"o":""},"ī":{"ha":474,"x_min":0,"x_max":0,"o":""},"į":{"ha":474,"x_min":0,"x_max":0,"o":"m 372 -222 b 326 -12 197 -290 208 -122 b 536 188 454 -6 503 81 l 488 208 b 411 97 453 122 436 97 b 383 153 399 97 378 110 l 438 544 b 292 708 450 639 414 708 b 63 507 150 708 97 618 l 111 486 b 188 597 146 572 163 597 b 215 542 200 597 221 585 l 161 153 b 264 -10 149 68 176 4 b 232 -326 69 -144 65 -326 b 365 -271 274 -326 336 -303 z m 256 940 b 365 813 244 869 294 813 b 513 940 436 813 501 869 b 401 1069 522 1011 472 1069 b 256 940 331 1069 265 1011 z "},"ĩ":{"ha":474,"x_min":0,"x_max":0,"o":""},"ĳ":{"ha":860,"x_min":0,"x_max":0,"o":"m 161 153 b 307 -14 147 56 185 -14 b 536 188 449 -14 501 76 l 488 208 b 411 97 453 122 436 97 b 383 153 399 97 378 110 l 438 544 b 292 708 450 639 414 708 b 63 507 150 708 97 618 l 111 486 b 188 597 146 572 163 597 b 215 542 200 597 221 585 z m 256 940 b 365 813 244 869 294 813 b 513 940 436 813 501 869 b 401 1069 522 1011 472 1069 b 256 940 331 1069 265 1011 z m 578 63 b 454 -236 547 -153 622 -328 b 449 -375 376 -194 296 -375 b 800 63 558 -375 765 -181 l 868 549 b 722 708 882 643 844 708 b 493 507 581 708 528 618 l 542 486 b 618 597 576 572 593 597 b 646 542 631 597 651 585 z m 685 940 b 794 813 674 869 724 813 b 942 940 865 813 931 869 b 831 1069 951 1011 901 1069 b 685 940 760 1069 694 1011 z "},"ĵ":{"ha":433,"x_min":0,"x_max":0,"o":"m 154 63 b 31 -236 124 -153 199 -328 b 25 -375 -47 -194 -128 -375 b 376 63 135 -375 342 -181 l 444 549 b 299 708 458 643 421 708 b 69 507 157 708 104 618 l 118 486 b 194 597 153 572 169 597 b 222 542 207 597 228 585 z m 378 868 l 510 764 l 579 764 l 440 1014 l 357 1014 l 149 764 l 218 764 z "},"":{"ha":433,"x_min":0,"x_max":0,"o":"m 154 63 b 31 -236 124 -153 199 -328 b 25 -375 -47 -194 -128 -375 b 376 63 135 -375 342 -181 l 444 549 b 299 708 458 643 421 708 b 69 507 157 708 104 618 l 118 486 b 194 597 153 572 169 597 b 222 542 207 597 228 585 z "},"ķ":{"ha":819,"x_min":0,"x_max":0,"o":"m 456 1069 l 444 1069 l 154 1007 l 149 965 b 204 861 215 965 214 931 l 83 0 l 306 0 l 354 351 b 374 354 361 353 367 353 l 460 115 b 639 -14 492 28 542 -14 b 882 188 781 -14 838 71 l 833 208 b 747 111 803 129 772 111 b 674 176 717 111 693 129 l 575 408 b 764 625 710 471 760 569 b 613 625 772 736 597 736 b 361 397 625 524 536 435 z m 404 -50 b 296 -146 354 -50 303 -96 b 372 -247 286 -211 322 -247 b 253 -433 449 -247 392 -372 l 275 -478 b 510 -203 364 -447 490 -343 b 404 -50 518 -142 507 -50 z "},"ĸ":{"ha":819,"x_min":0,"x_max":0,"o":"m 404 708 l 393 708 l 103 646 l 97 604 b 153 500 164 604 163 569 l 83 0 l 306 0 l 354 351 b 374 354 361 353 367 353 l 460 115 b 639 -14 492 28 542 -14 b 882 188 781 -14 838 71 l 833 208 b 747 111 803 129 772 111 b 674 176 717 111 693 129 l 575 408 b 764 625 710 471 760 569 b 613 625 772 736 597 736 b 361 397 625 524 536 435 z "},"ĺ":{"ha":419,"x_min":0,"x_max":0,"o":"m 451 1069 l 440 1069 l 150 1007 l 144 965 b 200 861 211 965 210 931 l 100 153 b 246 -14 86 56 124 -14 b 475 188 388 -14 440 76 l 426 208 b 350 97 392 122 375 97 b 322 153 338 97 317 110 z m 306 1125 l 281 1151 l 447 1361 b 533 1275 513 1444 635 1342 z "},"ľ":{"ha":422,"x_min":0,"x_max":0,"o":"m 451 1069 l 440 1069 l 150 1007 l 144 965 b 200 861 211 965 210 931 l 100 153 b 246 -14 86 56 124 -14 b 475 188 388 -14 440 76 l 426 208 b 350 97 392 122 375 97 b 322 153 338 97 317 110 z m 640 1089 b 532 993 590 1089 539 1043 b 608 892 522 928 558 892 b 489 706 685 892 628 767 l 511 661 b 746 936 600 692 726 796 b 640 1089 754 997 743 1089 z "},"ļ":{"ha":415,"x_min":0,"x_max":0,"o":"m 454 1069 l 443 1069 l 153 1007 l 147 965 b 203 861 214 965 213 931 l 103 153 b 249 -14 89 56 126 -14 b 478 188 390 -14 443 76 l 429 208 b 353 97 394 122 378 97 b 325 153 340 97 319 110 z m 199 -50 b 90 -146 149 -50 97 -96 b 167 -247 81 -211 117 -247 b 47 -433 243 -247 186 -372 l 69 -478 b 304 -203 158 -447 285 -343 b 199 -50 313 -142 301 -50 z "},"ŀ":{"ha":506,"x_min":0,"x_max":0,"o":"m 451 1069 l 440 1069 l 150 1007 l 144 965 b 200 861 211 965 210 931 l 100 153 b 246 -14 86 56 124 -14 b 475 188 388 -14 440 76 l 426 208 b 350 97 392 122 375 97 b 322 153 338 97 317 110 z m 449 497 b 526 410 442 444 476 410 b 626 497 576 410 619 444 b 551 588 635 550 601 588 b 449 497 501 588 457 550 z "},"ń":{"ha":863,"x_min":0,"x_max":0,"o":""},"ŉ":{"ha":863,"x_min":0,"x_max":0,"o":"m 438 544 b 292 708 454 639 414 708 b 63 507 150 708 97 618 l 111 486 b 188 597 146 572 163 597 b 215 542 200 597 221 585 l 140 0 l 363 0 l 404 299 b 564 569 422 431 507 569 b 597 486 599 569 606 549 l 550 153 b 696 -14 536 56 574 -14 b 925 188 838 -14 890 76 l 876 208 b 800 97 842 122 825 97 b 772 153 788 97 767 110 l 821 500 b 690 708 843 653 783 708 b 435 514 589 708 492 635 l 432 514 z m 396 1186 b 288 1090 346 1186 294 1140 b 364 989 278 1025 314 989 b 244 803 440 989 383 864 l 267 758 b 501 1033 356 789 482 893 b 396 1186 510 1094 499 1186 z "},"ň":{"ha":863,"x_min":0,"x_max":0,"o":""},"ņ":{"ha":863,"x_min":0,"x_max":0,"o":"m 438 544 b 292 708 454 639 414 708 b 63 507 150 708 97 618 l 111 486 b 188 597 146 572 163 597 b 215 542 200 597 221 585 l 140 0 l 363 0 l 404 299 b 564 569 422 431 507 569 b 597 486 599 569 606 549 l 550 153 b 696 -14 536 56 574 -14 b 925 188 838 -14 890 76 l 876 208 b 800 97 842 122 825 97 b 772 153 788 97 767 110 l 821 500 b 690 708 843 653 783 708 b 435 514 589 708 492 635 l 432 514 z m 458 -50 b 350 -146 408 -50 357 -96 b 426 -247 340 -211 376 -247 b 307 -433 503 -247 446 -372 l 329 -478 b 564 -203 418 -447 544 -343 b 458 -50 572 -142 561 -50 z "},"ŏ":{"ha":776,"x_min":0,"x_max":0,"o":""},"ő":{"ha":776,"x_min":0,"x_max":0,"o":""},"ō":{"ha":776,"x_min":0,"x_max":0,"o":""},"ǿ":{"ha":776,"x_min":0,"x_max":0,"o":"m 503 764 l 478 790 l 644 1000 b 731 914 710 1083 832 981 z m 801 660 l 757 708 l 686 639 b 492 708 639 682 574 708 b 103 347 283 708 133 547 b 140 104 88 253 100 168 l 69 35 l 115 -14 l 183 53 b 378 -14 229 10 296 -14 b 769 347 585 -14 736 147 b 729 589 783 440 769 525 z m 339 347 b 476 639 368 556 403 639 b 547 503 528 639 549 599 l 332 292 b 339 347 333 308 336 328 z m 533 347 b 394 56 504 139 468 56 b 324 190 343 56 322 96 l 540 403 b 533 347 539 386 536 367 z "},"ŕ":{"ha":664,"x_min":0,"x_max":0,"o":""},"ř":{"ha":664,"x_min":0,"x_max":0,"o":""},"ŗ":{"ha":664,"x_min":0,"x_max":0,"o":"m 619 514 b 404 299 469 538 422 431 l 363 0 l 140 0 l 215 542 b 188 597 221 585 200 597 b 111 486 163 597 146 572 l 63 507 b 292 708 97 618 150 708 b 438 544 414 708 454 639 l 432 514 l 435 514 b 626 708 492 635 539 708 b 619 514 763 708 736 496 z m 228 -50 b 119 -146 178 -50 126 -96 b 196 -247 110 -211 146 -247 b 76 -433 272 -247 215 -372 l 99 -478 b 333 -203 188 -447 314 -343 b 228 -50 342 -142 331 -50 z "},"ś":{"ha":667,"x_min":0,"x_max":0,"o":""},"ş":{"ha":667,"x_min":0,"x_max":0,"o":"m 317 56 b 258 157 296 56 238 61 b 185 229 265 186 254 229 b 79 160 101 229 83 183 b 299 -12 65 72 140 -6 l 286 -69 b 329 -215 268 -160 339 -142 b 199 -306 321 -274 242 -292 l 203 -368 b 479 -197 306 -354 465 -285 b 344 -56 497 -75 338 -106 l 350 -12 b 631 208 496 -1 613 85 b 424 465 647 333 593 389 b 346 563 379 485 339 507 b 433 639 354 618 399 639 b 499 538 454 639 519 633 b 572 465 492 508 503 465 b 678 535 656 465 674 511 b 436 708 692 626 610 708 b 144 507 256 708 160 618 b 306 271 128 389 175 331 b 413 146 411 222 417 179 b 317 56 404 83 361 56 z "},"ŝ":{"ha":667,"x_min":0,"x_max":0,"o":""},"ș":{"ha":667,"x_min":0,"x_max":0,"o":"m 317 56 b 258 157 296 56 238 61 b 185 229 265 186 254 229 b 79 160 101 229 83 183 b 321 -14 65 68 147 -14 b 631 208 481 -14 611 76 b 424 465 647 333 593 389 b 346 563 379 485 339 507 b 433 639 354 618 399 639 b 499 538 454 639 519 633 b 572 465 492 508 503 465 b 678 535 656 465 674 511 b 436 708 692 626 610 708 b 144 507 256 708 160 618 b 306 271 128 389 175 331 b 413 146 411 222 417 179 b 317 56 404 83 361 56 z m 303 -50 b 194 -146 253 -50 201 -96 b 271 -247 185 -211 221 -247 b 151 -433 347 -247 290 -372 l 174 -478 b 408 -203 263 -447 389 -343 b 303 -50 417 -142 406 -50 z "},"ŧ":{"ha":486,"x_min":0,"x_max":0,"o":"m 363 410 l 460 410 l 468 472 l 371 472 l 392 618 l 531 618 l 542 694 l 403 694 l 432 903 l 376 903 l 182 708 l 124 688 l 114 618 l 169 618 l 149 472 l 93 472 l 85 410 l 140 410 l 104 153 b 250 -14 90 56 128 -14 b 493 188 392 -14 458 76 l 444 208 b 354 97 410 122 379 97 b 326 153 342 97 321 110 z "},"ť":{"ha":528,"x_min":0,"x_max":0,"o":"m 392 618 l 531 618 l 542 694 l 403 694 l 432 903 l 376 903 l 182 708 l 124 688 l 114 618 l 169 618 l 104 153 b 250 -14 90 56 128 -14 b 493 188 392 -14 458 76 l 444 208 b 354 97 410 122 379 97 b 326 153 342 97 321 110 z m 622 1172 b 514 1076 572 1172 521 1126 b 590 975 504 1011 540 975 b 471 789 667 975 610 850 l 493 744 b 728 1019 582 775 708 879 b 622 1172 736 1081 725 1172 z "},"ţ":{"ha":486,"x_min":0,"x_max":0,"o":"m 392 618 l 531 618 l 542 694 l 403 694 l 432 903 l 376 903 l 182 708 l 124 688 l 114 618 l 169 618 l 104 153 b 250 -14 90 56 128 -14 b 493 188 392 -14 458 76 l 444 208 b 354 97 410 122 379 97 b 326 153 342 97 321 110 z m 228 -50 b 119 -146 178 -50 126 -96 b 196 -247 110 -211 146 -247 b 76 -433 272 -247 215 -372 l 99 -478 b 333 -203 188 -447 314 -343 b 228 -50 342 -142 331 -50 z "},"ț":{"ha":486,"x_min":0,"x_max":0,"o":"m 392 618 l 531 618 l 542 694 l 403 694 l 432 903 l 376 903 l 182 708 l 124 688 l 114 618 l 169 618 l 104 153 b 250 -14 90 56 128 -14 b 493 188 392 -14 458 76 l 444 208 b 354 97 410 122 379 97 b 326 153 342 97 321 110 z m 228 -53 b 119 -149 178 -53 126 -99 b 196 -250 110 -214 146 -250 b 76 -436 272 -250 215 -375 l 99 -481 b 333 -206 188 -450 314 -346 b 228 -53 342 -144 331 -53 z "},"ŭ":{"ha":863,"x_min":0,"x_max":0,"o":""},"ű":{"ha":863,"x_min":0,"x_max":0,"o":""},"ū":{"ha":863,"x_min":0,"x_max":0,"o":""},"ų":{"ha":863,"x_min":0,"x_max":0,"o":"m 774 -222 b 729 -11 597 -290 610 -121 b 925 188 847 1 893 85 l 876 208 b 800 97 842 122 825 97 b 772 153 788 97 767 110 l 847 694 l 625 694 l 583 396 b 424 125 565 264 481 125 b 390 208 389 125 382 146 l 438 542 b 292 708 451 639 414 708 b 63 507 150 708 97 618 l 111 486 b 188 597 146 572 163 597 b 215 542 200 597 221 585 l 167 194 b 297 -14 144 42 204 -14 b 553 181 399 -14 496 60 l 556 181 l 550 150 b 663 -11 535 64 567 0 b 633 -326 471 -146 467 -326 b 767 -271 675 -326 738 -303 z "},"ů":{"ha":863,"x_min":0,"x_max":0,"o":""},"ũ":{"ha":863,"x_min":0,"x_max":0,"o":""},"ẃ":{"ha":1199,"x_min":0,"x_max":0,"o":""},"ŵ":{"ha":1199,"x_min":0,"x_max":0,"o":""},"ẅ":{"ha":1199,"x_min":0,"x_max":0,"o":""},"ẁ":{"ha":1199,"x_min":0,"x_max":0,"o":""},"ŷ":{"ha":814,"x_min":0,"x_max":0,"o":""},"ỳ":{"ha":814,"x_min":0,"x_max":0,"o":""},"ź":{"ha":688,"x_min":0,"x_max":0,"o":""},"ż":{"ha":688,"x_min":0,"x_max":0,"o":""},"Ŋ":{"ha":1014,"x_min":0,"x_max":0,"o":"m 781 -76 l 347 792 l 257 153 b 367 42 246 76 257 56 l 361 0 l 42 0 l 47 42 b 181 153 132 56 169 76 l 274 819 b 172 931 285 896 253 917 l 178 972 l 525 972 l 838 333 l 906 819 b 797 931 917 896 906 917 l 803 972 l 1122 972 l 1117 931 b 982 819 1031 917 993 896 l 868 0 b 468 -375 836 -222 742 -375 b 492 -257 294 -375 372 -194 b 771 -139 676 -353 758 -235 z "},"ŋ":{"ha":806,"x_min":0,"x_max":0,"o":"m 508 63 b 385 -236 478 -153 553 -328 b 379 -375 307 -194 226 -375 b 731 63 489 -375 697 -181 l 792 500 b 661 708 813 653 754 708 b 406 514 560 708 463 635 l 403 514 l 408 544 b 263 708 425 639 385 708 b 33 507 121 708 68 618 l 82 486 b 158 597 117 572 133 597 b 186 542 171 597 192 585 l 111 0 l 333 0 l 375 299 b 535 569 393 431 478 569 b 568 486 569 569 576 549 z "},"ſ":{"ha":431,"x_min":0,"x_max":0,"o":"m 417 694 b 589 931 447 908 418 1022 b 594 1069 665 889 747 1069 b 194 694 492 1069 226 917 l 106 63 b -18 -236 75 -153 150 -328 b -24 -375 -96 -194 -176 -375 b 328 63 86 -375 293 -181 z "},"₣":{"ha":799,"x_min":0,"x_max":0,"o":"m 78 264 l 69 201 l 153 201 l 146 153 b 47 42 135 76 104 56 l 42 0 l 431 0 l 436 42 b 368 153 382 56 357 76 l 375 201 l 500 201 l 508 264 l 383 264 l 408 438 l 492 438 b 621 292 568 438 624 403 l 669 292 l 719 646 l 671 646 b 500 500 643 535 576 500 l 417 500 l 475 910 l 676 910 b 825 736 753 910 826 849 l 874 736 l 900 972 l 178 972 l 172 931 b 239 819 225 917 250 896 l 161 264 z "},"₤":{"ha":885,"x_min":0,"x_max":0,"o":"m 176 569 l 168 507 l 263 507 b 254 403 261 471 258 436 l 153 403 l 144 340 l 246 340 b 64 63 225 224 178 125 l 83 0 b 510 -51 267 76 444 -40 b 842 194 728 -90 818 136 l 793 194 b 618 111 747 94 682 86 b 250 99 532 144 468 208 l 250 101 b 419 340 336 168 388 253 l 603 340 l 611 403 l 438 403 b 460 507 447 438 454 472 l 626 507 l 635 569 l 467 569 b 486 778 474 650 476 724 b 617 910 506 882 571 910 b 692 788 685 910 717 889 b 763 715 686 758 693 715 b 886 813 846 715 878 764 b 650 986 901 901 824 986 b 268 656 460 986 278 882 b 264 569 267 626 265 597 z "},"₧":{"ha":1028,"x_min":0,"x_max":0,"o":"m 171 729 l 163 667 l 246 667 l 174 153 b 75 42 163 76 132 56 l 69 0 l 458 0 l 464 42 b 396 153 410 56 385 76 l 431 403 l 514 403 b 938 667 776 403 901 538 l 1051 667 l 1060 729 l 947 729 b 664 972 958 871 863 972 l 206 972 l 200 931 b 267 819 253 917 278 896 l 254 729 z m 440 465 l 468 667 l 710 667 b 496 465 688 556 624 465 z m 503 910 l 600 910 b 718 729 699 910 725 826 l 476 729 z "},"‼":{"ha":778,"x_min":0,"x_max":0,"o":"m 132 88 b 219 -14 125 32 164 -14 b 335 88 275 -14 328 32 b 249 189 343 143 304 189 b 132 88 193 189 140 143 z m 290 278 l 454 947 b 374 1069 474 1025 443 1069 b 251 947 304 1069 254 1025 l 235 278 z m 465 88 b 553 -14 458 32 497 -14 b 668 88 608 -14 661 32 b 582 189 676 143 638 189 b 465 88 526 189 474 143 z m 624 278 l 788 947 b 707 1069 807 1025 776 1069 b 585 947 638 1069 588 1025 l 568 278 z "},"∕":{"ha":667,"x_min":0,"x_max":0,"o":"m 692 1069 l 196 -83 l 113 -83 l 610 1069 z "},"∙":{"ha":494,"x_min":0,"x_max":0,"o":"m 163 344 b 276 213 153 272 204 213 b 426 344 349 213 417 272 b 314 476 438 417 386 476 b 163 344 242 476 174 417 z "},"≤":{"ha":778,"x_min":0,"x_max":0,"o":"m 675 164 l 660 56 l 132 56 l 143 132 l 560 132 l 174 351 l 179 393 l 746 671 l 733 581 l 282 374 z "},"≈":{"ha":764,"x_min":0,"x_max":0,"o":"m 215 403 b 333 500 242 429 283 500 b 549 403 399 500 483 403 b 732 569 613 403 694 511 l 688 597 b 572 514 661 569 621 514 b 363 611 518 514 418 611 b 171 431 299 611 208 490 z m 186 194 b 304 292 213 221 254 292 b 519 194 369 292 454 194 b 703 361 583 194 665 303 l 658 389 b 542 306 632 361 590 306 b 333 403 488 306 389 403 b 142 222 269 403 179 282 z "}}}
